<?xml version="1.0" encoding="utf-8"?>
<!-- Generator: Adobe Illustrator 21.0.2, SVG Export Plug-In . SVG Version: 6.00 Build 0)  -->
<svg version="1.1" id="Calque_1" xmlns="http://www.w3.org/2000/svg" xmlns:xlink="http://www.w3.org/1999/xlink" x="0px" y="0px"
	 viewBox="0 0 255.1 255.1" style="enable-background:new 0 0 255.1 255.1;" xml:space="preserve">
<style type="text/css">
	.st0{fill:#223C49;}
</style>
<g>
	<path class="st0" d="M126.9,217.4c-3.5-1.8-6.5-3.3-10.1-5.1c-5.8,5.7-13.3,4.4-21,0.7c-8-3.9-12.9-10.1-12.9-19.2
		c0-5.6,0.9-11.3,1.3-16.9c0.2-2.6,0.1-5.3-0.1-7.9c-0.4-4.4-2-7.4-7.2-8.5c-7.7-1.6-13.1-6.9-17.2-13.5c-1.2-2-2.3-4-3.4-6
		c-9.3,3.1-11.1,15.8-3.7,21.5c4,3.1,9.6,4.2,14.2,6.6c2.1,1.1,3.8,3,5.7,4.6c-1.9,1.8-3.6,4.6-5.9,5.2c-11,3-25.2-5.9-29.4-18
		c-3.9-11.4,1.6-24.2,12.8-29c3-1.3,4.4-2.8,4.5-6.1c0.1-3.3,1.1-6.5,1.8-9.8c-22.6-16.4-20.2-36,6.5-52
		c-6.1-19.6,9.3-41.5,27.7-37.2c4.5-10.2,12-16.1,23.6-15.5c7.1,0.4,12.7,4.3,14.3,10.5c0.5,1.9-0.6,4.2-1,6.3
		c-1.9-0.6-4.2-0.7-5.5-1.9c-4-3.5-8.1-5.8-13.6-3.8s-8.1,5.9-8.7,11.6c-0.5,4.3-3.6,6.7-8.1,5.8c-5.3-1-10.5-2.7-14.9,2.1
		c-5.1,5.5-7.8,11.9-7.4,19c7.9,1.5,15.6,3,23.3,4.5c9-32.1,52.4-40,76.8-13.4c1.6-1.9,3.1-3.8,4.8-5.5c7.9-8.4,19.1-10.1,29.1-4.4
		c11.9,6.8,21.6,23.4,17.2,37.2c-0.3,0.9,0.3,2.8,1.1,3.3c13.3,8.9,15.9,27.3,9.3,42.8c-1.5,3.6-1.5,6.2,0.6,9.6
		c8.4,13.6,5,28.7-8.3,38c-12.9,9.1-27,12.4-43.1,7.8c0.4,3.7,0.7,6.8,1,9.9c1.2,13.8-11.6,26.7-25.4,25.2c-3.4-0.4-6.7-2.4-9.5-3.5
		c-2.8,1.5-5.8,3.1-9,4.9c-0.9,5.3-1.1,11.8-3.1,17.6c-1.5,4.5-4.7,8.7-7.9,12.3c-1.2,1.3-4.8,1.7-6.6,0.8c-1.1-0.5-1.5-4.2-1-6.2
		c1-3.5,3.2-6.6,4.4-10C124.4,226.9,125.6,221.8,126.9,217.4z M179.3,145.7c2.2,0,3.7,0.1,5.1,0c4.8-0.4,9.8,0.1,14.2-1.4
		c14.1-5,24.3-21.1,24-36.5c-0.2-10.9-7.6-18.1-18.5-18.3c-3.5-0.1-7.9-0.2-8.3-4.5c-0.4-4.5,4-4.4,7.2-5c5.7-1.1,8-3.6,6.9-9.4
		c-0.8-4.1-2.5-8.3-4.9-11.8c-8.2-12.2-18.2-12.9-28.6-2.6c-2.3,2.2-3,4.3-2.2,7.5c2.9,11.3-1.5,22.6-11.3,28.6
		c-1.7,1-4.2,0.7-6.3,1c0-2.1-0.5-4.3,0-6.3c1.1-4,3.1-7.7,4.2-11.7c1.7-6.1,0.1-11.8-4.5-16c-9.9-9-21.4-11.8-34.2-7.2
		c-16.9,6.2-21.5,21.7-10.5,35.9c2.7,3.5,6.4,6.2,9.6,9.4c1.1,1.1,2.1,2.4,3.6,4.1c-12.1,1.1-25.9-7.8-30-20.4
		c-2.1-6.3-5.9-7.6-11-8.7C70.4,69.6,57,76.6,53,88.5c-1.6,4.8-1.6,9.4,2.4,12.9c3.9,3.5,8.2,6,14,3.5c4.8-2.1,9.9-2.1,14.4,0.7
		c1.7,1.1,2.6,3.4,3.9,5.2c-1.7,1.2-3.2,2.7-5.1,3.4c-1.6,0.6-3.6,0.4-5.4,0.6c-6.9,0.7-10.7,4.2-11.4,11
		c-1.2,12.3,3.1,22.2,13.2,29.4c1.2,0.8,2.7,1.5,4.1,1.5c12.1-0.1,20.7,6.2,28.3,14.6c0.9,1,1.9,2,3.1,3.4
		c5.9-11.6,11.5-22.6,17.1-33.7c5.7,11.2,11.3,22.2,17.2,33.7c9.3-10.6,18.9-19.2,34.1-17.6c-1.6,5.3-3.1,10.2-4.8,15.8
		c16.6,1.8,30.7-0.9,41.8-12.6c5.4-5.7,5.6-13.1,1-18.9C201.4,154.8,187.1,156.6,179.3,145.7z"/>
	<path class="st0" d="M120.9,135.6c0.5-3.2,0.3-6.7,1.6-9.5c7-15.8,31.7-23.1,46.4-13.9c7,4.4,10.8,13.2,9.1,21.1
		c-0.7,3.4-2.7,5.8-6.4,5.9c-3.6,0.1-4.9-2.7-5.2-5.6c-0.6-4.2,0.1-8.9-4.5-11.4c-5.4-3-11.2-2.6-17-1.2
		c-7.7,1.8-14.1,5.7-18.8,12.2c-0.8,1.1-1.9,2.1-2.9,3.1C122.4,136,121.7,135.8,120.9,135.6z"/>
</g>
</svg>
