<?xml version="1.0" encoding="UTF-8" standalone="no"?>
<!-- Generator: Adobe Illustrator 21.0.2, SVG Export Plug-In . SVG Version: 6.00 Build 0)  -->

<svg
   xmlns:dc="http://purl.org/dc/elements/1.1/"
   xmlns:cc="http://creativecommons.org/ns#"
   xmlns:rdf="http://www.w3.org/1999/02/22-rdf-syntax-ns#"
   xmlns:svg="http://www.w3.org/2000/svg"
   xmlns="http://www.w3.org/2000/svg"
   xmlns:sodipodi="http://sodipodi.sourceforge.net/DTD/sodipodi-0.dtd"
   xmlns:inkscape="http://www.inkscape.org/namespaces/inkscape"
   version="1.1"
   id="Calque_1"
   x="0px"
   y="0px"
   viewBox="0 0 79.999999 79.999999"
   xml:space="preserve"
   sodipodi:docname="coton.svg"
   width="80"
   height="80"
   inkscape:version="0.92.2 5c3e80d, 2017-08-06"><metadata
     id="metadata2551"><rdf:RDF><cc:Work
         rdf:about=""><dc:format>image/svg+xml</dc:format><dc:type
           rdf:resource="http://purl.org/dc/dcmitype/StillImage" /><dc:title></dc:title></cc:Work></rdf:RDF></metadata><defs
     id="defs2549" /><sodipodi:namedview
     pagecolor="#ffffff"
     bordercolor="#666666"
     borderopacity="1"
     objecttolerance="10"
     gridtolerance="10"
     guidetolerance="10"
     inkscape:pageopacity="0"
     inkscape:pageshadow="2"
     inkscape:window-width="1920"
     inkscape:window-height="1053"
     id="namedview2547"
     showgrid="false"
     fit-margin-top="0"
     fit-margin-left="0"
     fit-margin-right="0"
     fit-margin-bottom="0"
     inkscape:zoom="7.401019"
     inkscape:cx="53.676507"
     inkscape:cy="46.302198"
     inkscape:window-x="0"
     inkscape:window-y="27"
     inkscape:window-maximized="0"
     inkscape:current-layer="Calque_1"
     showguides="true"
     inkscape:guide-bbox="true"><sodipodi:guide
       position="39.745394,-13.758021"
       orientation="1,0"
       id="guide3739"
       inkscape:locked="false" /></sodipodi:namedview><style
     type="text/css"
     id="style2538">
	.st0{fill:#223C49;}
</style><g
     id="g3737"
     transform="matrix(0.29507585,0,0,0.29507585,12.085479,3.1090552)"><g
       transform="translate(-35.9512,-11.258243)"
       id="g2544"><path
         style="fill:#223c49"
         inkscape:connector-curvature="0"
         id="path2540"
         d="m 126.9,217.4 c -3.5,-1.8 -6.5,-3.3 -10.1,-5.1 -5.8,5.7 -13.3,4.4 -21,0.7 -8,-3.9 -12.9,-10.1 -12.9,-19.2 0,-5.6 0.9,-11.3 1.3,-16.9 0.2,-2.6 0.1,-5.3 -0.1,-7.9 -0.4,-4.4 -2,-7.4 -7.2,-8.5 -7.7,-1.6 -13.1,-6.9 -17.2,-13.5 -1.2,-2 -2.3,-4 -3.4,-6 -9.3,3.1 -11.1,15.8 -3.7,21.5 4,3.1 9.6,4.2 14.2,6.6 2.1,1.1 3.8,3 5.7,4.6 -1.9,1.8 -3.6,4.6 -5.9,5.2 -11,3 -25.2,-5.9 -29.4,-18 -3.9,-11.4 1.6,-24.2 12.8,-29 3,-1.3 4.4,-2.8 4.5,-6.1 0.1,-3.3 1.1,-6.5 1.8,-9.8 C 33.7,99.6 36.1,80 62.8,64 56.7,44.4 72.1,22.5 90.5,26.8 c 4.5,-10.2 12,-16.1 23.6,-15.5 7.1,0.4 12.7,4.3 14.3,10.5 0.5,1.9 -0.6,4.2 -1,6.3 -1.9,-0.6 -4.2,-0.7 -5.5,-1.9 -4,-3.5 -8.1,-5.8 -13.6,-3.8 -5.5,2 -8.1,5.9 -8.7,11.6 -0.5,4.3 -3.6,6.7 -8.1,5.8 -5.3,-1 -10.5,-2.7 -14.9,2.1 -5.1,5.5 -7.8,11.9 -7.4,19 7.9,1.5 15.6,3 23.3,4.5 9,-32.1 52.4,-40 76.8,-13.4 1.6,-1.9 3.1,-3.8 4.8,-5.5 7.9,-8.4 19.1,-10.1 29.1,-4.4 11.9,6.8 21.6,23.4 17.2,37.2 -0.3,0.9 0.3,2.8 1.1,3.3 13.3,8.9 15.9,27.3 9.3,42.8 -1.5,3.6 -1.5,6.2 0.6,9.6 8.4,13.6 5,28.7 -8.3,38 -12.9,9.1 -27,12.4 -43.1,7.8 0.4,3.7 0.7,6.8 1,9.9 1.2,13.8 -11.6,26.7 -25.4,25.2 -3.4,-0.4 -6.7,-2.4 -9.5,-3.5 -2.8,1.5 -5.8,3.1 -9,4.9 -0.9,5.3 -1.1,11.8 -3.1,17.6 -1.5,4.5 -4.7,8.7 -7.9,12.3 -1.2,1.3 -4.8,1.7 -6.6,0.8 -1.1,-0.5 -1.5,-4.2 -1,-6.2 1,-3.5 3.2,-6.6 4.4,-10 1.5,-4.9 2.7,-10 4,-14.4 z m 52.4,-71.7 c 2.2,0 3.7,0.1 5.1,0 4.8,-0.4 9.8,0.1 14.2,-1.4 14.1,-5 24.3,-21.1 24,-36.5 -0.2,-10.9 -7.6,-18.1 -18.5,-18.3 -3.5,-0.1 -7.9,-0.2 -8.3,-4.5 -0.4,-4.5 4,-4.4 7.2,-5 5.7,-1.1 8,-3.6 6.9,-9.4 -0.8,-4.1 -2.5,-8.3 -4.9,-11.8 -8.2,-12.2 -18.2,-12.9 -28.6,-2.6 -2.3,2.2 -3,4.3 -2.2,7.5 2.9,11.3 -1.5,22.6 -11.3,28.6 -1.7,1 -4.2,0.7 -6.3,1 0,-2.1 -0.5,-4.3 0,-6.3 1.1,-4 3.1,-7.7 4.2,-11.7 1.7,-6.1 0.1,-11.8 -4.5,-16 -9.9,-9 -21.4,-11.8 -34.2,-7.2 -16.9,6.2 -21.5,21.7 -10.5,35.9 2.7,3.5 6.4,6.2 9.6,9.4 1.1,1.1 2.1,2.4 3.6,4.1 -12.1,1.1 -25.9,-7.8 -30,-20.4 -2.1,-6.3 -5.9,-7.6 -11,-8.7 C 70.4,69.6 57,76.6 53,88.5 c -1.6,4.8 -1.6,9.4 2.4,12.9 3.9,3.5 8.2,6 14,3.5 4.8,-2.1 9.9,-2.1 14.4,0.7 1.7,1.1 2.6,3.4 3.9,5.2 -1.7,1.2 -3.2,2.7 -5.1,3.4 -1.6,0.6 -3.6,0.4 -5.4,0.6 -6.9,0.7 -10.7,4.2 -11.4,11 -1.2,12.3 3.1,22.2 13.2,29.4 1.2,0.8 2.7,1.5 4.1,1.5 12.1,-0.1 20.7,6.2 28.3,14.6 0.9,1 1.9,2 3.1,3.4 5.9,-11.6 11.5,-22.6 17.1,-33.7 5.7,11.2 11.3,22.2 17.2,33.7 9.3,-10.6 18.9,-19.2 34.1,-17.6 -1.6,5.3 -3.1,10.2 -4.8,15.8 16.6,1.8 30.7,-0.9 41.8,-12.6 5.4,-5.7 5.6,-13.1 1,-18.9 -19.5,13.4 -33.8,15.2 -41.6,4.3 z"
         class="st0" /><path
         style="fill:#223c49"
         inkscape:connector-curvature="0"
         id="path2542"
         d="m 120.9,135.6 c 0.5,-3.2 0.3,-6.7 1.6,-9.5 7,-15.8 31.7,-23.1 46.4,-13.9 7,4.4 10.8,13.2 9.1,21.1 -0.7,3.4 -2.7,5.8 -6.4,5.9 -3.6,0.1 -4.9,-2.7 -5.2,-5.6 -0.6,-4.2 0.1,-8.9 -4.5,-11.4 -5.4,-3 -11.2,-2.6 -17,-1.2 -7.7,1.8 -14.1,5.7 -18.8,12.2 -0.8,1.1 -1.9,2.1 -2.9,3.1 -0.8,-0.3 -1.5,-0.5 -2.3,-0.7 z"
         class="st0" /></g></g></svg>