<?xml version="1.0" encoding="UTF-8" standalone="no"?>
<!-- Generator: Adobe Illustrator 21.0.2, SVG Export Plug-In . SVG Version: 6.00 Build 0)  -->

<svg
   xmlns:dc="http://purl.org/dc/elements/1.1/"
   xmlns:cc="http://creativecommons.org/ns#"
   xmlns:rdf="http://www.w3.org/1999/02/22-rdf-syntax-ns#"
   xmlns:svg="http://www.w3.org/2000/svg"
   xmlns="http://www.w3.org/2000/svg"
   xmlns:sodipodi="http://sodipodi.sourceforge.net/DTD/sodipodi-0.dtd"
   xmlns:inkscape="http://www.inkscape.org/namespaces/inkscape"
   version="1.1"
   id="Capture_d_x2019_écran_2018-01-29_à_09.11.38_xA0_Image_1_"
   x="0px"
   y="0px"
   viewBox="0 0 308.89883 320.63834"
   xml:space="preserve"
   sodipodi:docname="reveil.svg"
   width="308.89883"
   height="320.63834"
   inkscape:version="0.92.2 5c3e80d, 2017-08-06"><metadata
     id="metadata1945"><rdf:RDF><cc:Work
         rdf:about=""><dc:format>image/svg+xml</dc:format><dc:type
           rdf:resource="http://purl.org/dc/dcmitype/StillImage" /><dc:title></dc:title></cc:Work></rdf:RDF></metadata><defs
     id="defs1943" /><sodipodi:namedview
     pagecolor="#ffffff"
     bordercolor="#666666"
     borderopacity="1"
     objecttolerance="10"
     gridtolerance="10"
     guidetolerance="10"
     inkscape:pageopacity="0"
     inkscape:pageshadow="2"
     inkscape:window-width="1920"
     inkscape:window-height="1053"
     id="namedview1941"
     showgrid="false"
     fit-margin-top="0"
     fit-margin-left="0"
     fit-margin-right="0"
     fit-margin-bottom="0"
     inkscape:zoom="0.64305177"
     inkscape:cx="-154.62119"
     inkscape:cy="175.5"
     inkscape:window-x="0"
     inkscape:window-y="27"
     inkscape:window-maximized="0"
     inkscape:current-layer="g1938" /><style
     type="text/css"
     id="style1926">
	.st0{fill:#223C49;}
</style><g
     id="g1938"
     transform="translate(-51.6,-38.361665)"><path
       inkscape:connector-curvature="0"
       style="fill:#ffffff;fill-opacity:1"
       id="path1928"
       d="m 278.3,301.5 c 10.3,15.7 20.3,30.8 30.7,46.6 -5.4,3.6 -10.7,7.1 -16.6,10.9 -10.2,-15.5 -20.4,-30.8 -29.7,-44.9 -13.2,3.8 -25.3,8.4 -37.9,10.9 -26,5.1 -50.9,0.2 -74.3,-11.9 -7.4,-3.8 -7.6,-3.9 -11.9,3.4 -7.7,13 -15.4,26 -23.5,39.5 -5.7,-3.4 -11.2,-6.7 -17.1,-10.1 9.6,-16.3 19.1,-32.3 28.7,-48.6 -30.3,-27.7 -43.9,-62.4 -40.4,-102.9 2.7,-30.9 16.6,-57 39.9,-77.5 49.6,-43.8 122.4,-38.8 165.6,6 24.9,25.8 36.4,57.2 33.9,92.8 -2.4,35.3 -18.4,64.2 -47.4,85.8 z M 106,205.8 c -0.5,55.7 43.6,100.5 99.8,101.1 55.8,0.6 101.2,-49.1 100.2,-101.1 -1,-55.9 -45.9,-99.7 -101.9,-98.9 -54.3,0.8 -98.8,45.7 -98.1,98.9 z"
       class="st0" /><path
       inkscape:connector-curvature="0"
       style="fill:#ffffff;fill-opacity:1"
       id="path1930"
       d="m 51.6,100.8 c 0,-25.5 14.6,-48.2 38.8,-57.6 24.3,-9.4 46.7,-5 66.3,12.3 5.9,5.2 5.7,10.9 -0.6,17.2 -21.5,21.6 -43,43.2 -64.5,64.8 -2.4,2.4 -4.6,4.8 -7.1,7 -5.7,5.1 -10.8,4.8 -16,-0.7 C 57.5,132 51.6,117 51.6,100.8 Z M 135,64.6 C 116.4,53.6 94.2,57.9 80.4,75 69.4,88.7 69.6,111 78.2,121 97,102.3 115.8,83.6 135,64.6 Z"
       class="st0" /><path
       inkscape:connector-curvature="0"
       style="fill:#ffffff;fill-opacity:1"
       id="path1932"
       d="m 302.5,38.7 c 20.7,1 40.2,11.7 51.2,34.7 11.2,23.3 8.4,45.8 -7.2,66.5 -1.7,2.2 -3.6,4.3 -5.8,6.1 -3.6,3 -7.5,3 -11.3,0.1 -1.3,-1 -2.6,-2.1 -3.8,-3.2 -23.2,-23.2 -46.3,-46.4 -69.5,-69.7 -7.2,-7.3 -7,-12.6 0.8,-19.2 11.9,-10.2 25.6,-15.4 45.6,-15.3 z m -25.4,25.9 c 19.1,19.1 38,37.9 56.9,56.6 9.9,-15.3 7.6,-36.2 -5.7,-50.1 -13.2,-13.7 -34.9,-16.5 -51.2,-6.5 z"
       class="st0" /><path
       inkscape:connector-curvature="0"
       style="fill:#ffffff;fill-opacity:1"
       id="path1934"
       d="m 216,203.5 c 12.7,0 24.6,0 36.6,0 4.2,0 8.3,-0.1 12.5,0.2 5.4,0.3 9.3,4.4 9.7,9.6 0.3,4 -3.1,8.5 -7.6,9.8 -1.9,0.5 -3.9,0.8 -5.9,0.8 -17.1,0.1 -34.3,0.1 -51.5,0 -10.3,0 -13.9,-3.6 -13.9,-13.7 0,-23.5 0,-47 0,-70.4 0,-7.1 3.3,-11.4 8.8,-11.9 6.7,-0.6 11.2,3.7 11.2,10.9 0.1,19.5 0,39 0,58.4 0.1,1.9 0.1,3.7 0.1,6.3 z"
       class="st0" /></g></svg>