<?xml version="1.0" encoding="utf-8"?>
<!-- Generator: Adobe Illustrator 21.0.2, SVG Export Plug-In . SVG Version: 6.00 Build 0)  -->
<svg version="1.1" id="Capture_d_écran_2018-01-29_à_09.23.25_Image"
	 xmlns="http://www.w3.org/2000/svg" xmlns:xlink="http://www.w3.org/1999/xlink" x="0px" y="0px" viewBox="0 0 231.8 151"
	 style="enable-background:new 0 0 231.8 151;" xml:space="preserve">
<style type="text/css">
	.st0{fill:#223C49;}
</style>
<title>truck</title>
<path class="st0" d="M231.7,122.5c-7.6,0.5-7.6,0.5-11.9-7.3c1-1.6,2.7-2.9,2.7-4.2c0.2-8.2,0.1-16.3,0.1-24.5c0-1-0.1-2-0.2-3.7
	h-32.5V46.8h23.1c-8.4-8.9-17.1-7.3-44-6.8v82.4H87.1c-1.6-3.5-3-7.4-5.1-10.9c-6.2-10.1-15.5-15.1-27.4-14
	c-11,1-19.6,6.2-23.6,17.1c-3,8.1-2.9,8.1-11.7,8.1H0V0h168.7v30.5c8.3,0,16.1,0.4,23.9-0.1c22.6-1.3,40,16.6,39.2,39.3
	c-0.6,15.8-0.1,31.7-0.1,47.5C231.7,118.9,231.7,120.5,231.7,122.5z M198.9,73.4H223c-0.5-4.9-0.7-9.5-1.5-14c-0.2-1.2-2-3-3-3.1
	c-6.4-0.3-12.9-0.1-19.5-0.1L198.9,73.4z"/>
<path class="st0" d="M194.3,151c-12.7,0.1-23.1-10.2-23.2-22.9c0,0,0,0,0-0.1c0.1-12.7,10.3-23.1,23-23.2
	c12.5,0,23.2,10.7,23.3,23.1S206.9,150.9,194.3,151z M180.6,127.8c0,8.2,5.6,13.9,13.6,13.9c7.7,0.1,14-6,14.2-13.6c0,0,0,0,0,0
	c0-7.5-6.5-14.2-13.9-14.2C186.7,113.9,180.5,120.1,180.6,127.8L180.6,127.8z"/>
<path class="st0" d="M55.9,151c-13.4-0.4-23-11-22.4-24.7c0.5-12,11.6-22,23.8-21.5c12.7,0.7,22.7,11.4,22.3,24.1
	C79,141.4,68.5,151.2,55.9,151z M56.4,141.7c7.7,0,13.9-6.1,14-13.8c-0.2-7.7-6.4-13.8-14.1-14.1c-7.5-0.1-13.9,6.4-13.9,14.1
	c-0.2,7.5,5.8,13.7,13.3,13.8C56,141.7,56.2,141.7,56.4,141.7L56.4,141.7z"/>
</svg>
