<?xml version="1.0" encoding="UTF-8" standalone="no"?>
<!-- Generator: Adobe Illustrator 21.0.2, SVG Export Plug-In . SVG Version: 6.00 Build 0)  -->

<svg
   xmlns:dc="http://purl.org/dc/elements/1.1/"
   xmlns:cc="http://creativecommons.org/ns#"
   xmlns:rdf="http://www.w3.org/1999/02/22-rdf-syntax-ns#"
   xmlns:svg="http://www.w3.org/2000/svg"
   xmlns="http://www.w3.org/2000/svg"
   xmlns:sodipodi="http://sodipodi.sourceforge.net/DTD/sodipodi-0.dtd"
   xmlns:inkscape="http://www.inkscape.org/namespaces/inkscape"
   version="1.1"
   id="Capture_d_écran_2018-01-29_à_09.23.25_Image"
   x="0px"
   y="0px"
   viewBox="0 0 79.999999 70"
   xml:space="preserve"
   sodipodi:docname="truck.svg"
   width="80"
   height="70"
   inkscape:version="0.92.2 5c3e80d, 2017-08-06"><metadata
     id="metadata3155"><rdf:RDF><cc:Work
         rdf:about=""><dc:format>image/svg+xml</dc:format><dc:type
           rdf:resource="http://purl.org/dc/dcmitype/StillImage" /><dc:title>truck</dc:title></cc:Work></rdf:RDF></metadata><defs
     id="defs3153" /><sodipodi:namedview
     pagecolor="#ffffff"
     bordercolor="#666666"
     borderopacity="1"
     objecttolerance="10"
     gridtolerance="10"
     guidetolerance="10"
     inkscape:pageopacity="0"
     inkscape:pageshadow="2"
     inkscape:window-width="1920"
     inkscape:window-height="1053"
     id="namedview3151"
     showgrid="false"
     inkscape:zoom="1.4063848"
     inkscape:cx="-19.909203"
     inkscape:cy="75.5"
     inkscape:window-x="0"
     inkscape:window-y="27"
     inkscape:window-maximized="0"
     inkscape:current-layer="Capture_d_écran_2018-01-29_à_09.23.25_Image" /><style
     type="text/css"
     id="style3140">
	.st0{fill:#223C49;}
</style><title
     id="title3142">truck</title><g
     id="g3703"
     transform="matrix(0.34508564,0,0,0.34508564,0,12.945515)"><path
       id="path3144"
       d="m 231.7,122.5 c -7.6,0.5 -7.6,0.5 -11.9,-7.3 1,-1.6 2.7,-2.9 2.7,-4.2 0.2,-8.2 0.1,-16.3 0.1,-24.5 0,-1 -0.1,-2 -0.2,-3.7 h -32.5 v -36 H 213 C 204.6,37.9 195.9,39.5 169,40 v 82.4 H 87.1 c -1.6,-3.5 -3,-7.4 -5.1,-10.9 -6.2,-10.1 -15.5,-15.1 -27.4,-14 -11,1 -19.6,6.2 -23.6,17.1 -3,8.1 -2.9,8.1 -11.7,8.1 H 0 V 0 h 168.7 v 30.5 c 8.3,0 16.1,0.4 23.9,-0.1 22.6,-1.3 40,16.6 39.2,39.3 -0.6,15.8 -0.1,31.7 -0.1,47.5 0,1.7 0,3.3 0,5.3 z M 198.9,73.4 H 223 c -0.5,-4.9 -0.7,-9.5 -1.5,-14 -0.2,-1.2 -2,-3 -3,-3.1 C 212.1,56 205.6,56.2 199,56.2 Z"
       class="st0"
       inkscape:connector-curvature="0"
       style="fill:#223c49" /><path
       id="path3146"
       d="m 194.3,151 c -12.7,0.1 -23.1,-10.2 -23.2,-22.9 0,0 0,0 0,-0.1 0.1,-12.7 10.3,-23.1 23,-23.2 12.5,0 23.2,10.7 23.3,23.1 0.1,12.4 -10.5,23 -23.1,23.1 z m -13.7,-23.2 c 0,8.2 5.6,13.9 13.6,13.9 7.7,0.1 14,-6 14.2,-13.6 0,0 0,0 0,0 0,-7.5 -6.5,-14.2 -13.9,-14.2 -7.8,0 -14,6.2 -13.9,13.9 z"
       class="st0"
       inkscape:connector-curvature="0"
       style="fill:#223c49" /><path
       id="path3148"
       d="m 55.9,151 c -13.4,-0.4 -23,-11 -22.4,-24.7 0.5,-12 11.6,-22 23.8,-21.5 C 70,105.5 80,116.2 79.6,128.9 79,141.4 68.5,151.2 55.9,151 Z m 0.5,-9.3 c 7.7,0 13.9,-6.1 14,-13.8 -0.2,-7.7 -6.4,-13.8 -14.1,-14.1 -7.5,-0.1 -13.9,6.4 -13.9,14.1 -0.2,7.5 5.8,13.7 13.3,13.8 0.3,0 0.5,0 0.7,0 z"
       class="st0"
       inkscape:connector-curvature="0"
       style="fill:#223c49" /></g></svg>