<?xml version="1.0" encoding="UTF-8" standalone="no"?>
<!-- Generator: Adobe Illustrator 21.0.2, SVG Export Plug-In . SVG Version: 6.00 Build 0)  -->

<svg
   xmlns:dc="http://purl.org/dc/elements/1.1/"
   xmlns:cc="http://creativecommons.org/ns#"
   xmlns:rdf="http://www.w3.org/1999/02/22-rdf-syntax-ns#"
   xmlns:svg="http://www.w3.org/2000/svg"
   xmlns="http://www.w3.org/2000/svg"
   xmlns:sodipodi="http://sodipodi.sourceforge.net/DTD/sodipodi-0.dtd"
   xmlns:inkscape="http://www.inkscape.org/namespaces/inkscape"
   version="1.1"
   id="Layer_1"
   x="0px"
   y="0px"
   viewBox="0 0 44.898035 37"
   xml:space="preserve"
   sodipodi:docname="jho_small.svg"
   width="44.898033"
   height="37"
   inkscape:version="0.92.2 5c3e80d, 2017-08-06"><metadata
     id="metadata1023"><rdf:RDF><cc:Work
         rdf:about=""><dc:format>image/svg+xml</dc:format><dc:type
           rdf:resource="http://purl.org/dc/dcmitype/StillImage" /><dc:title></dc:title></cc:Work></rdf:RDF></metadata><defs
     id="defs1021"><path
       inkscape:connector-curvature="0"
       d="M 11.7313,-4.63811e-7 V 27.5087 c 0,1.3982 -0.1828,2.6748 -0.518,3.8299 -0.3352,1.1551 -0.7618,2.2493 -1.31025,3.222 -0.54848,0.9727 -1.1579,1.8542 -1.82826,2.6445 C 7.40443,37.9954 6.7036,38.6945 6.00277,39.3328 4.2964,40.8222 2.4072,42.0077 0.274238,42.8892 L 0,42.2813 C 1.34072,41.4302 2.55956,40.3359 3.62604,38.9985 4.5097,37.8738 5.36288,36.4452 6.15512,34.743 6.94737,33.0104 7.34349,30.9434 7.34349,28.5421 V 6.04886 C 7.34349,5.28896 7.22161,4.55945 7.00831,3.86033 6.79501,3.16122 6.12465,2.79646 5.05817,2.76606 V 2.15814 Z"
       id="path0_fill" /><path
       inkscape:connector-curvature="0"
       d="m 27.1191,56.3548 c 0,0.3647 0.0305,0.7599 0.1219,1.1854 0.0914,0.4256 0.2438,0.8207 0.4266,1.1855 0.2133,0.3647 0.4266,0.6687 0.6703,0.9423 0.2438,0.2735 0.5485,0.3951 0.9142,0.3951 v 0.6687 h -8.6842 v -0.6687 c 0.3047,0 0.6094,-0.1216 0.8836,-0.3951 0.2743,-0.2736 0.518,-0.5776 0.7009,-0.9423 0.2132,-0.3648 0.3351,-0.7599 0.4265,-1.1855 0.0915,-0.4255 0.1219,-0.8207 0.1219,-1.1854 V 43.8923 c 0,-1.611 -0.2133,-3.0093 -0.6703,-4.2251 -0.4571,-1.2159 -1.0665,-2.219 -1.8283,-3.0093 -0.7618,-0.7903 -1.6149,-1.3982 -2.59,-1.7629 -0.9751,-0.3648 -1.9502,-0.5776 -2.9252,-0.5776 -0.9751,0 -1.9502,0.1824 -2.9252,0.5776 -0.9751,0.3951 -1.82828,0.9118 -2.55958,1.5806 C 8.47091,37.1443 7.8615,37.965 7.37396,38.9377 6.9169,39.9104 6.67313,40.9742 6.67313,42.1293 v 14.2862 c 0,0.3648 0.03047,0.76 0.12188,1.1855 0.09142,0.4255 0.24377,0.8207 0.4266,1.1855 0.21329,0.3647 0.42659,0.6687 0.67036,0.9422 0.24376,0.2736 0.54847,0.3952 0.91412,0.3952 v 0.6687 H 0.152355 v -0.6687 c 0.304709,0 0.609417,-0.1216 0.883655,-0.3952 0.27424,-0.2735 0.51801,-0.5775 0.70083,-0.9422 0.2133,-0.3648 0.33518,-0.76 0.42659,-1.1855 0.09142,-0.4255 0.12189,-0.8207 0.12189,-1.1855 V 22.0677 C 2.28532,21.3078 2.16343,4.46826 1.95014,3.79954 1.73684,3.13082 1.06648,2.76606 2.32475e-7,2.73567 V 2.06695 L 6.73407,0 v 35.5029 c 0.30471,-0.3648 0.7313,-0.7599 1.21884,-1.1855 0.48753,-0.4255 1.09695,-0.8207 1.76731,-1.2158 0.70088,-0.3648 1.49308,-0.6991 2.40718,-0.9423 0.9141,-0.2432 2.0111,-0.3648 3.2604,-0.3648 2.1025,0 3.9003,0.3648 5.3934,1.0639 1.493,0.7295 2.6814,1.6414 3.626,2.7965 0.9446,1.155 1.615,2.4013 2.0416,3.7691 0.4265,1.3678 0.6398,2.7053 0.6398,3.9819 v 12.9489 z"
       id="path1_fill" /><path
       inkscape:connector-curvature="0"
       d="m 14.6565,29.0589 c -2.2548,0 -4.2659,-0.3648 -6.0637,-1.0943 C 6.79501,27.2351 5.27147,26.232 3.99169,24.9554 2.71191,23.6787 1.73684,22.1589 1.03601,20.4263 0.335178,18.6937 0,16.7788 0,14.7118 0,12.5233 0.365652,10.5171 1.1579,8.72374 1.91967,6.89996 2.98615,5.34975 4.32687,4.0731 5.66759,2.76606 7.25207,1.76298 9.1108,1.06387 10.9391,0.334358 12.9501,-9.27622e-7 15.0831,-9.27622e-7 c 2.1634,0 4.1136,0.334359927622 5.9114,1.033470927622 1.7977,0.69912 3.3518,1.6718 4.6315,2.91805 1.3103,1.24625 2.3158,2.73567 3.0167,4.46826 0.7313,1.73262 1.0664,3.61712 1.0664,5.65372 0,1.915 -0.3351,3.7995 -0.975,5.5929 -0.6399,1.8238 -1.615,3.4044 -2.8948,4.8026 -1.2797,1.3983 -2.8338,2.4925 -4.6925,3.3436 -1.8892,0.8207 -4.0526,1.2463 -6.4903,1.2463 z M 14.1994,2.15814 C 12.5845,2.24933 11.1828,2.64448 9.93352,3.34359 8.71468,4.04271 7.67867,4.9242 6.85595,6.01847 6.03324,7.11274 5.39335,8.35898 4.96676,9.72682 4.54017,11.125 4.32687,12.5233 4.32687,13.9519 c 0,1.6414 0.24377,3.2524 0.76177,4.8026 0.51801,1.5502 1.24931,2.9181 2.22438,4.1339 0.97507,1.2159 2.10249,2.1582 3.44318,2.8877 1.3408,0.7295 2.8338,1.0638 4.4793,1.0638 1.6454,0 3.108,-0.3647 4.3878,-1.0638 1.2797,-0.7295 2.3462,-1.6414 3.1994,-2.7965 0.8532,-1.1551 1.4931,-2.4317 1.9197,-3.8603 0.4266,-1.4286 0.6399,-2.8573 0.6399,-4.2859 0,-1.4894 -0.2133,-2.9484 -0.6704,-4.4683 C 24.2548,8.87572 23.5845,7.50789 22.6399,6.26164 21.6953,5.04579 20.5374,4.04271 19.1357,3.2828 17.7341,2.55329 16.0886,2.15814 14.1994,2.15814 Z"
       id="path2_fill" /><path
       inkscape:connector-curvature="0"
       d="M 0.277129,13.7565 C 0.0229223,13.5068 -0.0406303,13.1947 0.0229213,13.0074 0.0864729,12.7577 0.277129,12.5704 0.594887,12.4456 0.849093,12.3207 1.1033,12.2583 1.29395,12.3207 c 0.12711,0.0625 0.25421,0.1249 0.38131,0.2497 0.06356,0.1249 0.19066,0.3121 0.31776,0.4994 0.06355,0.1873 0.19066,0.3121 0.25421,0.437 0.1271,0.1248 0.2542,0.1872 0.44486,0.2497 0.31776,0.1248 0.63552,0 1.01682,-0.2497 C 4.09022,13.1947 4.47154,12.8201 4.9164,12.1959 6.82295,9.63655 7.77622,8.32567 9.55566,5.7039 9.68277,5.57906 9.74632,5.39178 9.80987,5.26694 9.87342,5.07967 9.80987,4.95482 9.68277,4.95482 9.49211,4.8924 9.1108,4.8924 8.53884,5.01725 c -0.06355,0 -0.1271,0 -0.19065,0 C 8.22108,4.95482 8.15753,4.89241 8.15753,4.76756 8.15753,4.70514 8.22108,4.64271 8.28463,4.58029 8.34818,4.51787 8.47529,4.45544 8.60239,4.45544 9.04725,4.26818 9.49211,4.14332 10.0005,4.01848 c 0.5084,-0.12485 1.0804,-0.18727 1.843,-0.31212 0.3178,-0.06242 0.4449,-0.06242 0.7626,-0.12484 0.1907,0 0.3178,0.06243 0.4449,0.24969 0.1271,0.18727 0.1271,0.31211 0.0636,0.49938 C 12.9239,4.58028 12.8603,4.64271 12.7332,4.8924 12.2884,5.45421 11.9706,5.89117 11.78,6.20328 10.1276,8.57535 9.30146,9.76139 7.58557,12.1335 c -0.38131,0.5618 -0.95328,1.0612 -1.7159,1.4357 -0.76262,0.3745 -1.52524,0.6866 -2.35141,0.8115 -0.82617,0.1248 -1.39813,0.1248 -1.843,0 C 0.912645,14.2558 0.531335,14.0062 0.277129,13.7565 Z M 12.6061,1.77125 C 12.479,1.52156 12.479,1.33429 12.5426,1.0846 c 0.1271,-0.37454 0.3177,-0.686652 0.6991,-0.873921 0.3177,-0.1872685 0.699,-0.2496934 1.0803,-0.1872704 0.2542,0.062423 0.3813,0.1872674 0.5084,0.4369594 0.1272,0.249692 0.1272,0.499382 0.0636,0.749072 -0.0635,0.37454 -0.3178,0.62423 -0.6355,0.8115 -0.3178,0.18727 -0.6991,0.24969 -1.0168,0.12485 -0.3814,0 -0.572,-0.12484 -0.6356,-0.37454 z"
       id="path3_fill" /><path
       inkscape:connector-curvature="0"
       d="M 0.152034,6.86653 C 0.0249311,6.55441 -0.038621,6.2423 0.0249306,5.93018 0.0249306,5.80534 0.0884827,5.74292 0.152034,5.68049 1.35952,4.24477 1.93148,3.49569 3.07541,2.05996 3.20251,1.87269 3.32962,1.74784 3.32962,1.68542 c 0,-0.12485 -10e-6,-0.18727 -0.12711,-0.24969 -0.1271,0 -0.31776,0 -0.69907,0.18727 C 2.12213,1.74785 1.80438,1.87269 1.55017,1.99753 1.42307,2.05995 1.29596,2.05996 1.23241,2.05996 1.10531,2.05996 1.10531,1.99753 1.10531,1.87269 1.16886,1.68542 1.29596,1.49815 1.55017,1.31088 2.24924,0.811501 2.94831,0.436965 3.64737,0.249696 4.34644,3.81372e-6 4.98196,-0.0624211 5.42682,0.0624249 5.61747,0.124848 5.74458,0.249692 5.87168,0.499384 5.99878,0.749076 6.06234,0.936349 5.99878,1.18604 5.99878,1.24846 5.93523,1.31088 5.93523,1.3733 5.55392,1.81026 5.04551,2.4345 4.34644,3.30842 3.64737,4.11992 3.32962,4.55688 2.63055,5.36838 2.50345,5.55565 2.37634,5.74292 2.31279,5.86776 c -0.06355,0.18727 0,0.2497 0.1271,0.31212 C 2.63055,6.2423 2.88475,6.11745 3.32962,5.80534 3.77448,5.49322 4.47354,4.99384 5.42682,4.30719 5.99878,3.87023 6.57075,3.43326 7.14271,2.93388 7.71468,2.43449 8.15954,2.05995 8.4773,1.68542 8.7315,1.43572 8.92216,1.24846 9.11281,1.12361 9.30347,0.998768 9.43057,0.99877 9.62122,0.99877 c 0.25421,0.06242 0.38128,0.18727 0.57198,0.43696 0.1271,0.24969 0.1906,0.43696 0.1271,0.62423 0,0.06242 -0.0636,0.06242 -0.0636,0.18727 C 8.98571,4.0575 8.35019,4.93142 7.07916,6.74168 7.01561,6.86653 6.95206,6.92895 6.95206,7.0538 c 0,0.12484 0,0.18727 0.06355,0.18727 C 7.20626,7.30349 7.52402,7.17864 8.09599,6.99137 8.66795,6.8041 9.11281,6.55441 9.43057,6.36714 c 0.06355,0 0.06355,-0.06242 0.06355,-0.06242 0.06355,0 0.1271,0.06242 0.1271,0.12485 C 9.68478,6.49199 9.68478,6.55442 9.68478,6.61684 9.62123,6.80411 9.43057,6.99138 9.04926,7.24107 8.66795,7.49076 8.22309,7.67803 7.77823,7.80287 7.33337,7.99014 6.95206,8.05257 6.6343,8.05257 6.18944,8.17741 5.74458,8.23983 5.36327,8.11499 5.10906,8.05256 4.85485,7.92772 4.72775,7.80287 4.6642,7.80287 4.6642,7.74045 4.60065,7.6156 c 0,-0.12485 0,-0.18727 0,-0.31211 0,-0.12485 0.06355,-0.18727 0.06355,-0.18727 C 4.7913,6.92896 4.91841,6.80411 5.04551,6.61684 5.80813,5.61807 6.38009,4.99384 6.6343,4.6193 L 6.69785,4.55688 c 0,-0.06242 0,-0.12485 -0.06355,-0.12485 -0.06355,0 -0.1271,0 -0.19065,0.06242 C 4.91841,5.61806 3.71092,6.36714 2.88475,6.86653 2.05858,7.36591 1.35952,7.55318 0.851104,7.36591 0.533345,7.42834 0.279138,7.24106 0.152034,6.86653 Z"
       id="path4_fill" /><path
       inkscape:connector-curvature="0"
       d="M 0.277127,6.92896 C 0.0229208,6.67926 -0.0406318,6.36714 0.0229198,6.05503 0.0864715,5.74291 0.213579,5.55565 0.404233,5.36838 0.594888,5.18111 0.785539,5.11869 0.976194,5.18111 1.03975,5.18111 1.16685,5.24353 1.2304,5.4308 1.3575,5.55564 1.42106,5.68049 1.54816,5.86776 1.73881,6.11745 1.92947,6.36714 2.12013,6.49199 2.31078,6.67926 2.50144,6.74168 2.69209,6.8041 2.9463,6.86652 3.13695,6.8041 3.32761,6.67926 3.51826,6.55441 3.64537,6.36715 3.64537,6.11745 3.70892,5.80534 3.58181,5.1811 3.2005,4.30718 2.88274,3.49568 2.69209,2.80903 2.81919,2.30965 2.88274,1.87269 3.2005,1.49815 3.64537,1.12362 4.09023,0.749078 4.59864,0.49938 5.10705,0.249688 5.61546,0.0624192 6.06033,0 6.31453,0 6.56874,0.062423 6.82294,0.124846 7.0136,0.312115 7.2678,0.499384 7.39491,0.624226 7.58556,0.873918 7.71267,1.06119 7.77622,1.24846 7.77622,1.3733 7.71267,1.56057 7.58556,1.74785 7.33136,1.93512 7.07715,2.12239 6.82294,2.24723 6.63229,2.1848 6.44163,2.12238 6.25098,1.93512 6.12388,1.623 6.06033,1.43573 5.93322,1.31088 5.80612,1.18603 5.67902,1.06119 5.55191,0.998768 5.36126,0.936345 5.1706,0.873922 4.97995,0.936343 4.85285,1.06119 4.72574,1.18603 4.59864,1.31088 4.59864,1.49815 4.53509,1.74784 4.72574,2.30965 5.17061,3.24599 5.61547,4.18234 5.74257,4.86899 5.67902,5.4308 5.61546,5.80534 5.36126,6.17988 4.85285,6.55441 4.40799,6.92895 3.83602,7.17865 3.2005,7.36591 2.56498,7.55318 1.92947,7.55318 1.35751,7.42833 0.912646,7.36591 0.531334,7.17865 0.277127,6.92896 Z"
       id="path5_fill" /><path
       inkscape:connector-curvature="0"
       d="M 0.254206,9.42587 C 0.0635516,9.17618 -9.69721e-7,8.92649 -9.69721e-7,8.73922 -9.69721e-7,8.61438 0.0635536,8.48953 0.127105,8.36468 0.190657,8.23983 0.254205,8.05257 0.381308,7.92772 1.46169,6.17988 1.9701,5.30595 3.05048,3.49569 3.11403,3.43326 3.11403,3.37084 3.11403,3.30841 c 0,-0.06242 0,-0.12483 -0.06355,-0.18726 C 2.98693,3.05873 2.92337,3.05873 2.85982,3.05873 2.54206,2.9963 2.35141,2.93388 1.9701,2.87146 1.77944,2.80903 1.71589,2.74661 1.65234,2.68418 1.58879,2.62176 1.58879,2.55934 1.58879,2.4345 c 0,0 0.06355,-0.06243 0.12711,-0.18727 C 1.843,2.1848 1.90655,2.12238 2.0972,2.05995 2.22431,1.99753 2.35141,1.99754 2.47851,1.99754 c 0.31776,0.06242 0.50842,0.06242 0.82618,0.12484 0.19065,0 0.2542,0 0.3813,0 0.12711,0 0.19066,-0.12484 0.31776,-0.31211 C 4.25796,1.43573 4.38506,1.24846 4.63927,0.873922 4.82992,0.686653 5.02058,0.436961 5.40189,0.249692 5.71964,0.062423 5.97385,3.81e-6 6.16451,3.81e-6 c 0.1271,0 0.19065,0.06241539 0.2542,0.18726119 0.06355,0.124846 0.06356,0.187273 0.06356,0.374542 0,0.124846 -0.06356,0.187269 -0.12711,0.312115 C 6.10095,1.37331 5.97385,1.623 5.65609,2.18481 c 0,0.06242 -0.06355,0.12484 -0.06355,0.18726 0,0.12485 0.06356,0.18727 0.25421,0.2497 0.31776,0.06242 0.69907,0.12484 1.27103,0.31211 0.19066,0.06243 0.38131,0.12485 0.44486,0.18727 0.06355,0.06243 0.06355,0.12485 0.06355,0.24969 0,0.06242 -0.06355,0.12485 -0.1271,0.18727 C 7.43554,3.62054 7.30844,3.62053 7.11778,3.62053 6.54582,3.55811 6.10095,3.55811 5.78319,3.49569 c -0.19065,0 -0.3813,0 -0.50841,0 C 5.14768,3.55811 5.08413,3.62054 5.02058,3.74538 4.13086,5.24353 3.74954,6.05503 2.85982,7.55318 2.73272,7.74045 2.66917,7.92772 2.66917,8.05256 2.60562,8.23983 2.73272,8.36468 2.92337,8.42711 3.24113,8.48953 3.9402,8.17741 5.02058,7.49076 5.08413,7.42834 5.14768,7.42833 5.21123,7.42833 c 0.06356,0 0.06355,1e-5 0.12711,0.06243 0.06355,0.06242 0.06355,0.12484 0.06355,0.18726 0,0.12485 -0.06355,0.18728 -0.12711,0.2497 C 5.08413,8.23984 4.70282,8.55194 4.13085,8.92648 3.55889,9.30102 2.98693,9.55072 2.41496,9.80041 1.77945,9.98768 1.33458,10.1125 0.889723,10.0501 0.699068,9.86283 0.444861,9.67556 0.254206,9.42587 Z"
       id="path6_fill" /><path
       inkscape:connector-curvature="0"
       d="M 0.977108,7.40337 C 0.65935,7.15368 0.405141,6.84156 0.214486,6.46703 0.0238309,6.09249 -0.0397178,5.71794 0.0238338,5.40583 0.150937,4.46948 0.532244,3.53314 1.16776,2.65922 1.80328,1.7853 2.5659,1.09864 3.39207,0.599259 4.28179,0.0998749 5.10796,-0.0873903 5.93413,0.0374557 6.56965,0.0998787 7.01451,0.28715 7.26871,0.536841 7.58647,0.786533 7.65003,1.16107 7.65003,1.47319 7.58648,2.22226 7.07806,2.72165 6.18834,3.03376 5.29862,3.34588 4.15469,3.53314 2.8201,3.59556 2.693,3.59556 2.62945,3.65799 2.5659,3.72041 2.37524,4.09495 2.24814,4.40706 2.18458,4.71918 c -0.06355,0.43696 1e-5,0.8115 0.19066,1.12362 0.19066,0.31211 0.50841,0.49938 0.95328,0.5618 0.38131,0.06242 0.69906,0 1.08037,-0.12485 C 4.72665,6.15491 5.10796,5.96764 5.42572,5.65552 5.55282,5.53068 5.67993,5.46825 5.80703,5.46825 c 0.1271,0 0.19065,0.06243 0.1271,0.18727 0,0.12485 -0.06355,0.18728 -0.06355,0.18728 C 5.36217,6.52945 4.79021,7.02883 4.15469,7.34094 3.51917,7.71548 2.75655,7.84033 1.99393,7.71548 1.67617,7.77791 1.29487,7.65306 0.977108,7.40337 Z M 5.04441,2.59679 C 5.67992,2.3471 5.99769,1.84772 6.06124,1.22349 6.06124,1.09864 6.06123,0.911376 5.99768,0.78653 5.93413,0.661684 5.80703,0.599264 5.67992,0.536841 5.36217,0.474418 5.04441,0.599264 4.6631,0.848956 4.28179,1.09865 3.96403,1.41076 3.64627,1.7853 3.32852,2.15984 3.13786,2.53437 3.07431,2.90891 c 0,0 0,0 0,0.06242 0,0.06243 0.06355,0.06243 0.1271,0.06243 0.57197,0 1.20748,-0.12485 1.843,-0.43697 z"
       id="path7_fill" /><path
       inkscape:connector-curvature="0"
       d="m 12.7221,5.61807 c -0.0635,0.06242 -0.0635,0.06243 0,0.18727 0.3813,0.68665 0.572,1.43573 0.5084,2.30965 0,1.18604 -0.3177,2.24721 -0.9532,3.12111 -0.6356,0.874 -1.4617,1.5606 -2.54211,1.9976 C 8.65481,13.6706 7.44734,13.8579 6.11275,13.7955 4.84172,13.7331 3.76134,13.4834 2.80807,12.984 1.85479,12.4846 1.15572,11.8604 0.647309,11.0489 0.138896,10.2374 -0.0517589,9.36345 0.0117927,8.4271 0.0753443,7.74045 0.266001,7.0538 0.520208,6.49199 0.837966,5.86776 1.15573,5.36838 1.66414,4.99384 1.53704,4.49446 1.47348,3.93265 1.53703,3.30842 1.60058,2.68419 1.79124,2.05996 2.17255,1.56058 2.55386,1.06119 3.06227,0.686649 3.63424,0.374534 4.2062,0.124842 4.84172,1.905e-6 5.54079,1.905e-6 6.1763,0.0624249 6.68472,0.24969 7.06603,0.561805 7.44734,0.936343 7.57444,1.3733 7.57444,1.93511 7.57444,2.24722 7.44733,2.49692 7.25668,2.62177 7.06602,2.80903 6.87537,2.87145 6.55761,2.87145 6.36696,2.87145 6.23986,2.80903 6.11275,2.62177 5.98565,2.49692 5.9221,2.30965 5.9221,2.18481 5.9221,1.93511 5.85854,1.68542 5.73144,1.49815 5.60434,1.31088 5.35013,1.18603 5.15948,1.18603 4.46041,1.12361 3.88844,1.31089 3.44358,1.74785 2.99872,2.12239 2.68096,2.74661 2.68096,3.43327 c 0,0.31211 0,0.62422 0,0.87391 0.57197,-0.31211 1.20749,-0.43695 1.843,-0.37453 0.69907,0.06242 1.20748,0.24969 1.52524,0.5618 0.31775,0.31212 0.50841,0.74908 0.50841,1.18604 0,0.49938 -0.2542,0.87393 -0.63551,1.18604 C 5.47723,7.17865 5.03237,7.30349 4.46041,7.30349 3.95199,7.24107 3.50713,7.11622 3.06227,6.86653 2.68096,6.61684 2.3632,6.2423 2.109,5.80534 1.79124,6.2423 1.60058,6.86652 1.60058,7.55318 1.53703,8.23983 1.66414,8.92649 2.04545,9.55072 2.36321,10.175 2.93517,10.6743 3.76134,11.1113 c 0.82617,0.437 1.90655,0.6242 3.17758,0.6867 1.14393,0.0624 2.0972,-0.1249 2.92337,-0.437 0.82621,-0.3746 1.46171,-0.8739 1.90651,-1.49816 0.4449,-0.62423 0.6356,-1.37332 0.6991,-2.12239 0,-0.68665 -0.1906,-1.24846 -0.572,-1.68542 -0.3813,-0.43696 -0.9532,-0.68666 -1.7794,-0.68666 -0.44486,0 -0.82617,0.12485 -1.14392,0.37454 -0.31776,0.2497 -0.44487,0.56181 -0.50842,0.93635 0,0.24969 0.06355,0.43696 0.19066,0.62423 0.1271,0.18727 0.38131,0.24969 0.63551,0.24969 0.12711,0 0.19065,0 0.25421,-0.06242 C 9.60809,7.42834 9.67164,7.36591 9.73519,7.30349 9.79874,7.24107 9.86229,7.17865 9.86229,7.17865 9.9894,7.0538 10.0529,6.99137 10.1801,6.92895 c 0.0635,-0.06243 0.1906,-0.12484 0.3177,-0.06242 0.3178,0 0.5084,0.06242 0.6991,0.24969 0.1271,0.12484 0.1906,0.37454 0.1906,0.62423 0,0.31211 -0.1271,0.62423 -0.3813,0.87393 C 10.752,8.86407 10.4343,8.92649 10.053,8.92649 9.35388,8.92649 8.71837,8.6768 8.33706,8.30226 7.8922,7.8653 7.70154,7.36591 7.70154,6.8041 7.76509,5.86776 8.08285,5.18111 8.71837,4.68173 9.35388,4.18234 10.1801,3.93265 11.0698,3.99507 c 0.6355,0 0.9533,0 1.5888,0 0.9532,0 1.7159,-0.12485 2.1607,-0.43696 0.4449,-0.31211 0.6991,-0.8115 0.6991,-1.43573 0,-0.31212 -0.0636,-0.56181 -0.3178,-0.8115 -0.2542,-0.24969 -0.4448,-0.312116 -0.699,-0.312116 -0.1271,0 -0.2542,8e-6 -0.3178,0.124856 -0.0635,0.06242 -0.1271,0.12484 -0.1271,0.24969 0,0.18726 0.0636,0.31211 0.2542,0.43695 0.1271,0.06243 0.1907,0.12486 0.2542,0.2497 0.0636,0.12485 0.0636,0.18727 0.0636,0.31212 0,0.18727 -0.0636,0.37453 -0.2542,0.5618 -0.1907,0.18727 -0.3814,0.24969 -0.6991,0.24969 -0.3178,0 -0.572,-0.12485 -0.7626,-0.31212 -0.1907,-0.18727 -0.2542,-0.49937 -0.2542,-0.81149 0,-0.43696 0.1906,-0.8115 0.5084,-1.123613 0.3177,-0.312115 0.7626,-0.499382 1.3346,-0.436959 0.5084,0 0.9532,0.187269 1.271,0.624232 0.3178,0.37454 0.5084,0.93634 0.5084,1.62299 0,0.87392 -0.2542,1.56058 -0.8262,2.12239 C 14.8829,5.4308 14.1203,5.68049 13.2941,5.68049 12.9128,5.55564 12.7857,5.61807 12.7221,5.61807 Z M 2.68096,5.11868 c 0.19066,0.93635 0.76262,1.43573 1.65234,1.49815 0.38131,0 0.63552,-0.06242 0.88973,-0.24969 C 5.47723,6.17988 5.54079,5.9926 5.60434,5.68049 5.60434,5.4308 5.54079,5.18111 5.28658,4.99384 5.09592,4.80657 4.77817,4.68173 4.39686,4.68173 3.76134,4.6193 3.18938,4.74415 2.68096,5.11868 Z"
       id="path8_fill" /><path
       inkscape:connector-curvature="0"
       d="M 0.317754,13.4209 C 0.127099,13.2961 -3.87888e-6,13.1088 -3.87888e-6,12.9216 -3.87888e-6,12.6095 0.0635535,12.1725 0.254208,11.6107 1.27103,8.23984 1.77944,6.55441 2.73272,3.12115 2.85982,2.55934 2.92337,2.1848 2.92337,1.99753 2.92337,1.87269 2.85982,1.74784 2.73272,1.68542 2.60561,1.623 2.41496,1.56058 2.2243,1.43573 1.9701,1.37331 1.843,1.31088 1.843,1.18603 1.843,1.12361 1.84299,1.06119 1.90654,0.998772 1.9701,0.936349 2.0972,0.873924 2.28786,0.811501 2.60562,0.686655 3.05048,0.499384 3.68599,0.312115 4.32151,0.124846 4.70282,0 4.89348,0 c 0.2542,0 0.44486,0.0624249 0.44486,0.187271 0,0.124846 -10e-6,0.312113 -0.06356,0.436959 C 5.21123,0.749076 5.21124,0.873918 5.21124,0.873918 4.32151,4.18234 3.87664,5.86776 2.85982,9.17618 V 9.2386 c 0,0.06243 0,0.06242 0.06355,0.06242 0.06356,0 0.12711,-0.06242 0.12711,-0.12484 C 3.8131,7.99014 4.57571,6.99137 5.40188,6.2423 6.22805,5.49322 6.92712,5.05627 7.62619,5.05627 c 0.44486,0 0.82617,0.12484 1.14393,0.37453 C 9.02433,5.74291 9.21498,6.05503 9.21498,6.49199 9.27853,7.42833 9.15143,8.36468 8.77012,9.30102 8.38881,10.2374 7.94395,11.1113 7.37199,11.8604 7.24488,11.9852 7.05423,12.1725 6.67292,12.4846 6.29161,12.7343 5.97385,12.984 5.59254,13.1713 c -0.38131,0.1872 -0.69906,0.3121 -0.88972,0.3121 -0.19065,0 -0.44486,-0.0625 -0.69907,-0.2497 -0.25421,-0.1873 -0.3813,-0.3746 -0.3813,-0.4994 0,-0.1249 0.06354,-0.2497 0.19064,-0.4994 0.12711,-0.1873 0.25421,-0.3121 0.38132,-0.3121 0.1271,0 0.19065,0 0.2542,0.0624 0.06355,0.0624 0.1271,0.0624 0.19066,0.1249 0.06355,0.0624 0.1271,0.0624 0.1271,0.1248 0.1271,0.1249 0.2542,0.1873 0.31776,0.2497 0.06355,0.0624 0.19066,0.0624 0.25421,0.0624 0.2542,0 0.50841,-0.3121 0.82617,-0.9987 C 6.41872,10.924 6.67292,10.1749 6.86357,9.30102 7.05423,8.4271 7.11778,7.67802 7.05423,7.11622 7.05423,6.86652 6.99068,6.67926 6.86357,6.55441 6.73647,6.42957 6.60937,6.36714 6.41871,6.36714 6.0374,6.36714 5.52899,6.86653 4.89348,7.80287 4.25796,8.73922 3.49534,9.98767 2.60562,11.4858 2.41496,11.7979 2.28786,11.9852 2.0972,12.3597 c -0.25421,0.4994 -0.50841,0.8115 -0.69906,0.9988 -0.19066,0.1873 -0.38131,0.3121 -0.508415,0.3121 -0.190655,0 -0.381316,-0.0624 -0.571971,-0.2497 z"
       id="path9_fill" /><path
       inkscape:connector-curvature="0"
       d="M 1.47373,8.25167 C 1.09242,8.0644 0.711115,7.75227 0.456908,7.44016 0.202702,7.06562 0.0755908,6.69109 0.0120392,6.19171 -0.0515124,5.38021 0.139144,4.50629 0.520454,3.56994 0.901764,2.6336 1.47373,1.82209 2.23635,1.13544 2.99897,0.448788 3.82514,0.0742484 4.84197,0.0118254 5.60459,-0.0505976 6.2401,0.136673 6.74851,0.511211 7.25693,0.885749 7.57468,1.50998 7.63823,2.25906 7.70179,3.07056 7.57468,3.94448 7.19337,4.88082 6.81206,5.81717 6.2401,6.62867 5.47748,7.31532 4.71486,8.00198 3.76159,8.37651 2.68121,8.43893 2.29991,8.50135 1.85504,8.43894 1.47373,8.25167 Z m 2.85982,-1.623 C 4.77841,5.87959 5.09617,5.06809 5.28683,4.06932 5.54103,3.07055 5.60459,2.25906 5.54104,1.50998 5.47749,0.885753 5.22327,0.636059 4.77841,0.698482 4.3971,0.760905 4.0158,1.07302 3.57093,1.8221 3.12607,2.50875 2.80831,3.38267 2.5541,4.31902 2.2999,5.31779 2.17279,6.12928 2.23635,6.94078 2.2999,7.56501 2.55411,7.87712 3.06252,7.8147 3.50738,7.75228 3.95224,7.37774 4.33355,6.62867 Z"
       id="path10_fill" /><path
       inkscape:connector-curvature="0"
       d="M 0.889725,8.82416 C 0.635518,8.63689 0.508417,8.38719 0.444865,8.1375 c 0,-0.12485 0,-0.18727 0,-0.31212 C 1.08038,5.76543 1.33458,4.76666 1.9701,2.7067 2.03365,2.51943 2.03366,2.39459 2.03366,2.33217 2.03366,2.20732 1.9701,2.1449 1.77944,2.1449 1.52524,2.1449 1.27104,2.26975 1.08038,2.33217 0.826175,2.45701 0.635516,2.64428 0.38131,3.01882 0.317758,3.08124 0.254205,3.14366 0.190653,3.14366 c -0.063552,0 -0.06355,1e-5 -0.1271014,-0.06242 C 0,3.01882 -3.87888e-6,3.01882 -3.87888e-6,2.9564 -3.87888e-6,2.83155 0.0635555,2.64428 0.127107,2.45701 0.25421,2.20732 0.381314,2.02005 0.444865,1.83278 1.01683,1.08371 1.77944,0.646746 2.73272,0.584323 2.98692,0.5219 3.24113,0.584325 3.43179,0.771594 3.62244,0.89644 3.74955,1.14613 3.74955,1.39582 c 0,0.12485 -1e-5,0.31212 -0.06356,0.43696 C 3.36823,2.9564 3.24113,3.5182 2.92337,4.64182 v 0.06241 c 0,0.06243 0.06355,0.06243 0.12711,0.06243 0.06355,0 0.1271,-0.06242 0.19065,-0.12484 C 4.51216,1.70794 5.71964,0.20978 6.99067,0.0225109 7.43554,-0.0399121 7.7533,0.0225166 8.0075,0.272209 8.26171,0.521901 8.45237,0.834015 8.51592,1.20855 8.57947,1.58309 8.57947,1.8952 8.45236,2.20732 8.07105,3.70547 7.81685,4.45454 7.43554,5.95269 7.37199,6.13996 7.37199,6.26482 7.37199,6.38966 c 0,0.12485 0.06355,0.18726 0.2542,0.18726 0.19066,0 0.44486,-0.18726 0.82617,-0.5618 0.38131,-0.31211 0.63552,-0.5618 0.76262,-0.74907 0.1271,-0.12485 0.19066,-0.18728 0.25421,-0.2497 0.06355,0 0.06355,0 0.1271,0.06243 0.06356,0.06242 0.06356,0.06242 0.06356,0.12484 0,0.18727 -10e-6,0.37454 -0.12711,0.56181 C 9.08788,6.51451 8.51591,7.13874 7.81685,7.63812 7.18133,8.13751 6.48227,8.44962 5.84675,8.51204 5.6561,8.51204 5.40189,8.51203 5.21124,8.38719 5.02058,8.26234 4.89348,8.07508 4.89348,7.88781 c 0,-0.06242 0,-0.18727 0,-0.18727 C 5.27479,6.5145 5.46544,5.82785 5.59254,5.57816 6.0374,4.3297 6.35516,3.14367 6.60937,2.1449 6.67292,1.89521 6.67292,1.70794 6.67292,1.52067 6.67292,1.3334 6.54581,1.20855 6.35516,1.27097 6.1645,1.27097 5.9103,1.45824 5.6561,1.77036 5.40189,2.08247 5.08413,2.58186 4.70282,3.26851 4.51217,3.64305 4.1944,4.26728 3.68599,5.26605 3.17758,6.26482 2.79627,7.13874 2.41496,7.95024 2.28786,8.32478 2.0972,8.57446 1.9701,8.76173 1.843,8.949 1.65234,9.07384 1.46169,9.07384 1.39813,9.07384 1.14393,9.01142 0.889725,8.82416 Z"
       id="path11_fill" /><path
       inkscape:connector-curvature="0"
       d="M 1.20748,9.19959 C 0.953276,9.01232 0.762623,8.82505 0.762623,8.57536 c 0,-0.12484 0,-0.18727 0,-0.31211 C 1.27104,6.20329 1.52524,5.1421 1.9701,3.08214 2.03365,2.89487 2.03365,2.77002 1.9701,2.70759 1.9701,2.58275 1.843,2.52032 1.7159,2.52032 1.46169,2.58275 1.27103,2.64518 1.01683,2.77002 0.762619,2.89487 0.571965,3.14455 0.38131,3.45667 0.317758,3.51909 0.254205,3.58152 0.190653,3.58152 c -0.063552,0 -0.06355,0 -0.1271014,-0.06242 C 0,3.5191 -3.87888e-6,3.45667 -3.87888e-6,3.39425 -3.87888e-6,3.26941 3.8732e-6,3.08213 0.127107,2.83244 0.25421,2.58275 0.317762,2.39548 0.444865,2.20821 0.953278,1.45913 1.7159,0.959752 2.66917,0.834906 2.92338,0.772483 3.17758,0.834904 3.36823,0.95975 3.55889,1.0846 3.686,1.27187 3.74955,1.52156 c 0,0.12485 0,0.31212 0,0.43696 C 3.49534,3.08213 3.36823,3.64395 3.17758,4.82998 V 4.8924 c 0,0.06242 0.06356,0.06243 0.12711,0.06243 0.06355,0 0.1271,-0.06242 0.1271,-0.12485 1.14393,-2.9963 2.22431,-4.556883 3.49534,-4.8065752 0.44486,-0.062423 0.76261,1.9e-6 1.01682,0.1872712 0.25421,0.187269 0.44486,0.499384 0.50841,0.936344 0.06356,0.37454 0.06356,0.68666 0,0.99877 -0.31775,1.49815 -0.50841,2.24722 -0.82617,3.8078 -0.06355,0.18727 -0.06355,0.31212 0,0.43697 0,0.12484 0.12711,0.18726 0.25421,0.18726 C 8.07106,6.5154 8.32527,6.32813 8.70658,6.01602 9.08789,5.64148 9.27854,5.39178 9.40564,5.20451 9.53274,5.07967 9.5963,4.95483 9.65985,4.95483 c 0.06355,0 0.06355,-1e-5 0.1271,0.06241 C 9.8505,5.07967 9.8505,5.07967 9.8505,5.1421 9.91405,5.32937 9.8505,5.51663 9.78695,5.7039 9.34209,6.45298 8.83368,7.07721 8.19816,7.63902 7.56265,8.20082 6.92713,8.51293 6.29161,8.63778 6.10096,8.7002 5.84675,8.63778 5.6561,8.51293 5.46544,8.38809 5.33833,8.26324 5.27478,8.07598 c 0,-0.06243 0,-0.12485 0,-0.18728 C 5.59254,6.70267 5.7832,5.95359 5.84675,5.7039 6.22806,4.39302 6.48226,3.2694 6.67292,2.20821 6.73647,1.95852 6.73647,1.77125 6.67292,1.58398 6.60937,1.39671 6.48226,1.27187 6.35516,1.33429 6.1645,1.39671 5.9103,1.52156 5.71964,1.89609 5.52899,2.20821 5.21123,2.77002 4.82992,3.45667 4.63927,3.83121 4.32151,4.51786 3.9402,5.51663 3.49534,6.5154 3.11403,7.45175 2.79627,8.26325 2.66917,8.63778 2.54207,8.88747 2.35141,9.07474 2.22431,9.26201 2.03365,9.38685 1.90654,9.38685 1.71589,9.44928 1.46169,9.38686 1.20748,9.19959 Z"
       id="path12_fill" /><path
       inkscape:connector-curvature="0"
       d="M 1.7632,13.4468 C 1.38189,13.322 1.00058,13.1347 0.68282,12.8226 0.365062,12.5729 0.174411,12.1983 0.110859,11.8862 -0.0797958,10.9499 -0.0162461,9.95111 0.23796,8.95234 0.492167,7.89115 1.00058,7.01723 1.63609,6.26815 2.27161,5.51908 2.97067,5.01969 3.79685,4.83242 4.36881,4.70758 4.87722,4.70758 5.25853,4.83242 5.63984,4.95727 5.8305,5.26939 5.95761,5.58151 6.14826,6.26816 5.89405,6.95481 5.13143,7.51661 4.43237,8.07842 3.41554,8.70265 2.20805,9.20203 2.08095,9.26445 2.01741,9.32688 2.01741,9.3893 c -0.06355,0.43696 -0.06355,0.7491 0,1.0612 0.06355,0.437 0.2542,0.8115 0.57196,0.9988 0.31776,0.2497 0.63551,0.3121 1.08037,0.1872 0.38131,-0.0624 0.69907,-0.2497 0.95328,-0.4994 0.2542,-0.2496 0.50842,-0.5618 0.69907,-0.9363 0.06355,-0.1873 0.19066,-0.24969 0.31776,-0.31211 0.1271,0 0.19066,0 0.19066,0.12481 0,0.1249 0,0.1873 0,0.2497 C 5.5763,11.0747 5.25853,11.699 4.75012,12.2608 4.24171,12.8226 3.60619,13.1971 2.84357,13.3844 2.52581,13.5716 2.14451,13.5716 1.7632,13.4468 Z M 3.8604,7.57904 C 4.30526,7.07966 4.49592,6.58027 4.30526,5.95604 4.24171,5.83119 4.17816,5.70635 4.05106,5.58151 3.92395,5.51908 3.79685,5.45666 3.66974,5.51908 3.35199,5.5815 3.09778,5.83119 2.84357,6.14331 2.58936,6.51785 2.33516,6.89238 2.20805,7.39177 2.08095,7.89115 2.01741,8.26569 2.01741,8.64023 c 0,0 0,0 0,0.06243 0,0.06242 0.06355,0.06241 0.1271,0.06241 C 2.84358,8.39053 3.35199,8.016 3.8604,7.57904 Z M 4.36882,0.0882813 C 4.43237,0.150704 4.55947,0.337975 4.68657,0.587667 5.19499,1.58643 5.63984,2.3355 5.89405,2.95973 5.9576,3.147 5.95761,3.27186 5.95761,3.3967 5.95761,3.52155 5.89405,3.58397 5.76695,3.64639 5.57629,3.70881 5.38564,3.58396 5.19499,3.27185 4.87723,2.89731 4.55946,2.46035 4.1146,2.02339 4.05105,1.96097 3.98751,1.96097 3.92396,2.08581 3.41554,2.83489 3.16134,3.147 2.65292,3.89608 2.39872,4.27062 2.20806,4.52031 2.01741,4.52031 1.8903,4.52031 1.82675,4.52032 1.7632,4.33305 1.69964,4.2082 1.7632,4.02093 1.82675,3.83366 2.20806,3.08458 2.65292,2.14824 3.22488,1.02463 3.54264,0.400396 3.79685,0.0882775 3.9875,0.0258545 c 0.25421,-0.0624229 0.31776,3.8e-6 0.38132,0.0624268 z"
       id="path13_fill" /><path
       inkscape:connector-curvature="0"
       d="M 1.58879,10.6743 C 1.27104,10.4871 1.14393,10.3622 1.08038,10.1749 c 0,-0.1248 -0.06355,-0.24964 0,-0.37449 0,-0.12484 -10e-6,-0.31212 0.06355,-0.49938 0.2542,-2.05996 0.31776,-3.05873 0.57197,-5.11869 0,-0.06242 0,-0.12485 0,-0.18727 0,-0.06242 -0.06355,-0.12484 -0.12711,-0.12484 -0.06355,0 -0.1271,0 -0.19065,0 -0.31776,0.06242 -0.508421,0.12485 -0.889731,0.18727 -0.190655,0.06242 -0.317752,0 -0.381304,0 C 0.0635536,3.99508 3.87888e-6,3.93265 3.87888e-6,3.87023 c 0,0 -5.82022e-6,-0.12485 0.06354582112,-0.18727 C 0.127101,3.55811 0.190659,3.43326 0.317762,3.37084 0.444865,3.246 0.508417,3.18357 0.63552,3.18357 0.953278,3.12115 1.14393,3.05872 1.46168,2.9963 1.65234,2.93388 1.71589,2.93388 1.77944,2.87146 1.84299,2.80903 1.90655,2.68419 1.90655,2.49692 1.9701,2.05996 2.03365,1.81027 2.0972,1.37331 2.16075,1.12362 2.28786,0.811495 2.54207,0.49938 2.73272,0.187265 2.92337,3.81e-6 3.11403,3.81e-6 c 0.1271,0 0.19065,-5.71686e-6 0.31776,0.06241729 0.06355,0.0624229 0.1271,0.1872689 0.19065,0.3121149 0,0.124846 0.06356,0.187269 0,0.312115 0,0.561809 -0.06355,0.873919 -0.06355,1.435729 0,0.06242 0,0.12485 0,0.18727 0.06355,0.12485 0.1271,0.12485 0.31776,0.12485 0.2542,-0.06243 0.69906,-0.18727 1.27103,-0.24969 0.25421,0 0.38131,0 0.44486,0 0.06355,0 0.12711,0.06241 0.12711,0.18726 0,0.06242 0,0.12485 -0.06356,0.18727 C 5.59254,2.62176 5.52899,2.74661 5.33834,2.74661 4.82992,2.93388 4.38507,3.05872 4.13086,3.18357 3.9402,3.24599 3.74954,3.30842 3.68599,3.43327 3.62244,3.49569 3.55889,3.62054 3.49534,3.74538 3.36824,5.49323 3.24113,6.36715 3.11403,8.11499 c 0,0.24969 0,0.43696 0,0.56181 C 3.17758,8.86406 3.30469,8.92648 3.49534,8.92648 3.8131,8.86406 4.32151,8.23984 5.02058,7.17865 5.08413,7.11622 5.08413,7.05379 5.14768,7.05379 c 0.06355,0 0.06355,0 0.1271,0 0.06355,0 0.06356,0.06243 0.12711,0.12486 0,0.12484 0,0.18727 0,0.31211 C 5.33834,7.8653 5.14768,8.30226 4.76638,8.86407 4.44862,9.42587 4.00375,9.92525 3.55889,10.3622 3.11403,10.7992 2.66917,11.0489 2.28786,11.1737 2.0972,10.8616 1.843,10.7992 1.58879,10.6743 Z"
       id="path14_fill" /><path
       inkscape:connector-curvature="0"
       d="M 2.00482,8.88865 C 1.62351,8.7638 1.2422,8.63896 0.860892,8.38926 0.543134,8.13957 0.288927,7.82746 0.225375,7.45292 -0.028831,6.51657 -0.0923768,5.58023 0.16183,4.51904 0.416036,3.45785 0.797342,2.5215 1.36931,1.71001 1.94127,0.898507 2.64034,0.399123 3.46651,0.149431 4.03848,-0.0378379 4.54689,-0.0378322 4.9282,0.0870138 5.30951,0.21186 5.56372,0.46155 5.69082,0.836088 5.94503,1.52274 5.69082,2.20939 4.99175,2.83362 4.29268,3.45785 3.3394,4.14451 2.13192,4.76874 2.00482,4.83116 1.94128,4.89358 1.94128,5.01843 c 0,0.43696 -10e-6,0.74908 0.06354,0.99877 C 2.13193,6.45416 2.32258,6.76627 2.64034,7.01596 2.9581,7.20323 3.33941,7.26565 3.72071,7.1408 4.10202,7.01596 4.35624,6.82869 4.61044,6.579 4.86465,6.32931 5.0553,6.01719 5.24596,5.58023 5.30951,5.39296 5.43661,5.33054 5.50016,5.26811 c 0.12711,-0.06242 0.19066,10e-6 0.25421,0.12486 0.06356,0.12484 0.06356,0.18726 0,0.24969 -0.19065,0.8115 -0.50841,1.49815 -0.95327,2.05996 -0.44486,0.5618 -1.08038,0.99876 -1.843,1.24846 -0.19066,0 -0.57197,-10e-6 -0.95328,-0.06243 z M 3.65717,2.83362 C 4.10203,2.33424 4.22913,1.77243 4.03847,1.1482 3.97492,1.02336 3.91137,0.898511 3.78427,0.836088 3.65717,0.773665 3.53007,0.711238 3.33941,0.773661 3.02165,0.836084 2.76744,1.08578 2.51324,1.46032 2.25903,1.83486 2.06838,2.27181 1.94128,2.77119 1.81417,3.27058 1.81417,3.64512 1.87772,4.01965 c 0,0 0,10e-6 0,0.06243 0,0.06242 0.06355,0.06243 0.1271,0.06243 0.69907,-0.37454 1.20749,-0.8115 1.65235,-1.31089 z"
       id="path15_fill" /><path
       inkscape:connector-curvature="0"
       d="M 0,3.22201 C 0,2.34052 0.304709,1.58061 0.944598,0.942286 1.58449,0.303963 2.34626,-4.63811e-7 3.22992,-4.63811e-7 4.11357,-4.63811e-7 4.87535,0.303963 5.48476,0.942286 6.09418,1.58061 6.39889,2.34052 6.39889,3.22201 6.39889,4.1035 6.09418,4.86341 5.48476,5.44094 4.87535,6.01847 4.11357,6.32243 3.22992,6.32243 2.34626,6.32243 1.58449,6.01847 0.944598,5.44094 0.304709,4.86341 0,4.1339 0,3.22201 Z"
       id="path16_fill" /><path
       inkscape:connector-curvature="0"
       d="M 3.71959e-6,3.22201 C 3.71959e-6,2.34051 0.304713,1.58061 0.914131,0.942285 1.52355,0.303962 2.25485,1.85524e-6 3.16898,1.85524e-6 4.05263,1.85524e-6 4.81441,0.303962 5.45429,0.942285 6.09418,1.58061 6.39889,2.34051 6.39889,3.22201 c 0,0.88149 -0.30471,1.6414 -0.9446,2.24933 C 4.81441,6.07926 4.05263,6.38323 3.16898,6.38323 2.28532,6.38323 1.52355,6.07926 0.914131,5.47134 0.304713,4.89381 3.71959e-6,4.1339 3.71959e-6,3.22201 Z"
       id="path17_fill" /></defs><sodipodi:namedview
     pagecolor="#ffffff"
     bordercolor="#666666"
     borderopacity="1"
     objecttolerance="10"
     gridtolerance="10"
     guidetolerance="10"
     inkscape:pageopacity="0"
     inkscape:pageshadow="2"
     inkscape:window-width="1920"
     inkscape:window-height="1053"
     id="namedview1019"
     showgrid="false"
     fit-margin-top="0"
     fit-margin-left="0"
     fit-margin-right="0"
     fit-margin-bottom="3"
     inkscape:zoom="1.6823529"
     inkscape:cx="27.238952"
     inkscape:cy="146.28021"
     inkscape:window-x="0"
     inkscape:window-y="27"
     inkscape:window-maximized="0"
     inkscape:current-layer="g1441" /><style
     type="text/css"
     id="style972">
	.st0{fill:#FFFFFF;}
	.st1{fill:#333E49;}
	.st2{fill:none;stroke:#868B34;stroke-width:0.1;stroke-miterlimit:10;}
	.st3{fill:none;stroke:#3E408E;stroke-width:0.1;stroke-miterlimit:10;}
	.st4{fill:#222643;}
	.st5{fill:#95959C;}
	.st6{fill:#2F2D2C;}
	.st7{fill:#C97071;}
</style><g
     id="g1441"
     transform="matrix(0.35079874,0,0,0.35079874,-31.677126,-37.340636)"><g
       id="g1416"
       style="fill:#223c48;fill-opacity:0.50196078"
       transform="matrix(0.44317179,0,0,0.44317179,50.281587,100.60686)"><g
         id="g982"
         transform="translate(-26,-157.02734)"
         style="fill:#223c48;fill-opacity:0.50196078"><path
           class="st1"
           d="m 154.8,247.8 v 90.5 c 0,4.6 -0.6,8.8 -1.7,12.6 -1.1,3.8 -2.5,7.4 -4.3,10.6 -1.8,3.2 -3.8,6.1 -6,8.7 -2.2,2.6 -4.5,4.9 -6.8,7 -5.6,4.9 -11.8,8.8 -18.8,11.7 l -0.9,-2 c 4.4,-2.8 8.4,-6.4 11.9,-10.8 2.9,-3.7 5.7,-8.4 8.3,-14 2.6,-5.7 3.9,-12.5 3.9,-20.4 v -73.9 c 0,-2.5 -0.4,-4.9 -1.1,-7.2 -0.7,-2.3 -2.9,-3.5 -6.4,-3.6 v -2 z"
           id="path976"
           inkscape:connector-curvature="0"
           style="fill:#223c48;fill-opacity:0.50196078" /><path
           class="st1"
           d="m 261.1,355.6 c 0,1.2 0.1,2.5 0.4,3.9 0.3,1.4 0.8,2.7 1.4,3.9 0.7,1.2 1.4,2.2 2.2,3.1 0.8,0.9 1.8,1.3 3,1.3 v 2.2 h -28.5 v -2.2 c 1,0 2,-0.4 2.9,-1.3 0.9,-0.9 1.7,-1.9 2.3,-3.1 0.7,-1.2 1.1,-2.5 1.4,-3.9 0.3,-1.4 0.4,-2.7 0.4,-3.9 v -41 c 0,-5.3 -0.7,-9.9 -2.2,-13.9 -1.5,-4 -3.5,-7.3 -6,-9.9 -2.5,-2.6 -5.3,-4.6 -8.5,-5.8 -3.2,-1.2 -6.4,-1.9 -9.6,-1.9 -3.2,0 -6.4,0.6 -9.6,1.9 -3.2,1.3 -6,3 -8.4,5.2 -2.4,2.2 -4.4,4.9 -6,8.1 -1.5,3.2 -2.3,6.7 -2.3,10.5 v 47 c 0,1.2 0.1,2.5 0.4,3.9 0.3,1.4 0.8,2.7 1.4,3.9 0.7,1.2 1.4,2.2 2.2,3.1 0.8,0.9 1.8,1.3 3,1.3 v 2.2 H 172.3 V 368 c 1,0 2,-0.4 2.9,-1.3 0.9,-0.9 1.7,-1.9 2.3,-3.1 0.7,-1.2 1.1,-2.5 1.4,-3.9 0.3,-1.4 0.4,-2.7 0.4,-3.9 v -113 c 0,-2.5 -0.4,-57.9 -1.1,-60.1 -0.7,-2.2 -2.9,-3.4 -6.4,-3.5 V 177 l 22.1,-6.8 V 287 c 1,-1.2 2.4,-2.5 4,-3.9 1.6,-1.4 3.6,-2.7 5.8,-4 2.3,-1.2 4.9,-2.3 7.9,-3.1 3,-0.8 6.6,-1.2 10.7,-1.2 6.9,0 12.8,1.2 17.7,3.5 4.9,2.4 8.8,5.4 11.9,9.2 3.1,3.8 5.3,7.9 6.7,12.4 1.4,4.5 2.1,8.9 2.1,13.1 v 42.6 z"
           id="path978"
           inkscape:connector-curvature="0"
           style="fill:#223c48;fill-opacity:0.50196078" /><path
           class="st1"
           d="m 326.5,357.5 c -7.4,0 -14,-1.2 -19.9,-3.6 -5.9,-2.4 -10.9,-5.7 -15.1,-9.9 -4.2,-4.2 -7.4,-9.2 -9.7,-14.9 -2.3,-5.7 -3.4,-12 -3.4,-18.8 0,-7.2 1.2,-13.8 3.8,-19.7 2.5,-6 6,-11.1 10.4,-15.3 4.4,-4.3 9.6,-7.6 15.7,-9.9 6,-2.4 12.6,-3.5 19.6,-3.5 7.1,0 13.5,1.1 19.4,3.4 5.9,2.3 11,5.5 15.2,9.6 4.3,4.1 7.6,9 9.9,14.7 2.4,5.7 3.5,11.9 3.5,18.6 0,6.3 -1.1,12.5 -3.2,18.4 -2.1,6 -5.3,11.2 -9.5,15.8 -4.2,4.6 -9.3,8.2 -15.4,11 -6.1,2.7 -13.2,4.1 -21.3,4.1 z M 325.1,269 c -5.3,0.3 -9.9,1.6 -14,3.9 -4,2.3 -7.4,5.2 -10.1,8.8 -2.7,3.6 -4.8,7.7 -6.2,12.2 -1.4,4.6 -2.1,9.2 -2.1,13.9 0,5.4 0.8,10.7 2.5,15.8 1.7,5.1 4.1,9.6 7.3,13.6 3.2,4 6.9,7.1 11.3,9.5 4.4,2.4 9.3,3.5 14.7,3.5 5.4,0 10.2,-1.2 14.4,-3.5 4.2,-2.4 7.7,-5.4 10.5,-9.2 2.8,-3.8 4.9,-8 6.3,-12.7 1.4,-4.7 2.1,-9.4 2.1,-14.1 0,-4.9 -0.7,-9.7 -2.2,-14.7 -1.5,-4.9 -3.7,-9.4 -6.8,-13.5 -3.1,-4 -6.9,-7.3 -11.5,-9.8 -4.7,-2.5 -10.1,-3.7 -16.2,-3.7 z"
           id="path980"
           inkscape:connector-curvature="0"
           style="fill:#223c48;fill-opacity:0.50196078" /></g><path
         class="st7"
         d="m 109.4,69.37266 c 0,-2.9 1,-5.4 3.1,-7.5 2.1,-2.1 4.6,-3.1 7.5,-3.1 2.9,0 5.4,1 7.4,3.1 2,2.1 3,4.6 3,7.5 0,2.9 -1,5.4 -3,7.3 -2,1.9 -4.5,2.9 -7.4,2.9 -2.9,0 -5.4,-1 -7.5,-2.9 -2.1,-1.9 -3.1,-4.3 -3.1,-7.3 z"
         id="path1014"
         inkscape:connector-curvature="0"
         style="fill:#223c48;fill-opacity:0.50196078" /><path
         class="st7"
         d="m 358.1,176.37266 c 0,-2.9 1,-5.4 3,-7.5 2,-2.1 4.4,-3.1 7.4,-3.1 2.9,0 5.4,1 7.5,3.1 2.1,2.1 3.1,4.6 3.1,7.5 0,2.9 -1,5.4 -3.1,7.4 -2.1,2 -4.6,3 -7.5,3 -2.9,0 -5.4,-1 -7.4,-3 -2,-2 -3,-4.4 -3,-7.4 z"
         id="path1016"
         inkscape:connector-curvature="0"
         style="fill:#223c48;fill-opacity:0.50196078" /></g></g></svg>