<?xml version="1.0" encoding="UTF-8" standalone="no"?>
<!-- Created with Inkscape (http://www.inkscape.org/) -->

<svg
   xmlns:dc="http://purl.org/dc/elements/1.1/"
   xmlns:cc="http://creativecommons.org/ns#"
   xmlns:rdf="http://www.w3.org/1999/02/22-rdf-syntax-ns#"
   xmlns:svg="http://www.w3.org/2000/svg"
   xmlns="http://www.w3.org/2000/svg"
   xmlns:sodipodi="http://sodipodi.sourceforge.net/DTD/sodipodi-0.dtd"
   xmlns:inkscape="http://www.inkscape.org/namespaces/inkscape"
   width="121"
   height="97"
   viewBox="0 0 32.014583 25.664584"
   version="1.1"
   id="svg898"
   inkscape:version="0.92.2 5c3e80d, 2017-08-06"
   sodipodi:docname="jho-logo.svg">
  <defs
     id="defs892" />
  <sodipodi:namedview
     id="base"
     pagecolor="#ffffff"
     bordercolor="#666666"
     borderopacity="1.0"
     inkscape:pageopacity="0.0"
     inkscape:pageshadow="2"
     inkscape:zoom="1.979899"
     inkscape:cx="23.6939"
     inkscape:cy="30.082276"
     inkscape:document-units="mm"
     inkscape:current-layer="layer1"
     showgrid="false"
     fit-margin-top="0"
     fit-margin-left="0"
     fit-margin-right="0"
     fit-margin-bottom="0"
     inkscape:window-width="1920"
     inkscape:window-height="1053"
     inkscape:window-x="0"
     inkscape:window-y="27"
     inkscape:window-maximized="0"
     units="px"
     showguides="true"
     inkscape:guide-bbox="true">
    <sodipodi:guide
       position="15.875,7.7326319"
       orientation="1,0"
       id="guide1638"
       inkscape:locked="false"
       inkscape:label=""
       inkscape:color="rgb(0,0,255)" />
  </sodipodi:namedview>
  <metadata
     id="metadata895">
    <rdf:RDF>
      <cc:Work
         rdf:about="">
        <dc:format>image/svg+xml</dc:format>
        <dc:type
           rdf:resource="http://purl.org/dc/dcmitype/StillImage" />
        <dc:title></dc:title>
      </cc:Work>
    </rdf:RDF>
  </metadata>
  <g
     inkscape:label="Layer 1"
     inkscape:groupmode="layer"
     id="layer1"
     transform="translate(-72.77601,-163.20036)">
    <g
       transform="matrix(0.0928155,0,0,0.0928155,67.767285,162.62768)"
       id="g1416">
      <g
         id="g982"
         transform="translate(-26,-157.02734)">
        <path
           class="st1"
           d="m 154.8,247.8 v 90.5 c 0,4.6 -0.6,8.8 -1.7,12.6 -1.1,3.8 -2.5,7.4 -4.3,10.6 -1.8,3.2 -3.8,6.1 -6,8.7 -2.2,2.6 -4.5,4.9 -6.8,7 -5.6,4.9 -11.8,8.8 -18.8,11.7 l -0.9,-2 c 4.4,-2.8 8.4,-6.4 11.9,-10.8 2.9,-3.7 5.7,-8.4 8.3,-14 2.6,-5.7 3.9,-12.5 3.9,-20.4 v -73.9 c 0,-2.5 -0.4,-4.9 -1.1,-7.2 -0.7,-2.3 -2.9,-3.5 -6.4,-3.6 v -2 z"
           id="path976"
           inkscape:connector-curvature="0"
           style="fill:#333e49" />
        <path
           class="st1"
           d="m 261.1,355.6 c 0,1.2 0.1,2.5 0.4,3.9 0.3,1.4 0.8,2.7 1.4,3.9 0.7,1.2 1.4,2.2 2.2,3.1 0.8,0.9 1.8,1.3 3,1.3 v 2.2 h -28.5 v -2.2 c 1,0 2,-0.4 2.9,-1.3 0.9,-0.9 1.7,-1.9 2.3,-3.1 0.7,-1.2 1.1,-2.5 1.4,-3.9 0.3,-1.4 0.4,-2.7 0.4,-3.9 v -41 c 0,-5.3 -0.7,-9.9 -2.2,-13.9 -1.5,-4 -3.5,-7.3 -6,-9.9 -2.5,-2.6 -5.3,-4.6 -8.5,-5.8 -3.2,-1.2 -6.4,-1.9 -9.6,-1.9 -3.2,0 -6.4,0.6 -9.6,1.9 -3.2,1.3 -6,3 -8.4,5.2 -2.4,2.2 -4.4,4.9 -6,8.1 -1.5,3.2 -2.3,6.7 -2.3,10.5 v 47 c 0,1.2 0.1,2.5 0.4,3.9 0.3,1.4 0.8,2.7 1.4,3.9 0.7,1.2 1.4,2.2 2.2,3.1 0.8,0.9 1.8,1.3 3,1.3 v 2.2 H 172.3 V 368 c 1,0 2,-0.4 2.9,-1.3 0.9,-0.9 1.7,-1.9 2.3,-3.1 0.7,-1.2 1.1,-2.5 1.4,-3.9 0.3,-1.4 0.4,-2.7 0.4,-3.9 v -113 c 0,-2.5 -0.4,-57.9 -1.1,-60.1 -0.7,-2.2 -2.9,-3.4 -6.4,-3.5 V 177 l 22.1,-6.8 V 287 c 1,-1.2 2.4,-2.5 4,-3.9 1.6,-1.4 3.6,-2.7 5.8,-4 2.3,-1.2 4.9,-2.3 7.9,-3.1 3,-0.8 6.6,-1.2 10.7,-1.2 6.9,0 12.8,1.2 17.7,3.5 4.9,2.4 8.8,5.4 11.9,9.2 3.1,3.8 5.3,7.9 6.7,12.4 1.4,4.5 2.1,8.9 2.1,13.1 v 42.6 z"
           id="path978"
           inkscape:connector-curvature="0"
           style="fill:#333e49" />
        <path
           class="st1"
           d="m 326.5,357.5 c -7.4,0 -14,-1.2 -19.9,-3.6 -5.9,-2.4 -10.9,-5.7 -15.1,-9.9 -4.2,-4.2 -7.4,-9.2 -9.7,-14.9 -2.3,-5.7 -3.4,-12 -3.4,-18.8 0,-7.2 1.2,-13.8 3.8,-19.7 2.5,-6 6,-11.1 10.4,-15.3 4.4,-4.3 9.6,-7.6 15.7,-9.9 6,-2.4 12.6,-3.5 19.6,-3.5 7.1,0 13.5,1.1 19.4,3.4 5.9,2.3 11,5.5 15.2,9.6 4.3,4.1 7.6,9 9.9,14.7 2.4,5.7 3.5,11.9 3.5,18.6 0,6.3 -1.1,12.5 -3.2,18.4 -2.1,6 -5.3,11.2 -9.5,15.8 -4.2,4.6 -9.3,8.2 -15.4,11 -6.1,2.7 -13.2,4.1 -21.3,4.1 z M 325.1,269 c -5.3,0.3 -9.9,1.6 -14,3.9 -4,2.3 -7.4,5.2 -10.1,8.8 -2.7,3.6 -4.8,7.7 -6.2,12.2 -1.4,4.6 -2.1,9.2 -2.1,13.9 0,5.4 0.8,10.7 2.5,15.8 1.7,5.1 4.1,9.6 7.3,13.6 3.2,4 6.9,7.1 11.3,9.5 4.4,2.4 9.3,3.5 14.7,3.5 5.4,0 10.2,-1.2 14.4,-3.5 4.2,-2.4 7.7,-5.4 10.5,-9.2 2.8,-3.8 4.9,-8 6.3,-12.7 1.4,-4.7 2.1,-9.4 2.1,-14.1 0,-4.9 -0.7,-9.7 -2.2,-14.7 -1.5,-4.9 -3.7,-9.4 -6.8,-13.5 -3.1,-4 -6.9,-7.3 -11.5,-9.8 -4.7,-2.5 -10.1,-3.7 -16.2,-3.7 z"
           id="path980"
           inkscape:connector-curvature="0"
           style="fill:#333e49" />
      </g>
      <g
         id="g1012"
         transform="translate(-26,-157.02734)">
        <g
           id="g1010">
          <path
             class="st1"
             d="m 150.1,421.7 c -0.4,-0.4 -0.5,-0.9 -0.4,-1.2 0.1,-0.4 0.4,-0.7 0.9,-0.9 0.4,-0.2 0.8,-0.3 1.1,-0.2 0.2,0.1 0.4,0.2 0.6,0.4 0.1,0.2 0.3,0.5 0.5,0.8 0.1,0.3 0.3,0.5 0.4,0.7 0.2,0.2 0.4,0.3 0.7,0.4 0.5,0.2 1,0 1.6,-0.4 0.6,-0.5 1.2,-1.1 1.9,-2.1 3,-4.1 4.5,-6.2 7.3,-10.4 0.2,-0.2 0.3,-0.5 0.4,-0.7 0.1,-0.3 0,-0.5 -0.2,-0.5 -0.3,-0.1 -0.9,-0.1 -1.8,0.1 -0.1,0 -0.2,0 -0.3,0 -0.2,-0.1 -0.3,-0.2 -0.3,-0.4 0,-0.1 0.1,-0.2 0.2,-0.3 0.1,-0.1 0.3,-0.2 0.5,-0.2 0.7,-0.3 1.4,-0.5 2.2,-0.7 0.8,-0.2 1.7,-0.3 2.9,-0.5 0.5,-0.1 0.7,-0.1 1.2,-0.2 0.3,0 0.5,0.1 0.7,0.4 0.2,0.3 0.2,0.5 0.1,0.8 -0.3,0.4 -0.4,0.5 -0.6,0.9 -0.7,0.9 -1.2,1.6 -1.5,2.1 -2.6,3.8 -3.9,5.7 -6.6,9.5 -0.6,0.9 -1.5,1.7 -2.7,2.3 -1.2,0.6 -2.4,1.1 -3.7,1.3 -1.3,0.2 -2.2,0.2 -2.9,0 -1.1,-0.2 -1.8,-0.6 -2.2,-1 z m 19.4,-19.2 c -0.2,-0.4 -0.2,-0.7 -0.1,-1.1 0.2,-0.6 0.5,-1.1 1.1,-1.4 0.5,-0.3 1.1,-0.4 1.7,-0.3 0.4,0.1 0.6,0.3 0.8,0.7 0.2,0.4 0.2,0.8 0.1,1.2 -0.1,0.6 -0.5,1 -1,1.3 -0.5,0.3 -1.1,0.4 -1.6,0.2 -0.5,0 -0.8,-0.2 -1,-0.6 z"
             id="path984"
             inkscape:connector-curvature="0"
             style="fill:#333e49" />
          <path
             class="st1"
             d="m 169.2,418.4 c -0.2,-0.5 -0.3,-1 -0.2,-1.5 0,-0.2 0.1,-0.3 0.2,-0.4 1.9,-2.3 2.8,-3.5 4.6,-5.8 0.2,-0.3 0.4,-0.5 0.4,-0.6 0,-0.2 0,-0.3 -0.2,-0.4 -0.2,0 -0.5,0 -1.1,0.3 -0.6,0.2 -1.1,0.4 -1.5,0.6 -0.2,0.1 -0.4,0.1 -0.5,0.1 -0.2,0 -0.2,-0.1 -0.2,-0.3 0.1,-0.3 0.3,-0.6 0.7,-0.9 1.1,-0.8 2.2,-1.4 3.3,-1.7 1.1,-0.4 2.1,-0.5 2.8,-0.3 0.3,0.1 0.5,0.3 0.7,0.7 0.2,0.4 0.3,0.7 0.2,1.1 0,0.1 -0.1,0.2 -0.1,0.3 -0.6,0.7 -1.4,1.7 -2.5,3.1 -1.1,1.3 -1.6,2 -2.7,3.3 -0.2,0.3 -0.4,0.6 -0.5,0.8 -0.1,0.3 0,0.4 0.2,0.5 0.3,0.1 0.7,-0.1 1.4,-0.6 0.7,-0.5 1.8,-1.3 3.3,-2.4 0.9,-0.7 1.8,-1.4 2.7,-2.2 0.9,-0.8 1.6,-1.4 2.1,-2 0.4,-0.4 0.7,-0.7 1,-0.9 0.3,-0.2 0.5,-0.2 0.8,-0.2 0.4,0.1 0.6,0.3 0.9,0.7 0.2,0.4 0.3,0.7 0.2,1 0,0.1 -0.1,0.1 -0.1,0.3 -2,2.9 -3,4.3 -5,7.2 -0.1,0.2 -0.2,0.3 -0.2,0.5 0,0.2 0,0.3 0.1,0.3 0.3,0.1 0.8,-0.1 1.7,-0.4 0.9,-0.3 1.6,-0.7 2.1,-1 0.1,0 0.1,-0.1 0.1,-0.1 0.1,0 0.2,0.1 0.2,0.2 0.1,0.1 0.1,0.2 0.1,0.3 -0.1,0.3 -0.4,0.6 -1,1 -0.6,0.4 -1.3,0.7 -2,0.9 -0.7,0.3 -1.3,0.4 -1.8,0.4 -0.7,0.2 -1.4,0.3 -2,0.1 -0.4,-0.1 -0.8,-0.3 -1,-0.5 -0.1,0 -0.1,-0.1 -0.2,-0.3 0,-0.2 0,-0.3 0,-0.5 0,-0.2 0.1,-0.3 0.1,-0.3 0.2,-0.3 0.4,-0.5 0.6,-0.8 1.2,-1.6 2.1,-2.6 2.5,-3.2 0,0 0.1,-0.1 0.1,-0.1 0,-0.1 0,-0.2 -0.1,-0.2 -0.1,0 -0.2,0 -0.3,0.1 -2.4,1.8 -4.3,3 -5.6,3.8 -1.3,0.8 -2.4,1.1 -3.2,0.8 -0.5,0.1 -0.8,-0.2 -1.1,-0.8 z"
             id="path986"
             inkscape:connector-curvature="0"
             style="fill:#333e49" />
          <path
             class="st1"
             d="m 184.6,422.3 c -0.4,-0.4 -0.5,-0.9 -0.4,-1.4 0.1,-0.5 0.3,-0.8 0.6,-1.1 0.3,-0.3 0.6,-0.4 0.9,-0.3 0.1,0 0.3,0.1 0.4,0.4 0.2,0.2 0.3,0.4 0.5,0.7 0.3,0.4 0.6,0.8 0.9,1 0.3,0.3 0.6,0.4 0.9,0.5 0.4,0.1 0.7,0 1,-0.2 0.3,-0.2 0.5,-0.5 0.5,-0.9 0.1,-0.5 -0.1,-1.5 -0.7,-2.9 -0.5,-1.3 -0.8,-2.4 -0.6,-3.2 0.1,-0.7 0.6,-1.3 1.3,-1.9 0.7,-0.6 1.5,-1 2.3,-1.4 0.8,-0.3 1.5,-0.4 1.9,-0.4 0.4,0.1 0.8,0.2 1.1,0.5 0.4,0.3 0.6,0.5 0.9,0.9 0.2,0.3 0.3,0.6 0.3,0.8 -0.1,0.3 -0.3,0.6 -0.7,0.9 -0.4,0.3 -0.8,0.5 -1.1,0.4 -0.3,-0.1 -0.6,-0.4 -0.8,-0.9 -0.1,-0.3 -0.3,-0.5 -0.5,-0.7 -0.2,-0.2 -0.4,-0.3 -0.7,-0.4 -0.3,-0.1 -0.6,0 -0.8,0.2 -0.2,0.2 -0.4,0.4 -0.4,0.7 -0.1,0.4 0.2,1.3 0.9,2.8 0.7,1.5 0.9,2.6 0.8,3.5 -0.1,0.6 -0.5,1.2 -1.3,1.8 -0.7,0.6 -1.6,1 -2.6,1.3 -1,0.3 -2,0.3 -2.9,0.1 -0.8,-0.1 -1.3,-0.4 -1.7,-0.8 z"
             id="path988"
             inkscape:connector-curvature="0"
             style="fill:#333e49" />
          <path
             class="st1"
             d="m 195.5,424.4 c -0.3,-0.4 -0.4,-0.8 -0.4,-1.1 0,-0.2 0.1,-0.4 0.2,-0.6 0.1,-0.2 0.2,-0.5 0.4,-0.7 1.7,-2.8 2.5,-4.2 4.2,-7.1 0.1,-0.1 0.1,-0.2 0.1,-0.3 0,-0.1 0,-0.2 -0.1,-0.3 -0.1,-0.1 -0.2,-0.1 -0.3,-0.1 -0.5,-0.1 -0.8,-0.2 -1.4,-0.3 -0.3,-0.1 -0.4,-0.2 -0.5,-0.3 -0.1,-0.1 -0.1,-0.2 -0.1,-0.4 0,0 0.1,-0.1 0.2,-0.3 0.2,-0.1 0.3,-0.2 0.6,-0.3 0.2,-0.1 0.4,-0.1 0.6,-0.1 0.5,0.1 0.8,0.1 1.3,0.2 0.3,0 0.4,0 0.6,0 0.2,0 0.3,-0.2 0.5,-0.5 0.4,-0.6 0.6,-0.9 1,-1.5 0.3,-0.3 0.6,-0.7 1.2,-1 0.5,-0.3 0.9,-0.4 1.2,-0.4 0.2,0 0.3,0.1 0.4,0.3 0.1,0.2 0.1,0.3 0.1,0.6 0,0.2 -0.1,0.3 -0.2,0.5 -0.4,0.8 -0.6,1.2 -1.1,2.1 0,0.1 -0.1,0.2 -0.1,0.3 0,0.2 0.1,0.3 0.4,0.4 0.5,0.1 1.1,0.2 2,0.5 0.3,0.1 0.6,0.2 0.7,0.3 0.1,0.1 0.1,0.2 0.1,0.4 0,0.1 -0.1,0.2 -0.2,0.3 -0.1,0.1 -0.3,0.1 -0.6,0.1 -0.9,-0.1 -1.6,-0.1 -2.1,-0.2 -0.3,0 -0.6,0 -0.8,0 -0.2,0.1 -0.3,0.2 -0.4,0.4 -1.4,2.4 -2,3.7 -3.4,6.1 -0.2,0.3 -0.3,0.6 -0.3,0.8 -0.1,0.3 0.1,0.5 0.4,0.6 0.5,0.1 1.6,-0.4 3.3,-1.5 0.1,-0.1 0.2,-0.1 0.3,-0.1 0.1,0 0.1,0 0.2,0.1 0.1,0.1 0.1,0.2 0.1,0.3 0,0.2 -0.1,0.3 -0.2,0.4 -0.3,0.5 -0.9,1 -1.8,1.6 -0.9,0.6 -1.8,1 -2.7,1.4 -1,0.3 -1.7,0.5 -2.4,0.4 -0.4,-0.3 -0.7,-0.6 -1,-1 z"
             id="path990"
             inkscape:connector-curvature="0"
             style="fill:#333e49" />
          <path
             class="st1"
             d="m 206.8,426.3 c -0.5,-0.4 -0.9,-0.9 -1.2,-1.5 -0.3,-0.6 -0.4,-1.2 -0.3,-1.7 0.2,-1.5 0.8,-3 1.8,-4.4 1,-1.4 2.2,-2.5 3.5,-3.3 1.4,-0.8 2.7,-1.1 4,-0.9 1,0.1 1.7,0.4 2.1,0.8 0.5,0.4 0.6,1 0.6,1.5 -0.1,1.2 -0.9,2 -2.3,2.5 -1.4,0.5 -3.2,0.8 -5.3,0.9 -0.2,0 -0.3,0.1 -0.4,0.2 -0.3,0.6 -0.5,1.1 -0.6,1.6 -0.1,0.7 0,1.3 0.3,1.8 0.3,0.5 0.8,0.8 1.5,0.9 0.6,0.1 1.1,0 1.7,-0.2 0.5,-0.2 1.1,-0.5 1.6,-1 0.2,-0.2 0.4,-0.3 0.6,-0.3 0.2,0 0.3,0.1 0.2,0.3 0,0.2 -0.1,0.3 -0.1,0.3 -0.8,1.1 -1.7,1.9 -2.7,2.4 -1,0.6 -2.2,0.8 -3.4,0.6 -0.6,0.1 -1.1,-0.1 -1.6,-0.5 z m 6.3,-7.7 c 1,-0.4 1.5,-1.2 1.6,-2.2 0,-0.2 0,-0.5 -0.1,-0.7 -0.1,-0.2 -0.3,-0.3 -0.5,-0.4 -0.5,-0.1 -1,0.1 -1.6,0.5 -0.6,0.4 -1.1,0.9 -1.6,1.5 -0.5,0.6 -0.8,1.2 -0.9,1.8 0,0 0,0 0,0.1 0,0.1 0.1,0.1 0.2,0.1 0.9,0 2,-0.3 2.9,-0.7 z"
             id="path992"
             inkscape:connector-curvature="0"
             style="fill:#333e49" />
          <path
             class="st7"
             d="m 246.1,416.5 c -0.1,0.1 -0.1,0.1 0,0.3 0.6,1.1 0.9,2.3 0.8,3.7 0,1.9 -0.5,3.6 -1.5,5 -1,1.4 -2.3,2.5 -4,3.2 -1.7,0.7 -3.6,1 -5.7,0.9 -2,-0.1 -3.7,-0.5 -5.2,-1.3 -1.5,-0.8 -2.6,-1.8 -3.4,-3.1 -0.8,-1.3 -1.1,-2.7 -1,-4.2 0.1,-1.1 0.4,-2.2 0.8,-3.1 0.5,-1 1,-1.8 1.8,-2.4 -0.2,-0.8 -0.3,-1.7 -0.2,-2.7 0.1,-1 0.4,-2 1,-2.8 0.6,-0.8 1.4,-1.4 2.3,-1.9 0.9,-0.4 1.9,-0.6 3,-0.6 1,0.1 1.8,0.4 2.4,0.9 0.6,0.6 0.8,1.3 0.8,2.2 0,0.5 -0.2,0.9 -0.5,1.1 -0.3,0.3 -0.6,0.4 -1.1,0.4 -0.3,0 -0.5,-0.1 -0.7,-0.4 -0.2,-0.2 -0.3,-0.5 -0.3,-0.7 0,-0.4 -0.1,-0.8 -0.3,-1.1 -0.2,-0.3 -0.6,-0.5 -0.9,-0.5 -1.1,-0.1 -2,0.2 -2.7,0.9 -0.7,0.6 -1.2,1.6 -1.2,2.7 0,0.5 0,1 0,1.4 0.9,-0.5 1.9,-0.7 2.9,-0.6 1.1,0.1 1.9,0.4 2.4,0.9 0.5,0.5 0.8,1.2 0.8,1.9 0,0.8 -0.4,1.4 -1,1.9 -0.7,0.5 -1.4,0.7 -2.3,0.7 -0.8,-0.1 -1.5,-0.3 -2.2,-0.7 -0.6,-0.4 -1.1,-1 -1.5,-1.7 -0.5,0.7 -0.8,1.7 -0.8,2.8 -0.1,1.1 0.1,2.2 0.7,3.2 0.5,1 1.4,1.8 2.7,2.5 1.3,0.7 3,1 5,1.1 1.8,0.1 3.3,-0.2 4.6,-0.7 1.3,-0.6 2.3,-1.4 3,-2.4 0.7,-1 1,-2.2 1.1,-3.4 0,-1.1 -0.3,-2 -0.9,-2.7 -0.6,-0.7 -1.5,-1.1 -2.8,-1.1 -0.7,0 -1.3,0.2 -1.8,0.6 -0.5,0.4 -0.7,0.9 -0.8,1.5 0,0.4 0.1,0.7 0.3,1 0.2,0.3 0.6,0.4 1,0.4 0.2,0 0.3,0 0.4,-0.1 0.1,-0.1 0.2,-0.2 0.3,-0.3 0.1,-0.1 0.2,-0.2 0.2,-0.2 0.2,-0.2 0.3,-0.3 0.5,-0.4 0.1,-0.1 0.3,-0.2 0.5,-0.1 0.5,0 0.8,0.1 1.1,0.4 0.2,0.2 0.3,0.6 0.3,1 0,0.5 -0.2,1 -0.6,1.4 -0.4,0.4 -0.9,0.5 -1.5,0.5 -1.1,0 -2.1,-0.4 -2.7,-1 -0.7,-0.7 -1,-1.5 -1,-2.4 0.1,-1.5 0.6,-2.6 1.6,-3.4 1,-0.8 2.3,-1.2 3.7,-1.1 1,0 1.5,0 2.5,0 1.5,0 2.7,-0.2 3.4,-0.7 0.7,-0.5 1.1,-1.3 1.1,-2.3 0,-0.5 -0.1,-0.9 -0.5,-1.3 -0.4,-0.4 -0.7,-0.5 -1.1,-0.5 -0.2,0 -0.4,0 -0.5,0.2 -0.1,0.1 -0.2,0.2 -0.2,0.4 0,0.3 0.1,0.5 0.4,0.7 0.2,0.1 0.3,0.2 0.4,0.4 0.1,0.2 0.1,0.3 0.1,0.5 0,0.3 -0.1,0.6 -0.4,0.9 -0.3,0.3 -0.6,0.4 -1.1,0.4 -0.5,0 -0.9,-0.2 -1.2,-0.5 -0.3,-0.3 -0.4,-0.8 -0.4,-1.3 0,-0.7 0.3,-1.3 0.8,-1.8 0.5,-0.5 1.2,-0.8 2.1,-0.7 0.8,0 1.5,0.3 2,1 0.5,0.6 0.8,1.5 0.8,2.6 0,1.4 -0.4,2.5 -1.3,3.4 -0.9,0.9 -2.1,1.3 -3.4,1.3 -0.5,-0.2 -0.8,-0.1 -0.9,-0.1 z m -15.7,-0.9 c 0.3,1.5 1.2,2.3 2.6,2.4 0.6,0 1,-0.1 1.4,-0.4 0.4,-0.3 0.5,-0.6 0.6,-1.1 0,-0.4 -0.1,-0.8 -0.5,-1.1 -0.3,-0.3 -0.8,-0.5 -1.4,-0.5 -1,0 -1.9,0.2 -2.7,0.7 z"
             id="path994"
             inkscape:connector-curvature="0"
             style="fill:#c97071" />
          <path
             class="st1"
             d="m 257.8,429.7 c -0.3,-0.2 -0.5,-0.5 -0.5,-0.8 0,-0.5 0.1,-1.2 0.4,-2.1 1.6,-5.4 2.4,-8.1 3.9,-13.6 0.2,-0.9 0.3,-1.5 0.3,-1.8 0,-0.2 -0.1,-0.4 -0.3,-0.5 -0.2,-0.1 -0.5,-0.2 -0.8,-0.4 -0.4,-0.1 -0.6,-0.2 -0.6,-0.4 0,-0.1 0,-0.2 0.1,-0.3 0.1,-0.1 0.3,-0.2 0.6,-0.3 0.5,-0.2 1.2,-0.5 2.2,-0.8 1,-0.3 1.6,-0.5 1.9,-0.5 0.4,0 0.7,0.1 0.7,0.3 0,0.2 0,0.5 -0.1,0.7 -0.1,0.2 -0.1,0.4 -0.1,0.4 -1.4,5.3 -2.1,8 -3.7,13.3 0,0 0,0.1 0,0.1 0,0.1 0,0.1 0.1,0.1 0.1,0 0.2,-0.1 0.2,-0.2 1.2,-1.9 2.4,-3.5 3.7,-4.7 1.3,-1.2 2.4,-1.9 3.5,-1.9 0.7,0 1.3,0.2 1.8,0.6 0.4,0.5 0.7,1 0.7,1.7 0.1,1.5 -0.1,3 -0.7,4.5 -0.6,1.5 -1.3,2.9 -2.2,4.1 -0.2,0.2 -0.5,0.5 -1.1,1 -0.6,0.4 -1.1,0.8 -1.7,1.1 -0.6,0.3 -1.1,0.5 -1.4,0.5 -0.3,0 -0.7,-0.1 -1.1,-0.4 -0.4,-0.3 -0.6,-0.6 -0.6,-0.8 0,-0.2 0.1,-0.4 0.3,-0.8 0.2,-0.3 0.4,-0.5 0.6,-0.5 0.2,0 0.3,0 0.4,0.1 0.1,0.1 0.2,0.1 0.3,0.2 0.1,0.1 0.2,0.1 0.2,0.2 0.2,0.2 0.4,0.3 0.5,0.4 0.1,0.1 0.3,0.1 0.4,0.1 0.4,0 0.8,-0.5 1.3,-1.6 0.4,-1 0.8,-2.2 1.1,-3.6 0.3,-1.4 0.4,-2.6 0.3,-3.5 0,-0.4 -0.1,-0.7 -0.3,-0.9 -0.2,-0.2 -0.4,-0.3 -0.7,-0.3 -0.6,0 -1.4,0.8 -2.4,2.3 -1,1.5 -2.2,3.5 -3.6,5.9 -0.3,0.5 -0.5,0.8 -0.8,1.4 -0.4,0.8 -0.8,1.3 -1.1,1.6 -0.3,0.3 -0.6,0.5 -0.8,0.5 -0.3,0 -0.6,-0.1 -0.9,-0.4 z"
             id="path996"
             inkscape:connector-curvature="0"
             style="fill:#333e49" />
          <path
             class="st1"
             d="m 275.1,428.8 c -0.6,-0.3 -1.2,-0.8 -1.6,-1.3 -0.4,-0.6 -0.6,-1.2 -0.7,-2 -0.1,-1.3 0.2,-2.7 0.8,-4.2 0.6,-1.5 1.5,-2.8 2.7,-3.9 1.2,-1.1 2.5,-1.7 4.1,-1.8 1.2,-0.1 2.2,0.2 3,0.8 0.8,0.6 1.3,1.6 1.4,2.8 0.1,1.3 -0.1,2.7 -0.7,4.2 -0.6,1.5 -1.5,2.8 -2.7,3.9 -1.2,1.1 -2.7,1.7 -4.4,1.8 -0.6,0.1 -1.2,0 -1.9,-0.3 z m 4.5,-2.6 c 0.7,-1.2 1.2,-2.5 1.5,-4.1 0.4,-1.6 0.5,-2.9 0.4,-4.1 -0.1,-1 -0.5,-1.4 -1.2,-1.3 -0.6,0.1 -1.2,0.6 -1.9,1.8 -0.7,1.1 -1.2,2.5 -1.6,4 -0.4,1.6 -0.6,2.9 -0.5,4.2 0.1,1 0.5,1.5 1.3,1.4 0.7,-0.1 1.4,-0.7 2,-1.9 z"
             id="path998"
             inkscape:connector-curvature="0"
             style="fill:#333e49" />
          <path
             class="st1"
             d="m 288.2,427.7 c -0.4,-0.3 -0.6,-0.7 -0.7,-1.1 0,-0.2 0,-0.3 0,-0.5 1,-3.3 1.4,-4.9 2.4,-8.2 0.1,-0.3 0.1,-0.5 0.1,-0.6 0,-0.2 -0.1,-0.3 -0.4,-0.3 -0.4,0 -0.8,0.2 -1.1,0.3 -0.4,0.2 -0.7,0.5 -1.1,1.1 -0.1,0.1 -0.2,0.2 -0.3,0.2 -0.1,0 -0.1,0 -0.2,-0.1 -0.1,-0.1 -0.1,-0.1 -0.1,-0.2 0,-0.2 0.1,-0.5 0.2,-0.8 0.2,-0.4 0.4,-0.7 0.5,-1 0.9,-1.2 2.1,-1.9 3.6,-2 0.4,-0.1 0.8,0 1.1,0.3 0.3,0.2 0.5,0.6 0.5,1 0,0.2 0,0.5 -0.1,0.7 -0.5,1.8 -0.7,2.7 -1.2,4.5 0,0 0,0.1 0,0.1 0,0.1 0.1,0.1 0.2,0.1 0.1,0 0.2,-0.1 0.3,-0.2 2,-4.7 3.9,-7.1 5.9,-7.4 0.7,-0.1 1.2,0 1.6,0.4 0.4,0.4 0.7,0.9 0.8,1.5 0.1,0.6 0.1,1.1 -0.1,1.6 -0.6,2.4 -1,3.6 -1.6,6 -0.1,0.3 -0.1,0.5 -0.1,0.7 0,0.2 0.1,0.3 0.4,0.3 0.3,0 0.7,-0.3 1.3,-0.9 0.6,-0.5 1,-0.9 1.2,-1.2 0.2,-0.2 0.3,-0.3 0.4,-0.4 0.1,0 0.1,0 0.2,0.1 0.1,0.1 0.1,0.1 0.1,0.2 0,0.3 0,0.6 -0.2,0.9 -0.7,1.2 -1.6,2.2 -2.7,3 -1,0.8 -2.1,1.3 -3.1,1.4 -0.3,0 -0.7,0 -1,-0.2 -0.3,-0.2 -0.5,-0.5 -0.5,-0.8 0,-0.1 0,-0.3 0,-0.3 0.6,-1.9 0.9,-3 1.1,-3.4 0.7,-2 1.2,-3.9 1.6,-5.5 0.1,-0.4 0.1,-0.7 0.1,-1 0,-0.3 -0.2,-0.5 -0.5,-0.4 -0.3,0 -0.7,0.3 -1.1,0.8 -0.4,0.5 -0.9,1.3 -1.5,2.4 -0.3,0.6 -0.8,1.6 -1.6,3.2 -0.8,1.6 -1.4,3 -2,4.3 -0.2,0.6 -0.5,1 -0.7,1.3 -0.2,0.3 -0.5,0.5 -0.8,0.5 -0.1,0 -0.5,-0.1 -0.9,-0.4 z"
             id="path1000"
             inkscape:connector-curvature="0"
             style="fill:#333e49" />
          <path
             class="st1"
             d="m 305.7,425.3 c -0.4,-0.3 -0.7,-0.6 -0.7,-1 0,-0.2 0,-0.3 0,-0.5 0.8,-3.3 1.2,-5 1.9,-8.3 0.1,-0.3 0.1,-0.5 0,-0.6 0,-0.2 -0.2,-0.3 -0.4,-0.3 -0.4,0.1 -0.7,0.2 -1.1,0.4 -0.4,0.2 -0.7,0.6 -1,1.1 -0.1,0.1 -0.2,0.2 -0.3,0.2 -0.1,0 -0.1,0 -0.2,-0.1 -0.1,0 -0.1,-0.1 -0.1,-0.2 0,-0.2 0,-0.5 0.2,-0.9 0.2,-0.4 0.3,-0.7 0.5,-1 0.8,-1.2 2,-2 3.5,-2.2 0.4,-0.1 0.8,0 1.1,0.2 0.3,0.2 0.5,0.5 0.6,0.9 0,0.2 0,0.5 0,0.7 -0.4,1.8 -0.6,2.7 -0.9,4.6 0,0 0,0.1 0,0.1 0,0.1 0.1,0.1 0.2,0.1 0.1,0 0.2,-0.1 0.2,-0.2 1.8,-4.8 3.5,-7.3 5.5,-7.7 0.7,-0.1 1.2,0 1.6,0.3 0.4,0.3 0.7,0.8 0.8,1.5 0.1,0.6 0.1,1.1 0,1.6 -0.5,2.4 -0.8,3.6 -1.3,6.1 -0.1,0.3 -0.1,0.5 0,0.7 0,0.2 0.2,0.3 0.4,0.3 0.3,-0.1 0.7,-0.4 1.3,-0.9 0.6,-0.6 0.9,-1 1.1,-1.3 0.2,-0.2 0.3,-0.4 0.4,-0.4 0.1,0 0.1,0 0.2,0.1 0.1,0.1 0.1,0.1 0.1,0.2 0.1,0.3 0,0.6 -0.1,0.9 -0.7,1.2 -1.5,2.2 -2.5,3.1 -1,0.9 -2,1.4 -3,1.6 -0.3,0.1 -0.7,0 -1,-0.2 -0.3,-0.2 -0.5,-0.4 -0.6,-0.7 0,-0.1 0,-0.2 0,-0.3 0.5,-1.9 0.8,-3.1 0.9,-3.5 0.6,-2.1 1,-3.9 1.3,-5.6 0.1,-0.4 0.1,-0.7 0,-1 -0.1,-0.3 -0.3,-0.5 -0.5,-0.4 -0.3,0.1 -0.7,0.3 -1,0.9 -0.3,0.5 -0.8,1.4 -1.4,2.5 -0.3,0.6 -0.8,1.7 -1.4,3.3 -0.7,1.6 -1.3,3.1 -1.8,4.4 -0.2,0.6 -0.4,1 -0.7,1.3 -0.2,0.3 -0.5,0.5 -0.7,0.5 -0.3,0.1 -0.6,0 -1.1,-0.3 z"
             id="path1002"
             inkscape:connector-curvature="0"
             style="fill:#333e49" />
          <path
             class="st1"
             d="m 323.6,421.9 c -0.6,-0.2 -1.2,-0.5 -1.7,-1 -0.5,-0.4 -0.8,-1 -0.9,-1.5 -0.3,-1.5 -0.2,-3.1 0.2,-4.7 0.4,-1.7 1.2,-3.1 2.2,-4.3 1,-1.2 2.1,-2 3.4,-2.3 0.9,-0.2 1.7,-0.2 2.3,0 0.6,0.2 0.9,0.7 1.1,1.2 0.3,1.1 -0.1,2.2 -1.3,3.1 -1.1,0.9 -2.7,1.9 -4.6,2.7 -0.2,0.1 -0.3,0.2 -0.3,0.3 -0.1,0.7 -0.1,1.2 0,1.7 0.1,0.7 0.4,1.3 0.9,1.6 0.5,0.4 1,0.5 1.7,0.3 0.6,-0.1 1.1,-0.4 1.5,-0.8 0.4,-0.4 0.8,-0.9 1.1,-1.5 0.1,-0.3 0.3,-0.4 0.5,-0.5 0.2,0 0.3,0 0.3,0.2 0,0.2 0,0.3 0,0.4 -0.4,1.3 -0.9,2.3 -1.7,3.2 -0.8,0.9 -1.8,1.5 -3,1.8 -0.5,0.3 -1,0.3 -1.7,0.1 z m 3.3,-9.5 c 0.7,-0.8 1,-1.6 0.7,-2.6 -0.1,-0.2 -0.2,-0.4 -0.4,-0.6 -0.2,-0.1 -0.4,-0.2 -0.6,-0.1 -0.5,0.1 -0.9,0.5 -1.3,1 -0.4,0.6 -0.8,1.2 -1,2 -0.2,0.8 -0.3,1.4 -0.3,2 0,0 0,0 0,0.1 0,0.1 0.1,0.1 0.2,0.1 1.1,-0.5 2,-1.1 2.7,-1.9 z m 0.9,-11.9 c 0.1,0.1 0.3,0.4 0.5,0.8 0.8,1.6 1.5,2.8 1.9,3.8 0.1,0.3 0.1,0.5 0.1,0.7 0,0.2 -0.1,0.3 -0.3,0.4 -0.3,0.1 -0.6,-0.1 -0.9,-0.6 -0.5,-0.6 -1,-1.3 -1.7,-2 -0.1,-0.1 -0.2,-0.1 -0.3,0.1 -0.8,1.2 -1.2,1.7 -2,2.9 -0.4,0.6 -0.7,1 -1,1 -0.2,0 -0.3,0 -0.4,-0.3 -0.1,-0.2 0,-0.5 0.1,-0.8 0.6,-1.2 1.3,-2.7 2.2,-4.5 0.5,-1 0.9,-1.5 1.2,-1.6 0.3,-0.1 0.5,0 0.6,0.1 z"
             id="path1004"
             inkscape:connector-curvature="0"
             style="fill:#333e49" />
          <path
             class="st1"
             d="m 334,419.3 c -0.5,-0.3 -0.7,-0.5 -0.8,-0.8 0,-0.2 -0.1,-0.4 0,-0.6 0,-0.2 0,-0.5 0.1,-0.8 0.4,-3.3 0.5,-4.9 0.9,-8.2 0,-0.1 0,-0.2 0,-0.3 0,-0.1 -0.1,-0.2 -0.2,-0.2 -0.1,0 -0.2,0 -0.3,0 -0.5,0.1 -0.8,0.2 -1.4,0.3 -0.3,0.1 -0.5,0 -0.6,0 -0.1,-0.1 -0.2,-0.2 -0.2,-0.3 0,0 0,-0.2 0.1,-0.3 0.1,-0.2 0.2,-0.4 0.4,-0.5 0.2,-0.2 0.3,-0.3 0.5,-0.3 0.5,-0.1 0.8,-0.2 1.3,-0.3 0.3,-0.1 0.4,-0.1 0.5,-0.2 0.1,-0.1 0.2,-0.3 0.2,-0.6 0.1,-0.7 0.2,-1.1 0.3,-1.8 0.1,-0.4 0.3,-0.9 0.7,-1.4 0.3,-0.5 0.6,-0.8 0.9,-0.8 0.2,0 0.3,0 0.5,0.1 0.1,0.1 0.2,0.3 0.3,0.5 0,0.2 0.1,0.3 0,0.5 0,0.9 -0.1,1.4 -0.1,2.3 0,0.1 0,0.2 0,0.3 0.1,0.2 0.2,0.2 0.5,0.2 0.4,-0.1 1.1,-0.3 2,-0.4 0.4,0 0.6,0 0.7,0 0.1,0 0.2,0.1 0.2,0.3 0,0.1 0,0.2 -0.1,0.3 -0.1,0.1 -0.2,0.3 -0.5,0.3 -0.8,0.3 -1.5,0.5 -1.9,0.7 -0.3,0.1 -0.6,0.2 -0.7,0.4 -0.1,0.1 -0.2,0.3 -0.3,0.5 -0.2,2.8 -0.4,4.2 -0.6,7 0,0.4 0,0.7 0,0.9 0.1,0.3 0.3,0.4 0.6,0.4 0.5,-0.1 1.3,-1.1 2.4,-2.8 0.1,-0.1 0.1,-0.2 0.2,-0.2 0.1,0 0.1,0 0.2,0 0.1,0 0.1,0.1 0.2,0.2 0,0.2 0,0.3 0,0.5 -0.1,0.6 -0.4,1.3 -1,2.2 -0.5,0.9 -1.2,1.7 -1.9,2.4 -0.7,0.7 -1.4,1.1 -2,1.3 -0.2,-0.4 -0.6,-0.5 -1.1,-0.8 z"
             id="path1006"
             inkscape:connector-curvature="0"
             style="fill:#333e49" />
          <path
             class="st1"
             d="m 345.1,416.4 c -0.6,-0.2 -1.2,-0.4 -1.8,-0.8 -0.5,-0.4 -0.9,-0.9 -1,-1.5 -0.4,-1.5 -0.5,-3 -0.1,-4.7 0.4,-1.7 1,-3.2 1.9,-4.5 0.9,-1.3 2,-2.1 3.3,-2.5 0.9,-0.3 1.7,-0.3 2.3,-0.1 0.6,0.2 1,0.6 1.2,1.2 0.4,1.1 0,2.2 -1.1,3.2 -1.1,1 -2.6,2.1 -4.5,3.1 -0.2,0.1 -0.3,0.2 -0.3,0.4 0,0.7 0,1.2 0.1,1.6 0.2,0.7 0.5,1.2 1,1.6 0.5,0.3 1.1,0.4 1.7,0.2 0.6,-0.2 1,-0.5 1.4,-0.9 0.4,-0.4 0.7,-0.9 1,-1.6 0.1,-0.3 0.3,-0.4 0.4,-0.5 0.2,-0.1 0.3,0 0.4,0.2 0.1,0.2 0.1,0.3 0,0.4 -0.3,1.3 -0.8,2.4 -1.5,3.3 -0.7,0.9 -1.7,1.6 -2.9,2 -0.2,0 -0.8,0 -1.5,-0.1 z m 2.7,-9.7 c 0.7,-0.8 0.9,-1.7 0.6,-2.7 -0.1,-0.2 -0.2,-0.4 -0.4,-0.5 -0.2,-0.1 -0.4,-0.2 -0.7,-0.1 -0.5,0.1 -0.9,0.5 -1.3,1.1 -0.4,0.6 -0.7,1.3 -0.9,2.1 -0.2,0.8 -0.2,1.4 -0.1,2 0,0 0,0 0,0.1 0,0.1 0.1,0.1 0.2,0.1 1.1,-0.6 1.9,-1.3 2.6,-2.1 z"
             id="path1008"
             inkscape:connector-curvature="0"
             style="fill:#333e49" />
        </g>
      </g>
      <path
         class="st7"
         d="m 109.4,69.37266 c 0,-2.9 1,-5.4 3.1,-7.5 2.1,-2.1 4.6,-3.1 7.5,-3.1 2.9,0 5.4,1 7.4,3.1 2,2.1 3,4.6 3,7.5 0,2.9 -1,5.4 -3,7.3 -2,1.9 -4.5,2.9 -7.4,2.9 -2.9,0 -5.4,-1 -7.5,-2.9 -2.1,-1.9 -3.1,-4.3 -3.1,-7.3 z"
         id="path1014"
         inkscape:connector-curvature="0"
         style="fill:#c97071" />
      <path
         class="st7"
         d="m 358.1,176.37266 c 0,-2.9 1,-5.4 3,-7.5 2,-2.1 4.4,-3.1 7.4,-3.1 2.9,0 5.4,1 7.5,3.1 2.1,2.1 3.1,4.6 3.1,7.5 0,2.9 -1,5.4 -3.1,7.4 -2.1,2 -4.6,3 -7.5,3 -2.9,0 -5.4,-1 -7.4,-3 -2,-2 -3,-4.4 -3,-7.4 z"
         id="path1016"
         inkscape:connector-curvature="0"
         style="fill:#c97071" />
    </g>
  </g>
</svg>
