<?xml version="1.0" encoding="UTF-8" standalone="no"?>
<svg
   xmlns:dc="http://purl.org/dc/elements/1.1/"
   xmlns:cc="http://creativecommons.org/ns#"
   xmlns:rdf="http://www.w3.org/1999/02/22-rdf-syntax-ns#"
   xmlns:svg="http://www.w3.org/2000/svg"
   xmlns="http://www.w3.org/2000/svg"
   xmlns:xlink="http://www.w3.org/1999/xlink"
   xmlns:sodipodi="http://sodipodi.sourceforge.net/DTD/sodipodi-0.dtd"
   xmlns:inkscape="http://www.inkscape.org/namespaces/inkscape"
   width="105.16"
   height="19.128"
   viewBox="0 0 105.16 19.128"
   version="1.1"
   id="svg30"
   sodipodi:docname="jho-tagline.svg"
   inkscape:version="0.92.2 5c3e80d, 2017-08-06">
  <metadata
     id="metadata34">
    <rdf:RDF>
      <cc:Work
         rdf:about="">
        <dc:format>image/svg+xml</dc:format>
        <dc:type
           rdf:resource="http://purl.org/dc/dcmitype/StillImage" />
        <dc:title>Slice</dc:title>
      </cc:Work>
    </rdf:RDF>
  </metadata>
  <sodipodi:namedview
     pagecolor="#ffffff"
     bordercolor="#666666"
     borderopacity="1"
     objecttolerance="10"
     gridtolerance="10"
     guidetolerance="10"
     inkscape:pageopacity="0"
     inkscape:pageshadow="2"
     inkscape:window-width="1920"
     inkscape:window-height="1080"
     id="namedview32"
     showgrid="false"
     fit-margin-top="0"
     fit-margin-left="0"
     fit-margin-right="0"
     fit-margin-bottom="0"
     inkscape:zoom="2.0629354"
     inkscape:cx="-9.0688205"
     inkscape:cy="-152.8883"
     inkscape:window-x="0"
     inkscape:window-y="0"
     inkscape:window-maximized="0"
     inkscape:current-layer="Canvas" />
  <title
     id="title2">Slice</title>
  <desc
     id="desc4">André was here</desc>
  <g
     id="Canvas"
     transform="translate(-2190.012,-1032.512)">
    <clipPath
       id="clip-0"
       style="clip-rule:evenodd">
      <path
         d="M 1135,-361 H 2415 V 1141 H 1135 Z"
         id="path6"
         inkscape:connector-curvature="0"
         style="fill:#ffffff" />
    </clipPath>
    <g
       id="Group 2"
       transform="translate(-1.0044776,-1.4281608)">
      <g
         id="jho">
        <use
           height="100%"
           width="100%"
           y="0"
           x="0"
           style="fill:#223c49"
           id="use16"
           transform="translate(1485,997)"
           xlink:href="#path2_fill" />
        <use
           height="100%"
           width="100%"
           y="0"
           x="0"
           style="fill:#e27170"
           id="use18"
           transform="translate(1485,997)"
           xlink:href="#path3_fill" />
      </g>
    </g>
  </g>
  <defs
     id="defs28">
    <path
       id="path0_fill"
       d="M 0,0 H 1280 V 200 H 0 Z"
       inkscape:connector-curvature="0" />
    <path
       id="path1_fill"
       d="m 611.796,49.424 c -0.085,0 -0.165,0.0213 -0.24,0.064 -0.075,0.032 -0.16,0.0747 -0.256,0.128 -0.181,0.1067 -0.411,0.2187 -0.688,0.336 -0.277,0.1067 -0.64,0.16 -1.088,0.16 -0.544,0 -1.051,-0.0853 -1.52,-0.256 -0.459,-0.1813 -0.859,-0.4267 -1.2,-0.736 -0.331,-0.32 -0.592,-0.688 -0.784,-1.104 -0.181,-0.4267 -0.272,-0.8853 -0.272,-1.376 0,-0.4587 0.08,-0.896 0.24,-1.312 0.171,-0.416 0.411,-0.784 0.72,-1.104 0.309,-0.32 0.688,-0.576 1.136,-0.768 0.459,-0.192 0.976,-0.288 1.552,-0.288 0.395,0 0.715,0.048 0.96,0.144 0.245,0.0853 0.453,0.1707 0.624,0.256 0.096,0.0533 0.187,0.096 0.272,0.128 0.096,0.032 0.192,0.048 0.288,0.048 v 1.216 h -0.16 c -0.053,-0.2027 -0.149,-0.3787 -0.288,-0.528 -0.139,-0.16 -0.299,-0.2933 -0.48,-0.4 -0.181,-0.1067 -0.379,-0.1867 -0.592,-0.24 -0.213,-0.0533 -0.421,-0.08 -0.624,-0.08 -0.437,0 -0.821,0.08 -1.152,0.24 -0.331,0.1493 -0.603,0.352 -0.816,0.608 -0.213,0.2453 -0.373,0.528 -0.48,0.848 -0.107,0.32 -0.16,0.6507 -0.16,0.992 0,0.3947 0.064,0.784 0.192,1.168 0.128,0.3733 0.309,0.7093 0.544,1.008 0.245,0.2987 0.539,0.5387 0.88,0.72 0.341,0.1813 0.725,0.272 1.152,0.272 0.299,0 0.571,-0.0427 0.816,-0.128 0.256,-0.0853 0.469,-0.1973 0.64,-0.336 0.181,-0.1387 0.325,-0.288 0.432,-0.448 0.107,-0.1707 0.171,-0.3307 0.192,-0.48 h 0.16 z m 4.425,0.688 c -0.534,0 -1.014,-0.0853 -1.44,-0.256 -0.427,-0.1813 -0.795,-0.4213 -1.104,-0.72 -0.299,-0.3093 -0.534,-0.672 -0.704,-1.088 -0.16,-0.416 -0.24,-0.8693 -0.24,-1.36 0,-0.5227 0.09,-0.9973 0.272,-1.424 0.181,-0.4373 0.432,-0.8107 0.752,-1.12 0.32,-0.3093 0.698,-0.5493 1.136,-0.72 0.437,-0.1707 0.912,-0.256 1.424,-0.256 0.512,0 0.981,0.0853 1.408,0.256 0.426,0.16 0.794,0.3893 1.104,0.688 0.309,0.2987 0.549,0.656 0.72,1.072 0.17,0.4053 0.256,0.8533 0.256,1.344 0,0.4587 -0.08,0.9067 -0.24,1.344 -0.15,0.4267 -0.379,0.8053 -0.688,1.136 -0.299,0.3307 -0.672,0.5973 -1.12,0.8 -0.438,0.2027 -0.95,0.304 -1.536,0.304 z m -0.096,-6.416 c -0.384,0.0213 -0.726,0.1173 -1.024,0.288 -0.288,0.16 -0.534,0.3733 -0.736,0.64 -0.192,0.256 -0.342,0.5493 -0.448,0.88 -0.096,0.3307 -0.144,0.6667 -0.144,1.008 0,0.3947 0.058,0.7787 0.176,1.152 0.128,0.3627 0.304,0.688 0.528,0.976 0.234,0.288 0.512,0.5173 0.832,0.688 0.32,0.1707 0.677,0.256 1.072,0.256 0.394,0 0.741,-0.0853 1.04,-0.256 0.309,-0.1707 0.565,-0.3893 0.768,-0.656 0.202,-0.2773 0.352,-0.5867 0.448,-0.928 0.106,-0.3413 0.16,-0.6827 0.16,-1.024 0,-0.352 -0.054,-0.704 -0.16,-1.056 -0.107,-0.3627 -0.272,-0.688 -0.496,-0.976 -0.224,-0.2987 -0.507,-0.5387 -0.848,-0.72 -0.331,-0.1813 -0.72,-0.272 -1.168,-0.272 z m 11.543,5.264 c 0,0.0853 0.01,0.1813 0.032,0.288 0.021,0.096 0.053,0.1867 0.096,0.272 0.053,0.0853 0.106,0.16 0.16,0.224 0.064,0.064 0.138,0.096 0.224,0.096 V 50 h -2.064 v -0.16 c 0.074,0 0.144,-0.032 0.208,-0.096 0.064,-0.064 0.117,-0.1387 0.16,-0.224 0.053,-0.0853 0.09,-0.176 0.112,-0.272 0.021,-0.1067 0.032,-0.2027 0.032,-0.288 v -2.976 c 0,-0.384 -0.054,-0.72 -0.16,-1.008 -0.107,-0.288 -0.251,-0.528 -0.432,-0.72 -0.182,-0.192 -0.39,-0.3307 -0.624,-0.416 -0.224,-0.096 -0.454,-0.144 -0.688,-0.144 -0.235,0 -0.47,0.048 -0.704,0.144 -0.224,0.096 -0.427,0.224 -0.608,0.384 -0.171,0.1493 -0.315,0.3307 -0.432,0.544 -0.107,0.2027 -0.16,0.416 -0.16,0.64 v 3.552 c 0,0.0853 0.01,0.1813 0.032,0.288 0.021,0.096 0.053,0.1867 0.096,0.272 0.053,0.0853 0.106,0.16 0.16,0.224 0.064,0.064 0.138,0.096 0.224,0.096 V 50 h -2.08 v -0.16 c 0.074,0 0.144,-0.032 0.208,-0.096 0.064,-0.064 0.117,-0.1387 0.16,-0.224 0.053,-0.0853 0.09,-0.176 0.112,-0.272 0.021,-0.1067 0.032,-0.2027 0.032,-0.288 v -4.416 c 0,-0.1813 -0.027,-0.352 -0.08,-0.512 -0.054,-0.1707 -0.208,-0.2613 -0.464,-0.272 v -0.144 l 1.6,-0.512 v 0.88 c 0.074,-0.0853 0.17,-0.176 0.288,-0.272 0.117,-0.1067 0.256,-0.2027 0.416,-0.288 0.17,-0.096 0.362,-0.1707 0.576,-0.224 0.224,-0.064 0.485,-0.096 0.784,-0.096 0.501,0 0.928,0.0853 1.28,0.256 0.352,0.1707 0.64,0.3947 0.864,0.672 0.224,0.2667 0.384,0.5653 0.48,0.896 0.106,0.32 0.16,0.6347 0.16,0.944 z m 5.555,1.84 c 0.48,0.0533 0.827,0.1653 1.04,0.336 0.214,0.1813 0.32,0.3787 0.32,0.592 0,0.2773 -0.16,0.5333 -0.48,0.768 -0.309,0.2453 -0.752,0.368 -1.328,0.368 -0.074,0 -0.144,-0.0053 -0.208,-0.016 -0.064,0 -0.128,-0.0053 -0.192,-0.016 -0.032,0 -0.069,-0.0053 -0.112,-0.016 -0.042,0 -0.08,0 -0.112,0 v -0.128 h 0.176 c 0.203,0 0.39,-0.0267 0.56,-0.08 0.182,-0.0427 0.336,-0.1067 0.464,-0.192 0.139,-0.0853 0.246,-0.1813 0.32,-0.288 0.086,-0.096 0.128,-0.2027 0.128,-0.32 0,-0.1707 -0.106,-0.3413 -0.32,-0.512 -0.213,-0.16 -0.517,-0.2667 -0.912,-0.32 l 0.544,-0.88 c -0.512,-0.032 -0.981,-0.1387 -1.408,-0.32 -0.426,-0.1813 -0.794,-0.4267 -1.104,-0.736 -0.309,-0.3093 -0.554,-0.6667 -0.736,-1.072 -0.17,-0.4053 -0.256,-0.848 -0.256,-1.328 0,-0.4587 0.08,-0.896 0.24,-1.312 0.171,-0.416 0.411,-0.784 0.72,-1.104 0.31,-0.32 0.688,-0.576 1.136,-0.768 0.459,-0.192 0.976,-0.288 1.552,-0.288 0.395,0 0.715,0.048 0.96,0.144 0.246,0.0853 0.454,0.1707 0.624,0.256 0.096,0.0533 0.187,0.096 0.272,0.128 0.096,0.032 0.192,0.048 0.288,0.048 v 1.216 h -0.16 c -0.053,-0.2027 -0.149,-0.3787 -0.288,-0.528 -0.138,-0.16 -0.298,-0.2933 -0.48,-0.4 -0.181,-0.1067 -0.378,-0.1867 -0.592,-0.24 -0.213,-0.0533 -0.421,-0.08 -0.624,-0.08 -0.437,0 -0.821,0.08 -1.152,0.24 -0.33,0.1493 -0.602,0.352 -0.816,0.608 -0.213,0.2453 -0.373,0.528 -0.48,0.848 -0.106,0.32 -0.16,0.6507 -0.16,0.992 0,0.3947 0.064,0.784 0.192,1.168 0.128,0.3733 0.31,0.7093 0.544,1.008 0.246,0.2987 0.539,0.5387 0.88,0.72 0.342,0.1813 0.726,0.272 1.152,0.272 h 0.128 c 0.267,0 0.518,-0.0427 0.752,-0.128 0.235,-0.0853 0.438,-0.1973 0.608,-0.336 0.171,-0.1387 0.304,-0.288 0.4,-0.448 0.107,-0.1707 0.171,-0.3307 0.192,-0.48 h 0.16 v 1.248 c -0.085,0 -0.17,0.0213 -0.256,0.064 -0.074,0.032 -0.16,0.0747 -0.256,0.128 -0.17,0.0853 -0.373,0.1813 -0.608,0.288 -0.234,0.1067 -0.533,0.1707 -0.896,0.192 z m 9.833,-1.84 c 0,0.0747 0.011,0.1653 0.032,0.272 0.021,0.096 0.048,0.192 0.08,0.288 0.043,0.0853 0.096,0.16 0.16,0.224 0.064,0.064 0.139,0.096 0.224,0.096 V 50 H 642 v -0.88 c -0.16,0.2347 -0.395,0.464 -0.704,0.688 -0.309,0.224 -0.709,0.336 -1.2,0.336 -0.619,0 -1.109,-0.1067 -1.472,-0.32 -0.363,-0.2133 -0.64,-0.4853 -0.832,-0.816 -0.192,-0.3307 -0.315,-0.688 -0.368,-1.072 -0.053,-0.3947 -0.08,-0.7627 -0.08,-1.104 v -2.288 c 0,-0.096 -0.005,-0.1867 -0.016,-0.272 0,-0.096 -0.021,-0.1813 -0.064,-0.256 -0.032,-0.0747 -0.085,-0.1333 -0.16,-0.176 -0.075,-0.0533 -0.181,-0.08 -0.32,-0.08 v -0.144 l 1.616,-0.512 v 4.08 c 0,0.8107 0.176,1.408 0.528,1.792 0.352,0.384 0.784,0.576 1.296,0.576 0.277,0 0.523,-0.0587 0.736,-0.176 0.224,-0.128 0.411,-0.2773 0.56,-0.448 0.16,-0.1707 0.277,-0.3467 0.352,-0.528 0.085,-0.1813 0.128,-0.3307 0.128,-0.448 v -3.408 c 0,-0.096 -0.005,-0.1867 -0.016,-0.272 0,-0.096 -0.021,-0.1813 -0.064,-0.256 -0.032,-0.0747 -0.085,-0.1333 -0.16,-0.176 -0.075,-0.0533 -0.181,-0.08 -0.32,-0.08 v -0.144 l 1.616,-0.512 z M 654.355,50 v -0.704 c -0.181,0.2027 -0.427,0.3893 -0.736,0.56 -0.299,0.1707 -0.677,0.256 -1.136,0.256 -0.565,0 -1.061,-0.096 -1.488,-0.288 -0.416,-0.2027 -0.763,-0.464 -1.04,-0.784 -0.277,-0.32 -0.485,-0.6827 -0.624,-1.088 -0.128,-0.416 -0.192,-0.8427 -0.192,-1.28 0,-0.4267 0.069,-0.848 0.208,-1.264 0.139,-0.4267 0.347,-0.8053 0.624,-1.136 0.277,-0.3307 0.624,-0.5973 1.04,-0.8 0.416,-0.2027 0.896,-0.304 1.44,-0.304 0.363,0 0.72,0.0693 1.072,0.208 0.352,0.128 0.629,0.2987 0.832,0.512 v -3.12 c 0,-0.1813 -0.027,-0.352 -0.08,-0.512 -0.053,-0.16 -0.208,-0.2453 -0.464,-0.256 v -0.16 l 1.6,-0.496 v 9.616 c 0,0.0853 0.011,0.1813 0.032,0.288 0.021,0.096 0.053,0.1867 0.096,0.272 0.043,0.0853 0.096,0.16 0.16,0.224 0.064,0.064 0.139,0.096 0.224,0.096 V 50 Z m -1.76,-0.416 c 0.224,0 0.443,-0.0427 0.656,-0.128 0.213,-0.096 0.4,-0.2187 0.56,-0.368 0.16,-0.16 0.288,-0.3413 0.384,-0.544 0.107,-0.2133 0.16,-0.4427 0.16,-0.688 v -2.192 c 0,-0.2987 -0.064,-0.5653 -0.192,-0.8 -0.128,-0.2453 -0.288,-0.4533 -0.48,-0.624 -0.192,-0.1707 -0.405,-0.2987 -0.64,-0.384 -0.224,-0.096 -0.443,-0.144 -0.656,-0.144 -0.352,0 -0.667,0.0853 -0.944,0.256 -0.277,0.16 -0.512,0.3733 -0.704,0.64 -0.192,0.256 -0.336,0.5493 -0.432,0.88 -0.096,0.32 -0.144,0.64 -0.144,0.96 0,0.3733 0.053,0.7467 0.16,1.12 0.107,0.3627 0.261,0.6933 0.464,0.992 0.213,0.288 0.469,0.528 0.768,0.72 0.299,0.192 0.645,0.2933 1.04,0.304 z m 5.755,-2.816 c 0.043,0.3733 0.133,0.7307 0.272,1.072 0.139,0.3307 0.32,0.624 0.544,0.88 0.235,0.256 0.517,0.464 0.848,0.624 0.331,0.1493 0.715,0.224 1.152,0.224 0.235,0 0.48,-0.032 0.736,-0.096 0.267,-0.0747 0.512,-0.176 0.736,-0.304 0.224,-0.128 0.421,-0.2827 0.592,-0.464 0.181,-0.192 0.304,-0.4053 0.368,-0.64 h 0.144 v 1.2 c -0.064,0 -0.139,0.0213 -0.224,0.064 -0.075,0.0427 -0.165,0.096 -0.272,0.16 -0.213,0.128 -0.501,0.2667 -0.864,0.416 -0.363,0.1387 -0.843,0.208 -1.44,0.208 -0.48,0 -0.939,-0.0693 -1.376,-0.208 -0.427,-0.1387 -0.805,-0.352 -1.136,-0.64 -0.331,-0.288 -0.597,-0.656 -0.8,-1.104 -0.192,-0.448 -0.288,-0.9813 -0.288,-1.6 0,-0.3947 0.064,-0.7947 0.192,-1.2 0.139,-0.4053 0.341,-0.768 0.608,-1.088 0.277,-0.3307 0.629,-0.5973 1.056,-0.8 0.427,-0.2027 0.939,-0.304 1.536,-0.304 0.533,0 0.997,0.0907 1.392,0.272 0.405,0.1813 0.736,0.432 0.992,0.752 0.267,0.32 0.464,0.6987 0.592,1.136 0.128,0.4373 0.192,0.9173 0.192,1.44 z m 2.32,-3.072 c -0.373,0 -0.699,0.0747 -0.976,0.224 -0.267,0.1493 -0.496,0.3413 -0.688,0.576 -0.192,0.2347 -0.341,0.5013 -0.448,0.8 -0.107,0.2987 -0.176,0.5973 -0.208,0.896 h 4.56 c -0.011,-0.3093 -0.069,-0.6133 -0.176,-0.912 -0.096,-0.2987 -0.235,-0.5653 -0.416,-0.8 -0.181,-0.2347 -0.411,-0.4213 -0.688,-0.56 -0.277,-0.1493 -0.597,-0.224 -0.96,-0.224 z m 10.21,0.128 v 5.136 c 0,0.0853 0.011,0.1813 0.032,0.288 0.021,0.096 0.053,0.1867 0.096,0.272 0.053,0.0853 0.107,0.16 0.16,0.224 0.064,0.064 0.139,0.096 0.224,0.096 V 50 h -2.08 v -0.16 c 0.075,0 0.144,-0.032 0.208,-0.096 0.064,-0.064 0.117,-0.1387 0.16,-0.224 0.053,-0.0853 0.091,-0.176 0.112,-0.272 0.021,-0.1067 0.032,-0.2027 0.032,-0.288 v -5.136 h -0.8 V 43.28 h 0.8 v -1.296 c 0,-0.3307 0.011,-0.6507 0.032,-0.96 0.021,-0.3093 0.085,-0.5867 0.192,-0.832 0.107,-0.2453 0.267,-0.4427 0.48,-0.592 0.224,-0.1493 0.528,-0.224 0.912,-0.224 0.213,0 0.395,0.0267 0.544,0.08 0.16,0.0427 0.293,0.096 0.4,0.16 0.117,0.0533 0.213,0.1067 0.288,0.16 0.075,0.0427 0.139,0.064 0.192,0.064 v 1.168 h -0.144 c -0.053,-0.3093 -0.192,-0.5653 -0.416,-0.768 -0.224,-0.2133 -0.448,-0.32 -0.672,-0.32 -0.309,0 -0.512,0.1653 -0.608,0.496 -0.096,0.32 -0.144,0.768 -0.144,1.344 v 1.52 h 1.808 v 0.544 z M 678.1,50 v -0.816 l -0.08,0.08 c -0.266,0.2667 -0.576,0.4747 -0.928,0.624 -0.341,0.1493 -0.757,0.224 -1.248,0.224 -0.373,0 -0.693,-0.0427 -0.96,-0.128 -0.266,-0.0853 -0.485,-0.2027 -0.656,-0.352 -0.17,-0.16 -0.298,-0.3413 -0.384,-0.544 -0.074,-0.2027 -0.112,-0.416 -0.112,-0.64 0,-0.3627 0.096,-0.6827 0.288,-0.96 0.203,-0.2773 0.491,-0.5227 0.864,-0.736 0.374,-0.2133 0.827,-0.4053 1.36,-0.576 0.544,-0.1813 1.163,-0.3573 1.856,-0.528 -0.021,-0.416 -0.106,-0.752 -0.256,-1.008 -0.149,-0.256 -0.325,-0.4533 -0.528,-0.592 -0.202,-0.1493 -0.416,-0.2453 -0.64,-0.288 -0.224,-0.0533 -0.416,-0.08 -0.576,-0.08 -0.277,0 -0.522,0.0427 -0.736,0.128 -0.202,0.0853 -0.384,0.1973 -0.544,0.336 -0.149,0.128 -0.277,0.272 -0.384,0.432 -0.106,0.1493 -0.192,0.2933 -0.256,0.432 h -0.144 V 43.84 c 0.086,-0.0107 0.166,-0.0373 0.24,-0.08 0.075,-0.0427 0.166,-0.0853 0.272,-0.128 0.16,-0.064 0.379,-0.1547 0.656,-0.272 0.278,-0.128 0.667,-0.192 1.168,-0.192 0.587,0 1.062,0.0747 1.424,0.224 0.363,0.1493 0.64,0.3467 0.832,0.592 0.203,0.2453 0.336,0.528 0.4,0.848 0.064,0.3093 0.096,0.6293 0.096,0.96 v 3.168 c 0,0.2133 0.048,0.416 0.144,0.608 0.096,0.1813 0.224,0.272 0.384,0.272 V 50 Z m 0,-1.52 v -2.288 l -0.16,0.032 c -0.256,0.064 -0.57,0.1493 -0.944,0.256 -0.362,0.1067 -0.709,0.2453 -1.04,0.416 -0.33,0.1707 -0.613,0.3733 -0.848,0.608 -0.234,0.2347 -0.352,0.5067 -0.352,0.816 0,0.3413 0.139,0.624 0.416,0.848 0.278,0.224 0.64,0.336 1.088,0.336 0.352,0 0.662,-0.0747 0.928,-0.224 0.267,-0.16 0.512,-0.3627 0.736,-0.608 z m 6.561,2.32 c 0.48,0.0533 0.826,0.1653 1.04,0.336 0.213,0.1813 0.32,0.3787 0.32,0.592 0,0.2773 -0.16,0.5333 -0.48,0.768 -0.31,0.2453 -0.752,0.368 -1.328,0.368 -0.075,0 -0.144,-0.0053 -0.208,-0.016 -0.064,0 -0.128,-0.0053 -0.192,-0.016 -0.032,0 -0.07,-0.0053 -0.112,-0.016 -0.043,0 -0.08,0 -0.112,0 v -0.128 h 0.176 c 0.202,0 0.389,-0.0267 0.56,-0.08 0.181,-0.0427 0.336,-0.1067 0.464,-0.192 0.138,-0.0853 0.245,-0.1813 0.32,-0.288 0.085,-0.096 0.128,-0.2027 0.128,-0.32 0,-0.1707 -0.107,-0.3413 -0.32,-0.512 -0.214,-0.16 -0.518,-0.2667 -0.912,-0.32 l 0.544,-0.88 c -0.512,-0.032 -0.982,-0.1387 -1.408,-0.32 -0.427,-0.1813 -0.795,-0.4267 -1.104,-0.736 -0.31,-0.3093 -0.555,-0.6667 -0.736,-1.072 -0.171,-0.4053 -0.256,-0.848 -0.256,-1.328 0,-0.4587 0.08,-0.896 0.24,-1.312 0.17,-0.416 0.41,-0.784 0.72,-1.104 0.309,-0.32 0.688,-0.576 1.136,-0.768 0.458,-0.192 0.976,-0.288 1.552,-0.288 0.394,0 0.714,0.048 0.96,0.144 0.245,0.0853 0.453,0.1707 0.624,0.256 0.096,0.0533 0.186,0.096 0.272,0.128 0.096,0.032 0.192,0.048 0.288,0.048 v 1.216 h -0.16 c -0.054,-0.2027 -0.15,-0.3787 -0.288,-0.528 -0.139,-0.16 -0.299,-0.2933 -0.48,-0.4 -0.182,-0.1067 -0.379,-0.1867 -0.592,-0.24 -0.214,-0.0533 -0.422,-0.08 -0.624,-0.08 -0.438,0 -0.822,0.08 -1.152,0.24 -0.331,0.1493 -0.603,0.352 -0.816,0.608 -0.214,0.2453 -0.374,0.528 -0.48,0.848 -0.107,0.32 -0.16,0.6507 -0.16,0.992 0,0.3947 0.064,0.784 0.192,1.168 0.128,0.3733 0.309,0.7093 0.544,1.008 0.245,0.2987 0.538,0.5387 0.88,0.72 0.341,0.1813 0.725,0.272 1.152,0.272 h 0.128 c 0.266,0 0.517,-0.0427 0.752,-0.128 0.234,-0.0853 0.437,-0.1973 0.608,-0.336 0.17,-0.1387 0.304,-0.288 0.4,-0.448 0.106,-0.1707 0.17,-0.3307 0.192,-0.48 h 0.16 v 1.248 c -0.086,0 -0.171,0.0213 -0.256,0.064 -0.075,0.032 -0.16,0.0747 -0.256,0.128 -0.171,0.0853 -0.374,0.1813 -0.608,0.288 -0.235,0.1067 -0.534,0.1707 -0.896,0.192 z m 6.856,-0.688 c -0.533,0 -1.013,-0.0853 -1.439,-0.256 -0.427,-0.1813 -0.795,-0.4213 -1.104,-0.72 -0.299,-0.3093 -0.534,-0.672 -0.704,-1.088 -0.161,-0.416 -0.24,-0.8693 -0.24,-1.36 0,-0.5227 0.09,-0.9973 0.272,-1.424 0.181,-0.4373 0.432,-0.8107 0.752,-1.12 0.319,-0.3093 0.698,-0.5493 1.136,-0.72 0.437,-0.1707 0.912,-0.256 1.424,-0.256 0.512,0 0.981,0.0853 1.408,0.256 0.426,0.16 0.794,0.3893 1.104,0.688 0.309,0.2987 0.549,0.656 0.719,1.072 0.171,0.4053 0.257,0.8533 0.257,1.344 0,0.4587 -0.08,0.9067 -0.241,1.344 -0.149,0.4267 -0.378,0.8053 -0.687,1.136 -0.299,0.3307 -0.672,0.5973 -1.12,0.8 -0.438,0.2027 -0.95,0.304 -1.537,0.304 z m -0.096,-6.416 c -0.384,0.0213 -0.725,0.1173 -1.023,0.288 -0.289,0.16 -0.534,0.3733 -0.737,0.64 -0.191,0.256 -0.341,0.5493 -0.447,0.88 -0.097,0.3307 -0.145,0.6667 -0.145,1.008 0,0.3947 0.059,0.7787 0.176,1.152 0.128,0.3627 0.304,0.688 0.528,0.976 0.235,0.288 0.513,0.5173 0.832,0.688 0.32,0.1707 0.678,0.256 1.072,0.256 0.395,0 0.742,-0.0853 1.041,-0.256 0.309,-0.1707 0.565,-0.3893 0.767,-0.656 0.203,-0.2773 0.353,-0.5867 0.448,-0.928 0.107,-0.3413 0.161,-0.6827 0.161,-1.024 0,-0.352 -0.054,-0.704 -0.161,-1.056 -0.106,-0.3627 -0.272,-0.688 -0.495,-0.976 -0.224,-0.2987 -0.507,-0.5387 -0.849,-0.72 -0.33,-0.1813 -0.719,-0.272 -1.168,-0.272 z m 11.543,5.264 c 0,0.0853 0.011,0.1813 0.033,0.288 0.021,0.096 0.053,0.1867 0.096,0.272 0.053,0.0853 0.106,0.16 0.16,0.224 0.064,0.064 0.138,0.096 0.224,0.096 V 50 h -2.065 v -0.16 c 0.075,0 0.144,-0.032 0.209,-0.096 0.064,-0.064 0.117,-0.1387 0.159,-0.224 0.054,-0.0853 0.091,-0.176 0.112,-0.272 0.022,-0.1067 0.032,-0.2027 0.032,-0.288 v -2.976 c 0,-0.384 -0.053,-0.72 -0.159,-1.008 -0.107,-0.288 -0.251,-0.528 -0.433,-0.72 -0.181,-0.192 -0.389,-0.3307 -0.624,-0.416 -0.224,-0.096 -0.453,-0.144 -0.687,-0.144 -0.235,0 -0.47,0.048 -0.705,0.144 -0.224,0.096 -0.426,0.224 -0.608,0.384 -0.17,0.1493 -0.314,0.3307 -0.432,0.544 -0.106,0.2027 -0.16,0.416 -0.16,0.64 v 3.552 c 0,0.0853 0.011,0.1813 0.032,0.288 0.022,0.096 0.054,0.1867 0.096,0.272 0.054,0.0853 0.107,0.16 0.161,0.224 0.063,0.064 0.138,0.096 0.223,0.096 V 50 h -2.079 v -0.16 c 0.074,0 0.143,-0.032 0.208,-0.096 0.064,-0.064 0.117,-0.1387 0.159,-0.224 0.054,-0.0853 0.091,-0.176 0.112,-0.272 0.022,-0.1067 0.033,-0.2027 0.033,-0.288 v -4.416 c 0,-0.1813 -0.027,-0.352 -0.081,-0.512 -0.053,-0.1707 -0.208,-0.2613 -0.464,-0.272 v -0.144 l 1.6,-0.512 v 0.88 c 0.075,-0.0853 0.171,-0.176 0.289,-0.272 0.117,-0.1067 0.256,-0.2027 0.415,-0.288 0.171,-0.096 0.363,-0.1707 0.577,-0.224 0.224,-0.064 0.485,-0.096 0.784,-0.096 0.501,0 0.928,0.0853 1.279,0.256 0.352,0.1707 0.641,0.3947 0.865,0.672 0.224,0.2667 0.383,0.5653 0.48,0.896 0.106,0.32 0.159,0.6347 0.159,0.944 z M 819.163,50 v -0.816 l -0.08,0.08 c -0.267,0.2667 -0.576,0.4747 -0.928,0.624 -0.342,0.1493 -0.758,0.224 -1.248,0.224 -0.374,0 -0.694,-0.0427 -0.96,-0.128 -0.267,-0.0853 -0.486,-0.2027 -0.656,-0.352 -0.171,-0.16 -0.299,-0.3413 -0.384,-0.544 -0.075,-0.2027 -0.112,-0.416 -0.112,-0.64 0,-0.3627 0.096,-0.6827 0.288,-0.96 0.202,-0.2773 0.49,-0.5227 0.864,-0.736 0.373,-0.2133 0.826,-0.4053 1.36,-0.576 0.544,-0.1813 1.162,-0.3573 1.856,-0.528 -0.022,-0.416 -0.107,-0.752 -0.256,-1.008 -0.15,-0.256 -0.326,-0.4533 -0.528,-0.592 -0.203,-0.1493 -0.416,-0.2453 -0.64,-0.288 -0.224,-0.0533 -0.416,-0.08 -0.576,-0.08 -0.278,0 -0.523,0.0427 -0.736,0.128 -0.203,0.0853 -0.384,0.1973 -0.544,0.336 -0.15,0.128 -0.278,0.272 -0.384,0.432 -0.107,0.1493 -0.192,0.2933 -0.256,0.432 h -0.144 V 43.84 c 0.085,-0.0107 0.165,-0.0373 0.24,-0.08 0.074,-0.0427 0.165,-0.0853 0.272,-0.128 0.16,-0.064 0.378,-0.1547 0.656,-0.272 0.277,-0.128 0.666,-0.192 1.168,-0.192 0.586,0 1.061,0.0747 1.424,0.224 0.362,0.1493 0.64,0.3467 0.832,0.592 0.202,0.2453 0.336,0.528 0.4,0.848 0.064,0.3093 0.096,0.6293 0.096,0.96 v 3.168 c 0,0.2133 0.048,0.416 0.144,0.608 0.096,0.1813 0.224,0.272 0.384,0.272 V 50 Z m 0,-1.52 v -2.288 l -0.16,0.032 c -0.256,0.064 -0.571,0.1493 -0.944,0.256 -0.363,0.1067 -0.71,0.2453 -1.04,0.416 -0.331,0.1707 -0.614,0.3733 -0.848,0.608 -0.235,0.2347 -0.352,0.5067 -0.352,0.816 0,0.3413 0.138,0.624 0.416,0.848 0.277,0.224 0.64,0.336 1.088,0.336 0.352,0 0.661,-0.0747 0.928,-0.224 0.266,-0.16 0.512,-0.3627 0.736,-0.608 z m 0.016,-5.552 -2.656,-1.088 0.416,-0.72 2.272,1.712 z m 8.909,6.912 h 0.08 V 50 h -1.777 v -0.16 h 0.08 c 0.075,0 0.144,-0.032 0.208,-0.096 0.075,-0.064 0.134,-0.1387 0.176,-0.224 0.043,-0.0853 0.075,-0.176 0.097,-0.272 C 826.984,49.1413 827,49.0453 827,48.96 v -8.528 c 0,-0.0747 -0.011,-0.16 -0.033,-0.256 -0.01,-0.096 -0.037,-0.1867 -0.079,-0.272 -0.043,-0.0853 -0.102,-0.1547 -0.176,-0.208 -0.075,-0.064 -0.166,-0.096 -0.273,-0.096 h -0.08 v -0.16 h 1.617 l 5.807,9.152 v -8.16 c 0,-0.0747 -0.016,-0.16 -0.047,-0.256 -0.022,-0.096 -0.059,-0.1867 -0.113,-0.272 -0.042,-0.0853 -0.095,-0.1547 -0.159,-0.208 -0.065,-0.064 -0.139,-0.096 -0.224,-0.096 h -0.08 v -0.16 h 1.791 v 0.16 h -0.079 c -0.086,0 -0.16,0.032 -0.224,0.096 -0.065,0.0533 -0.123,0.1227 -0.176,0.208 -0.043,0.0853 -0.075,0.176 -0.097,0.272 -0.021,0.096 -0.031,0.1813 -0.031,0.256 V 50 h -0.992 l -5.793,-9.184 v 8.144 c 0,0.0853 0.011,0.1813 0.033,0.288 0.021,0.096 0.053,0.1867 0.096,0.272 0.053,0.0853 0.111,0.16 0.176,0.224 0.064,0.064 0.138,0.096 0.224,0.096 z m 12.59,0.16 v -0.816 l -0.08,0.08 c -0.266,0.2667 -0.576,0.4747 -0.928,0.624 -0.341,0.1493 -0.757,0.224 -1.248,0.224 -0.373,0 -0.693,-0.0427 -0.96,-0.128 -0.266,-0.0853 -0.485,-0.2027 -0.656,-0.352 -0.17,-0.16 -0.298,-0.3413 -0.384,-0.544 -0.074,-0.2027 -0.112,-0.416 -0.112,-0.64 0,-0.3627 0.096,-0.6827 0.288,-0.96 0.203,-0.2773 0.491,-0.5227 0.864,-0.736 0.374,-0.2133 0.827,-0.4053 1.36,-0.576 0.544,-0.1813 1.163,-0.3573 1.856,-0.528 -0.021,-0.416 -0.106,-0.752 -0.256,-1.008 -0.149,-0.256 -0.325,-0.4533 -0.528,-0.592 -0.202,-0.1493 -0.416,-0.2453 -0.64,-0.288 -0.224,-0.0533 -0.416,-0.08 -0.576,-0.08 -0.277,0 -0.522,0.0427 -0.736,0.128 -0.202,0.0853 -0.384,0.1973 -0.544,0.336 -0.149,0.128 -0.277,0.272 -0.384,0.432 -0.106,0.1493 -0.192,0.2933 -0.256,0.432 h -0.144 V 43.84 c 0.086,-0.0107 0.166,-0.0373 0.24,-0.08 0.075,-0.0427 0.166,-0.0853 0.272,-0.128 0.16,-0.064 0.379,-0.1547 0.656,-0.272 0.278,-0.128 0.667,-0.192 1.168,-0.192 0.587,0 1.062,0.0747 1.424,0.224 0.363,0.1493 0.64,0.3467 0.832,0.592 0.203,0.2453 0.336,0.528 0.4,0.848 0.064,0.3093 0.096,0.6293 0.096,0.96 v 3.168 c 0,0.2133 0.048,0.416 0.144,0.608 0.096,0.1813 0.224,0.272 0.384,0.272 V 50 Z m 0,-1.52 v -2.288 l -0.16,0.032 c -0.256,0.064 -0.57,0.1493 -0.944,0.256 -0.362,0.1067 -0.709,0.2453 -1.04,0.416 -0.33,0.1707 -0.613,0.3733 -0.848,0.608 -0.234,0.2347 -0.352,0.5067 -0.352,0.816 0,0.3413 0.139,0.624 0.416,0.848 0.278,0.224 0.64,0.336 1.088,0.336 0.352,0 0.662,-0.0747 0.928,-0.224 0.267,-0.16 0.512,-0.3627 0.736,-0.608 z m 9.521,0.48 c 0,0.0853 0.011,0.1813 0.032,0.288 0.021,0.096 0.053,0.1867 0.096,0.272 0.053,0.0853 0.107,0.16 0.16,0.224 0.064,0.064 0.139,0.096 0.224,0.096 V 50 h -2.064 v -0.16 c 0.075,0 0.144,-0.032 0.208,-0.096 0.064,-0.064 0.117,-0.1387 0.16,-0.224 0.053,-0.0853 0.091,-0.176 0.112,-0.272 0.021,-0.1067 0.032,-0.2027 0.032,-0.288 v -2.976 c 0,-0.384 -0.053,-0.72 -0.16,-1.008 -0.107,-0.288 -0.251,-0.528 -0.432,-0.72 -0.181,-0.192 -0.389,-0.3307 -0.624,-0.416 -0.224,-0.096 -0.453,-0.144 -0.688,-0.144 -0.235,0 -0.469,0.048 -0.704,0.144 -0.224,0.096 -0.427,0.224 -0.608,0.384 -0.171,0.1493 -0.315,0.3307 -0.432,0.544 -0.107,0.2027 -0.16,0.416 -0.16,0.64 v 3.552 c 0,0.0853 0.011,0.1813 0.032,0.288 0.021,0.096 0.053,0.1867 0.096,0.272 0.053,0.0853 0.107,0.16 0.16,0.224 0.064,0.064 0.139,0.096 0.224,0.096 V 50 h -2.08 v -0.16 c 0.075,0 0.144,-0.032 0.208,-0.096 0.064,-0.064 0.117,-0.1387 0.16,-0.224 0.053,-0.0853 0.091,-0.176 0.112,-0.272 0.021,-0.1067 0.032,-0.2027 0.032,-0.288 v -4.416 c 0,-0.1813 -0.027,-0.352 -0.08,-0.512 -0.053,-0.1707 -0.208,-0.2613 -0.464,-0.272 v -0.144 l 1.6,-0.512 v 0.88 c 0.075,-0.0853 0.171,-0.176 0.288,-0.272 0.117,-0.1067 0.256,-0.2027 0.416,-0.288 0.171,-0.096 0.363,-0.1707 0.576,-0.224 0.224,-0.064 0.485,-0.096 0.784,-0.096 0.501,0 0.928,0.0853 1.28,0.256 0.352,0.1707 0.64,0.3947 0.864,0.672 0.224,0.2667 0.384,0.5653 0.48,0.896 0.107,0.32 0.16,0.6347 0.16,0.944 z m 3.652,-5.136 v 3.856 c 0,0.2773 0.005,0.528 0.015,0.752 0.011,0.224 0.038,0.4107 0.081,0.56 0.042,0.1493 0.106,0.2667 0.191,0.352 0.086,0.0747 0.203,0.112 0.352,0.112 0.224,0 0.432,-0.1067 0.625,-0.32 0.202,-0.2133 0.33,-0.4693 0.384,-0.768 h 0.143 v 1.168 c -0.096,0 -0.175,0.032 -0.24,0.096 -0.085,0.0747 -0.208,0.1547 -0.368,0.24 -0.149,0.0853 -0.378,0.128 -0.688,0.128 -0.383,0 -0.682,-0.0747 -0.895,-0.224 -0.214,-0.1493 -0.369,-0.3467 -0.464,-0.592 -0.097,-0.2453 -0.155,-0.5173 -0.176,-0.816 -0.011,-0.2987 -0.017,-0.6027 -0.017,-0.912 v -3.632 h -0.896 V 43.28 h 0.896 v -1.424 c 0,-0.1813 -0.026,-0.3467 -0.08,-0.496 -0.042,-0.16 -0.197,-0.2453 -0.463,-0.256 v -0.16 l 1.6,-0.512 v 2.848 h 1.791 v 0.544 z m 3.874,2.944 c 0.043,0.3733 0.133,0.7307 0.272,1.072 0.139,0.3307 0.32,0.624 0.544,0.88 0.235,0.256 0.517,0.464 0.848,0.624 0.331,0.1493 0.715,0.224 1.152,0.224 0.235,0 0.48,-0.032 0.736,-0.096 0.267,-0.0747 0.512,-0.176 0.736,-0.304 0.224,-0.128 0.421,-0.2827 0.592,-0.464 0.181,-0.192 0.304,-0.4053 0.368,-0.64 h 0.144 v 1.2 c -0.064,0 -0.139,0.0213 -0.224,0.064 -0.075,0.0427 -0.165,0.096 -0.272,0.16 -0.213,0.128 -0.501,0.2667 -0.864,0.416 -0.363,0.1387 -0.843,0.208 -1.44,0.208 -0.48,0 -0.939,-0.0693 -1.376,-0.208 -0.427,-0.1387 -0.805,-0.352 -1.136,-0.64 -0.331,-0.288 -0.597,-0.656 -0.8,-1.104 -0.192,-0.448 -0.288,-0.9813 -0.288,-1.6 0,-0.3947 0.064,-0.7947 0.192,-1.2 0.139,-0.4053 0.341,-0.768 0.608,-1.088 0.277,-0.3307 0.629,-0.5973 1.056,-0.8 0.427,-0.2027 0.939,-0.304 1.536,-0.304 0.533,0 0.997,0.0907 1.392,0.272 0.405,0.1813 0.736,0.432 0.992,0.752 0.267,0.32 0.464,0.6987 0.592,1.136 0.128,0.4373 0.192,0.9173 0.192,1.44 z m 2.32,-3.072 c -0.373,0 -0.699,0.0747 -0.976,0.224 -0.267,0.1493 -0.496,0.3413 -0.688,0.576 -0.192,0.2347 -0.341,0.5013 -0.448,0.8 -0.107,0.2987 -0.176,0.5973 -0.208,0.896 h 4.56 c -0.011,-0.3093 -0.069,-0.6133 -0.176,-0.912 -0.096,-0.2987 -0.235,-0.5653 -0.416,-0.8 -0.181,-0.2347 -0.411,-0.4213 -0.688,-0.56 -0.277,-0.1493 -0.597,-0.224 -0.96,-0.224 z m 9.297,4.48 c 0,0.2773 -0.069,0.5333 -0.208,0.768 -0.139,0.2347 -0.331,0.4427 -0.576,0.624 -0.235,0.1707 -0.512,0.3093 -0.832,0.416 -0.32,0.096 -0.667,0.144 -1.04,0.144 -0.459,0 -0.832,-0.0587 -1.12,-0.176 -0.288,-0.128 -0.533,-0.256 -0.736,-0.384 -0.139,-0.0853 -0.267,-0.1547 -0.384,-0.208 -0.117,-0.064 -0.245,-0.096 -0.384,-0.096 v -1.216 h 0.16 c 0.032,0.1493 0.123,0.3147 0.272,0.496 0.16,0.1707 0.347,0.3307 0.56,0.48 0.224,0.1493 0.464,0.2773 0.72,0.384 0.267,0.096 0.533,0.144 0.8,0.144 0.192,0 0.389,-0.0213 0.592,-0.064 0.203,-0.0427 0.384,-0.112 0.544,-0.208 0.171,-0.096 0.309,-0.2133 0.416,-0.352 0.117,-0.1493 0.176,-0.3253 0.176,-0.528 0,-0.2027 -0.059,-0.3787 -0.176,-0.528 -0.117,-0.1493 -0.267,-0.2773 -0.448,-0.384 -0.181,-0.1173 -0.389,-0.2187 -0.624,-0.304 -0.235,-0.0853 -0.469,-0.1653 -0.704,-0.24 -0.277,-0.0853 -0.56,-0.1813 -0.848,-0.288 -0.277,-0.1067 -0.528,-0.2293 -0.752,-0.368 -0.224,-0.1493 -0.405,-0.3253 -0.544,-0.528 -0.139,-0.2133 -0.208,-0.464 -0.208,-0.752 0,-0.2453 0.043,-0.48 0.128,-0.704 0.096,-0.224 0.245,-0.416 0.448,-0.576 0.213,-0.1707 0.485,-0.304 0.816,-0.4 0.331,-0.1067 0.731,-0.16 1.2,-0.16 0.416,0 0.736,0.0373 0.96,0.112 0.235,0.064 0.427,0.1333 0.576,0.208 0.096,0.0533 0.192,0.096 0.288,0.128 0.096,0.0213 0.203,0.032 0.32,0.032 v 1.12 h -0.128 c -0.192,-0.352 -0.485,-0.6187 -0.88,-0.8 -0.395,-0.1813 -0.8,-0.272 -1.216,-0.272 -0.267,0 -0.496,0.0373 -0.688,0.112 -0.192,0.064 -0.352,0.1493 -0.48,0.256 -0.117,0.096 -0.208,0.208 -0.272,0.336 -0.053,0.128 -0.08,0.256 -0.08,0.384 0,0.1813 0.048,0.336 0.144,0.464 0.107,0.128 0.245,0.24 0.416,0.336 0.181,0.096 0.379,0.1867 0.592,0.272 0.224,0.0853 0.459,0.1653 0.704,0.24 0.299,0.096 0.597,0.2027 0.896,0.32 0.299,0.1067 0.565,0.24 0.8,0.4 0.235,0.16 0.427,0.352 0.576,0.576 0.149,0.2133 0.224,0.4747 0.224,0.784 z"
       inkscape:connector-curvature="0" />
    <path
       id="path2_fill"
       d="m 706.436,54.64 c -0.448,0 -0.794,-0.08 -1.04,-0.24 -0.256,-0.16 -0.384,-0.3467 -0.384,-0.56 0,-0.2133 0.091,-0.4107 0.272,-0.592 0.182,-0.1707 0.347,-0.256 0.496,-0.256 0.128,0 0.24,0.0373 0.336,0.112 0.086,0.0747 0.198,0.192 0.336,0.352 0.107,0.128 0.214,0.224 0.32,0.288 0.107,0.0747 0.235,0.112 0.384,0.112 0.256,0 0.491,-0.16 0.704,-0.48 0.203,-0.32 0.395,-0.768 0.576,-1.344 l 2.096,-6.416 c 0.054,-0.1493 0.08,-0.2827 0.08,-0.4 0,-0.16 -0.064,-0.24 -0.192,-0.24 -0.181,0 -0.485,0.1067 -0.912,0.32 -0.064,0.0213 -0.112,0.032 -0.144,0.032 -0.128,0 -0.192,-0.0533 -0.192,-0.16 0,-0.0533 0.022,-0.1067 0.064,-0.16 0.054,-0.064 0.123,-0.128 0.208,-0.192 0.31,-0.256 0.651,-0.4853 1.024,-0.688 0.374,-0.2027 0.832,-0.4267 1.376,-0.672 l 0.592,-0.272 c 0.139,-0.0427 0.278,0 0.416,0.128 0.139,0.1173 0.187,0.24 0.144,0.368 l -0.208,0.544 c -0.234,0.5867 -0.389,1.008 -0.464,1.264 l -1.936,5.856 c -0.181,0.5547 -0.517,1.0827 -1.008,1.584 -0.48,0.512 -0.997,0.9227 -1.552,1.232 -0.565,0.32 -1.029,0.48 -1.392,0.48 z m 6.176,-12.784 c -0.213,0 -0.394,-0.08 -0.544,-0.24 -0.138,-0.16 -0.208,-0.3467 -0.208,-0.56 0,-0.3307 0.112,-0.6187 0.336,-0.864 0.235,-0.256 0.523,-0.384 0.864,-0.384 0.214,0 0.384,0.0907 0.512,0.272 0.139,0.1707 0.208,0.3733 0.208,0.608 0,0.3093 -0.117,0.5813 -0.352,0.816 -0.234,0.2347 -0.506,0.352 -0.816,0.352 z m 2.143,8.368 c -0.234,0 -0.447,-0.1227 -0.64,-0.368 -0.191,-0.2453 -0.288,-0.4907 -0.288,-0.736 0,-0.0853 0.017,-0.1653 0.049,-0.24 l 1.568,-3.616 c 0.074,-0.192 0.112,-0.32 0.112,-0.384 0,-0.1067 -0.043,-0.16 -0.128,-0.16 -0.086,0 -0.262,0.096 -0.528,0.288 -0.267,0.1813 -0.497,0.3573 -0.688,0.528 -0.086,0.0853 -0.171,0.128 -0.256,0.128 -0.086,0 -0.129,-0.0373 -0.129,-0.112 0,-0.1707 0.086,-0.3573 0.257,-0.56 0.437,-0.5547 0.917,-0.9973 1.439,-1.328 0.534,-0.3413 1.009,-0.512 1.424,-0.512 0.161,0 0.315,0.0907 0.464,0.272 0.15,0.1707 0.224,0.3467 0.224,0.528 0,0.0533 -0.01,0.112 -0.032,0.176 -0.213,0.4267 -0.506,1.0667 -0.879,1.92 l -0.961,2.064 c -0.085,0.192 -0.128,0.3467 -0.128,0.464 0,0.1493 0.059,0.224 0.177,0.224 0.138,0 0.352,-0.1653 0.639,-0.496 0.289,-0.3307 0.742,-0.8853 1.361,-1.664 0.362,-0.448 0.725,-0.928 1.087,-1.44 0.363,-0.5227 0.646,-0.9493 0.848,-1.28 0.16,-0.256 0.299,-0.4427 0.416,-0.56 0.118,-0.128 0.241,-0.192 0.368,-0.192 0.192,0 0.368,0.0853 0.529,0.256 0.159,0.16 0.24,0.3253 0.24,0.496 0,0.032 -0.011,0.08 -0.033,0.144 l -1.744,4.32 c -0.042,0.096 -0.064,0.192 -0.064,0.288 0,0.1067 0.038,0.16 0.112,0.16 0.139,0 0.4,-0.1387 0.785,-0.416 0.394,-0.2773 0.714,-0.5387 0.96,-0.784 0.031,-0.032 0.053,-0.048 0.064,-0.048 0.042,0 0.085,0.0213 0.127,0.064 0.043,0.0427 0.064,0.0907 0.064,0.144 0,0.1493 -0.128,0.352 -0.383,0.608 -0.257,0.256 -0.555,0.496 -0.896,0.72 -0.342,0.224 -0.63,0.3573 -0.865,0.4 -0.309,0.2027 -0.645,0.304 -1.008,0.304 -0.224,0 -0.416,-0.0373 -0.575,-0.112 -0.043,-0.0107 -0.086,-0.0533 -0.129,-0.128 -0.032,-0.0747 -0.047,-0.1547 -0.047,-0.24 0,-0.0853 0.01,-0.144 0.032,-0.176 l 0.207,-0.464 c 0.438,-0.96 0.726,-1.616 0.865,-1.968 0.01,-0.0213 0.015,-0.048 0.015,-0.08 0,-0.0533 -0.021,-0.08 -0.064,-0.08 -0.042,0 -0.09,0.032 -0.143,0.096 -0.992,1.216 -1.777,2.112 -2.353,2.688 -0.565,0.576 -1.056,0.864 -1.472,0.864 z m 8.391,0 c -0.384,0 -0.694,-0.0907 -0.928,-0.272 -0.246,-0.1813 -0.368,-0.416 -0.368,-0.704 0,-0.256 0.064,-0.4693 0.192,-0.64 0.117,-0.1707 0.256,-0.256 0.416,-0.256 0.064,0 0.149,0.048 0.256,0.144 0.106,0.0853 0.218,0.1867 0.336,0.304 0.202,0.192 0.378,0.3413 0.528,0.448 0.16,0.1067 0.336,0.16 0.528,0.16 0.213,0 0.373,-0.064 0.48,-0.192 0.117,-0.128 0.181,-0.2987 0.192,-0.512 0,-0.288 -0.214,-0.7733 -0.64,-1.456 -0.427,-0.64 -0.64,-1.184 -0.64,-1.632 0,-0.3627 0.149,-0.7307 0.448,-1.104 0.309,-0.384 0.661,-0.704 1.056,-0.96 0.405,-0.256 0.73,-0.384 0.976,-0.384 0.213,0 0.426,0.0533 0.64,0.16 0.213,0.096 0.389,0.2187 0.528,0.368 0.149,0.1387 0.224,0.2613 0.224,0.368 0,0.16 -0.096,0.352 -0.288,0.576 -0.192,0.2133 -0.368,0.32 -0.528,0.32 -0.15,0 -0.326,-0.1333 -0.528,-0.4 -0.086,-0.128 -0.192,-0.2293 -0.32,-0.304 -0.128,-0.0853 -0.262,-0.128 -0.4,-0.128 -0.16,0 -0.288,0.0587 -0.384,0.176 -0.096,0.1173 -0.144,0.256 -0.144,0.416 0,0.2027 0.245,0.656 0.736,1.36 0.49,0.704 0.736,1.2907 0.736,1.76 0,0.3307 -0.16,0.688 -0.48,1.072 -0.31,0.3733 -0.71,0.688 -1.2,0.944 -0.48,0.2453 -0.955,0.368 -1.424,0.368 z m 5.323,0 c -0.203,0 -0.4,-0.096 -0.592,-0.288 -0.192,-0.192 -0.288,-0.3733 -0.288,-0.544 0,-0.096 0.016,-0.2027 0.048,-0.32 0.043,-0.128 0.091,-0.272 0.144,-0.432 l 1.504,-4.112 c 0.032,-0.064 0.048,-0.1227 0.048,-0.176 0,-0.064 -0.021,-0.1067 -0.064,-0.128 -0.043,-0.032 -0.091,-0.048 -0.144,-0.048 l -0.736,-0.032 c -0.149,-0.0107 -0.245,-0.0427 -0.288,-0.096 -0.043,-0.0533 -0.064,-0.1173 -0.064,-0.192 0,-0.0213 0.032,-0.0747 0.096,-0.16 0.075,-0.0853 0.165,-0.16 0.272,-0.224 0.107,-0.0747 0.213,-0.112 0.32,-0.112 h 0.704 c 0.139,0 0.235,-0.016 0.288,-0.048 0.053,-0.0427 0.123,-0.144 0.208,-0.304 l 0.416,-0.864 c 0.107,-0.2027 0.283,-0.4053 0.528,-0.608 0.245,-0.2027 0.443,-0.304 0.592,-0.304 0.096,0 0.171,0.0373 0.224,0.112 0.053,0.0747 0.08,0.1707 0.08,0.288 0,0.0853 -0.016,0.1707 -0.048,0.256 l -0.384,1.184 -0.032,0.144 c 0,0.1067 0.085,0.16 0.256,0.16 0.245,0 0.603,0.032 1.072,0.096 0.192,0.032 0.315,0.0693 0.368,0.112 0.053,0.0427 0.08,0.1067 0.08,0.192 0,0.0427 -0.032,0.096 -0.096,0.16 -0.064,0.0533 -0.16,0.0853 -0.288,0.096 -0.459,0.0427 -0.821,0.0693 -1.088,0.08 -0.181,0.0107 -0.32,0.0373 -0.416,0.08 -0.085,0.0427 -0.149,0.1173 -0.192,0.224 l -1.264,3.504 c -0.064,0.192 -0.096,0.3413 -0.096,0.448 0,0.1813 0.091,0.272 0.272,0.272 0.277,0 0.795,-0.3627 1.552,-1.088 0.043,-0.0533 0.085,-0.08 0.128,-0.08 0.053,-0.0107 0.085,0 0.096,0.032 0.032,0.032 0.048,0.08 0.048,0.144 0,0.0853 -0.021,0.1653 -0.064,0.24 -0.128,0.2773 -0.389,0.6027 -0.784,0.976 -0.384,0.3733 -0.805,0.6933 -1.264,0.96 -0.448,0.2667 -0.832,0.4 -1.152,0.4 z m 6.11,0.016 c -0.267,0 -0.55,-0.0853 -0.849,-0.256 -0.288,-0.1813 -0.533,-0.416 -0.735,-0.704 -0.193,-0.288 -0.289,-0.5867 -0.289,-0.896 0,-0.8107 0.203,-1.6213 0.608,-2.432 0.416,-0.8213 0.955,-1.488 1.617,-2 0.661,-0.5227 1.343,-0.784 2.047,-0.784 0.512,0 0.902,0.1013 1.169,0.304 0.266,0.2027 0.4,0.464 0.4,0.784 0,0.6293 -0.353,1.12 -1.057,1.472 -0.693,0.3413 -1.583,0.624 -2.671,0.848 -0.096,0.0107 -0.161,0.0587 -0.193,0.144 -0.106,0.352 -0.165,0.64 -0.175,0.864 -0.011,0.3947 0.08,0.7147 0.272,0.96 0.191,0.2347 0.464,0.352 0.816,0.352 0.298,0 0.576,-0.0747 0.832,-0.224 0.256,-0.1493 0.506,-0.3573 0.751,-0.624 0.107,-0.1173 0.203,-0.176 0.289,-0.176 0.095,0 0.144,0.0533 0.144,0.16 0,0.096 -0.017,0.16 -0.049,0.192 -0.33,0.608 -0.746,1.0987 -1.247,1.472 -0.491,0.3627 -1.051,0.544 -1.68,0.544 z m 0.352,-4.16 c 0.565,-0.1173 1.082,-0.3253 1.552,-0.624 0.469,-0.2987 0.704,-0.7253 0.704,-1.28 0,-0.128 -0.043,-0.24 -0.129,-0.336 -0.074,-0.1067 -0.175,-0.16 -0.304,-0.16 -0.255,0 -0.527,0.128 -0.816,0.384 -0.287,0.2453 -0.538,0.5493 -0.751,0.912 -0.214,0.3627 -0.336,0.6987 -0.368,1.008 v 0.032 c 0,0.0427 0.037,0.064 0.112,0.064 z m 25.523,4.176 c -0.139,0 -0.288,-0.0693 -0.448,-0.208 -0.15,-0.128 -0.224,-0.2773 -0.224,-0.448 0,-0.2453 0.069,-0.6187 0.208,-1.12 l 2.192,-7.2 c 0.128,-0.4693 0.192,-0.7947 0.192,-0.976 0,-0.1173 -0.059,-0.208 -0.176,-0.272 -0.107,-0.0747 -0.251,-0.144 -0.432,-0.208 -0.203,-0.064 -0.304,-0.1333 -0.304,-0.208 0,-0.064 0.021,-0.1173 0.064,-0.16 0.053,-0.0427 0.16,-0.0907 0.32,-0.144 0.266,-0.096 0.677,-0.224 1.232,-0.384 0.554,-0.16 0.901,-0.24 1.04,-0.24 0.245,0 0.368,0.064 0.368,0.192 0,0.128 -0.022,0.2507 -0.064,0.368 -0.032,0.1173 -0.054,0.1867 -0.064,0.208 l -2.208,7.04 -0.016,0.064 c 0,0.032 0.016,0.048 0.048,0.048 0.042,0 0.08,-0.0267 0.112,-0.08 0.65,-1.0027 1.333,-1.8187 2.048,-2.448 0.714,-0.64 1.349,-0.96 1.904,-0.96 0.394,0 0.698,0.128 0.912,0.384 0.224,0.256 0.336,0.5707 0.336,0.944 0,0.8 -0.171,1.6 -0.512,2.4 -0.331,0.8 -0.752,1.504 -1.264,2.112 -0.096,0.1173 -0.294,0.2773 -0.592,0.48 -0.288,0.2027 -0.592,0.384 -0.912,0.544 -0.31,0.16 -0.544,0.24 -0.704,0.24 -0.171,0 -0.358,-0.08 -0.56,-0.24 -0.192,-0.1707 -0.288,-0.32 -0.288,-0.448 0,-0.096 0.058,-0.2293 0.176,-0.4 0.117,-0.1813 0.229,-0.272 0.336,-0.272 0.085,0 0.154,0.016 0.208,0.048 0.053,0.032 0.101,0.0693 0.144,0.112 0.053,0.0427 0.09,0.0747 0.112,0.096 0.106,0.096 0.192,0.1653 0.256,0.208 0.064,0.0427 0.138,0.064 0.224,0.064 0.213,0 0.442,-0.2667 0.688,-0.8 0.256,-0.544 0.469,-1.184 0.64,-1.92 0.181,-0.736 0.272,-1.36 0.272,-1.872 0,-0.2027 -0.043,-0.3573 -0.128,-0.464 -0.075,-0.1173 -0.192,-0.176 -0.352,-0.176 -0.331,0 -0.774,0.3893 -1.328,1.168 -0.555,0.768 -1.222,1.7973 -2,3.088 l -0.448,0.72 c -0.224,0.3947 -0.416,0.6827 -0.576,0.864 -0.15,0.1707 -0.294,0.256 -0.432,0.256 z m 9.473,-0.032 c -0.352,0 -0.688,-0.0907 -1.008,-0.272 -0.309,-0.192 -0.56,-0.448 -0.752,-0.768 -0.181,-0.32 -0.272,-0.6773 -0.272,-1.072 0,-0.6933 0.187,-1.424 0.56,-2.192 0.384,-0.7787 0.907,-1.4293 1.568,-1.952 0.672,-0.5333 1.424,-0.8 2.256,-0.8 0.651,0 1.168,0.1973 1.552,0.592 0.395,0.3947 0.592,0.9173 0.592,1.568 0,0.6827 -0.187,1.408 -0.56,2.176 -0.373,0.768 -0.907,1.4133 -1.6,1.936 -0.683,0.5227 -1.461,0.784 -2.336,0.784 z m 0.304,-0.576 c 0.352,0 0.72,-0.2933 1.104,-0.88 0.384,-0.5867 0.704,-1.2853 0.96,-2.096 0.267,-0.8213 0.4,-1.5467 0.4,-2.176 0,-0.512 -0.197,-0.768 -0.592,-0.768 -0.32,0 -0.677,0.288 -1.072,0.864 -0.395,0.5653 -0.731,1.2533 -1.008,2.064 -0.267,0.8107 -0.4,1.5413 -0.4,2.192 0,0.5333 0.203,0.8 0.608,0.8 z m 5.962,0.592 c -0.16,0 -0.336,-0.0907 -0.528,-0.272 -0.192,-0.1813 -0.288,-0.384 -0.288,-0.608 0,-0.096 0.016,-0.1813 0.048,-0.256 l 1.696,-4.192 c 0.054,-0.1387 0.08,-0.2453 0.08,-0.32 0,-0.1173 -0.058,-0.176 -0.176,-0.176 -0.202,0 -0.41,0.0373 -0.624,0.112 -0.202,0.0747 -0.41,0.2453 -0.624,0.512 -0.053,0.0533 -0.106,0.08 -0.16,0.08 -0.032,0 -0.064,-0.016 -0.096,-0.048 -0.032,-0.032 -0.048,-0.0747 -0.048,-0.128 0,-0.096 0.059,-0.24 0.176,-0.432 0.118,-0.192 0.23,-0.352 0.336,-0.48 0.544,-0.5653 1.222,-0.8533 2.032,-0.864 0.235,0 0.422,0.0747 0.56,0.224 0.15,0.1493 0.224,0.3307 0.224,0.544 0,0.1173 -0.026,0.2453 -0.08,0.384 l -0.912,2.304 -0.016,0.048 c 0,0.0533 0.038,0.08 0.112,0.08 0.064,0 0.112,-0.0267 0.144,-0.08 1.334,-2.336 2.539,-3.504 3.616,-3.504 0.363,0 0.635,0.112 0.816,0.336 0.192,0.224 0.288,0.512 0.288,0.864 0,0.32 -0.058,0.6027 -0.176,0.848 l -1.296,3.04 c -0.053,0.128 -0.08,0.2453 -0.08,0.352 0,0.1173 0.054,0.176 0.16,0.176 0.15,0 0.39,-0.1173 0.72,-0.352 0.342,-0.2347 0.582,-0.4213 0.72,-0.56 0.107,-0.1067 0.182,-0.16 0.224,-0.16 0.032,0 0.064,0.0213 0.096,0.064 0.032,0.032 0.048,0.0693 0.048,0.112 0,0.16 -0.053,0.3093 -0.16,0.448 -0.469,0.5547 -1.002,1.008 -1.6,1.36 -0.586,0.352 -1.141,0.528 -1.664,0.528 -0.17,0 -0.33,-0.0693 -0.48,-0.208 -0.149,-0.128 -0.224,-0.272 -0.224,-0.432 0,-0.0747 0.011,-0.1333 0.032,-0.176 0.427,-0.9493 0.688,-1.5307 0.784,-1.744 0.491,-1.0347 0.896,-1.9627 1.216,-2.784 0.075,-0.2133 0.112,-0.384 0.112,-0.512 0,-0.1813 -0.08,-0.272 -0.24,-0.272 -0.181,-0.0107 -0.389,0.112 -0.624,0.368 -0.234,0.2453 -0.549,0.6347 -0.944,1.168 -0.202,0.2773 -0.549,0.8107 -1.04,1.6 -0.49,0.7787 -0.922,1.4933 -1.296,2.144 -0.16,0.2773 -0.309,0.4907 -0.448,0.64 -0.138,0.1493 -0.277,0.224 -0.416,0.224 z m 9.063,0 c -0.16,0 -0.336,-0.0907 -0.528,-0.272 -0.192,-0.1813 -0.288,-0.384 -0.288,-0.608 0,-0.096 0.016,-0.1813 0.048,-0.256 l 1.696,-4.192 c 0.053,-0.1387 0.08,-0.2453 0.08,-0.32 0,-0.1173 -0.059,-0.176 -0.176,-0.176 -0.203,0 -0.411,0.0373 -0.624,0.112 -0.203,0.0747 -0.411,0.2453 -0.624,0.512 -0.053,0.0533 -0.107,0.08 -0.16,0.08 -0.032,0 -0.064,-0.016 -0.096,-0.048 -0.032,-0.032 -0.048,-0.0747 -0.048,-0.128 0,-0.096 0.059,-0.24 0.176,-0.432 0.117,-0.192 0.229,-0.352 0.336,-0.48 0.544,-0.5653 1.221,-0.8533 2.032,-0.864 0.235,0 0.421,0.0747 0.56,0.224 0.149,0.1493 0.224,0.3307 0.224,0.544 0,0.1173 -0.027,0.2453 -0.08,0.384 l -0.912,2.304 -0.016,0.048 c 0,0.0533 0.037,0.08 0.112,0.08 0.064,0 0.112,-0.0267 0.144,-0.08 1.333,-2.336 2.539,-3.504 3.616,-3.504 0.363,0 0.635,0.112 0.816,0.336 0.192,0.224 0.288,0.512 0.288,0.864 0,0.32 -0.059,0.6027 -0.176,0.848 l -1.296,3.04 c -0.053,0.128 -0.08,0.2453 -0.08,0.352 0,0.1173 0.053,0.176 0.16,0.176 0.149,0 0.389,-0.1173 0.72,-0.352 0.341,-0.2347 0.581,-0.4213 0.72,-0.56 0.107,-0.1067 0.181,-0.16 0.224,-0.16 0.032,0 0.064,0.0213 0.096,0.064 0.032,0.032 0.048,0.0693 0.048,0.112 0,0.16 -0.053,0.3093 -0.16,0.448 -0.469,0.5547 -1.003,1.008 -1.6,1.36 -0.587,0.352 -1.141,0.528 -1.664,0.528 -0.171,0 -0.331,-0.0693 -0.48,-0.208 -0.149,-0.128 -0.224,-0.272 -0.224,-0.432 0,-0.0747 0.011,-0.1333 0.032,-0.176 0.427,-0.9493 0.688,-1.5307 0.784,-1.744 0.491,-1.0347 0.896,-1.9627 1.216,-2.784 0.075,-0.2133 0.112,-0.384 0.112,-0.512 0,-0.1813 -0.08,-0.272 -0.24,-0.272 -0.181,-0.0107 -0.389,0.112 -0.624,0.368 -0.235,0.2453 -0.549,0.6347 -0.944,1.168 -0.203,0.2773 -0.549,0.8107 -1.04,1.6 -0.491,0.7787 -0.923,1.4933 -1.296,2.144 -0.16,0.2773 -0.309,0.4907 -0.448,0.64 -0.139,0.1493 -0.277,0.224 -0.416,0.224 z m 9.635,0 c -0.267,0 -0.549,-0.0853 -0.848,-0.256 -0.288,-0.1813 -0.533,-0.416 -0.736,-0.704 -0.192,-0.288 -0.288,-0.5867 -0.288,-0.896 0,-0.8107 0.203,-1.6213 0.608,-2.432 0.416,-0.8213 0.955,-1.488 1.616,-2 0.661,-0.5227 1.344,-0.784 2.048,-0.784 0.512,0 0.901,0.1013 1.168,0.304 0.267,0.2027 0.4,0.464 0.4,0.784 0,0.6293 -0.352,1.12 -1.056,1.472 -0.693,0.3413 -1.584,0.624 -2.672,0.848 -0.096,0.0107 -0.16,0.0587 -0.192,0.144 -0.107,0.352 -0.165,0.64 -0.176,0.864 -0.011,0.3947 0.08,0.7147 0.272,0.96 0.192,0.2347 0.464,0.352 0.816,0.352 0.299,0 0.576,-0.0747 0.832,-0.224 0.256,-0.1493 0.507,-0.3573 0.752,-0.624 0.107,-0.1173 0.203,-0.176 0.288,-0.176 0.096,0 0.144,0.0533 0.144,0.16 0,0.096 -0.016,0.16 -0.048,0.192 -0.331,0.608 -0.747,1.0987 -1.248,1.472 -0.491,0.3627 -1.051,0.544 -1.68,0.544 z m 0.352,-4.16 c 0.565,-0.1173 1.083,-0.3253 1.552,-0.624 0.469,-0.2987 0.704,-0.7253 0.704,-1.28 0,-0.128 -0.043,-0.24 -0.128,-0.336 -0.075,-0.1067 -0.176,-0.16 -0.304,-0.16 -0.256,0 -0.528,0.128 -0.816,0.384 -0.288,0.2453 -0.539,0.5493 -0.752,0.912 -0.213,0.3627 -0.336,0.6987 -0.368,1.008 v 0.032 c 0,0.0427 0.037,0.064 0.112,0.064 z m 3.312,-6.832 c 0.085,0 0.149,0.0427 0.192,0.128 0.053,0.0853 0.112,0.24 0.176,0.464 0.235,0.9173 0.4,1.6533 0.496,2.208 0.021,0.1493 0.011,0.2773 -0.032,0.384 -0.043,0.1067 -0.117,0.16 -0.224,0.16 -0.149,0 -0.283,-0.144 -0.4,-0.432 -0.171,-0.384 -0.373,-0.7947 -0.608,-1.232 -0.043,-0.0853 -0.096,-0.0853 -0.16,0 l -1.392,1.248 c -0.299,0.2773 -0.507,0.416 -0.624,0.416 -0.107,0 -0.16,-0.0587 -0.16,-0.176 0,-0.128 0.059,-0.2667 0.176,-0.416 0.448,-0.5653 1.029,-1.2587 1.744,-2.08 0.395,-0.448 0.667,-0.672 0.816,-0.672 z m 1.539,10.976 c -0.203,0 -0.4,-0.096 -0.592,-0.288 -0.192,-0.192 -0.288,-0.3733 -0.288,-0.544 0,-0.096 0.016,-0.2027 0.048,-0.32 0.043,-0.128 0.091,-0.272 0.144,-0.432 l 1.504,-4.112 c 0.032,-0.064 0.048,-0.1227 0.048,-0.176 0,-0.064 -0.021,-0.1067 -0.064,-0.128 -0.043,-0.032 -0.091,-0.048 -0.144,-0.048 l -0.736,-0.032 c -0.149,-0.0107 -0.245,-0.0427 -0.288,-0.096 -0.043,-0.0533 -0.064,-0.1173 -0.064,-0.192 0,-0.0213 0.032,-0.0747 0.096,-0.16 0.075,-0.0853 0.165,-0.16 0.272,-0.224 0.107,-0.0747 0.213,-0.112 0.32,-0.112 h 0.704 c 0.139,0 0.235,-0.016 0.288,-0.048 0.053,-0.0427 0.123,-0.144 0.208,-0.304 l 0.416,-0.864 c 0.107,-0.2027 0.283,-0.4053 0.528,-0.608 0.245,-0.2027 0.443,-0.304 0.592,-0.304 0.096,0 0.171,0.0373 0.224,0.112 0.053,0.0747 0.08,0.1707 0.08,0.288 0,0.0853 -0.016,0.1707 -0.048,0.256 l -0.384,1.184 -0.032,0.144 c 0,0.1067 0.085,0.16 0.256,0.16 0.245,0 0.603,0.032 1.072,0.096 0.192,0.032 0.315,0.0693 0.368,0.112 0.053,0.0427 0.08,0.1067 0.08,0.192 0,0.0427 -0.032,0.096 -0.096,0.16 -0.064,0.0533 -0.16,0.0853 -0.288,0.096 -0.459,0.0427 -0.821,0.0693 -1.088,0.08 -0.181,0.0107 -0.32,0.0373 -0.416,0.08 -0.085,0.0427 -0.149,0.1173 -0.192,0.224 l -1.264,3.504 c -0.064,0.192 -0.096,0.3413 -0.096,0.448 0,0.1813 0.091,0.272 0.272,0.272 0.277,0 0.795,-0.3627 1.552,-1.088 0.043,-0.0533 0.085,-0.08 0.128,-0.08 0.053,-0.0107 0.085,0 0.096,0.032 0.032,0.032 0.048,0.08 0.048,0.144 0,0.0853 -0.021,0.1653 -0.064,0.24 -0.128,0.2773 -0.389,0.6027 -0.784,0.976 -0.384,0.3733 -0.805,0.6933 -1.264,0.96 -0.448,0.2667 -0.832,0.4 -1.152,0.4 z m 6.11,0.016 c -0.267,0 -0.55,-0.0853 -0.849,-0.256 -0.288,-0.1813 -0.533,-0.416 -0.735,-0.704 -0.193,-0.288 -0.289,-0.5867 -0.289,-0.896 0,-0.8107 0.203,-1.6213 0.608,-2.432 0.416,-0.8213 0.955,-1.488 1.617,-2 0.661,-0.5227 1.343,-0.784 2.047,-0.784 0.512,0 0.902,0.1013 1.169,0.304 0.266,0.2027 0.4,0.464 0.4,0.784 0,0.6293 -0.353,1.12 -1.057,1.472 -0.693,0.3413 -1.583,0.624 -2.671,0.848 -0.096,0.0107 -0.161,0.0587 -0.193,0.144 -0.106,0.352 -0.165,0.64 -0.175,0.864 -0.011,0.3947 0.08,0.7147 0.272,0.96 0.191,0.2347 0.464,0.352 0.816,0.352 0.298,0 0.576,-0.0747 0.832,-0.224 0.256,-0.1493 0.506,-0.3573 0.751,-0.624 0.107,-0.1173 0.203,-0.176 0.289,-0.176 0.095,0 0.144,0.0533 0.144,0.16 0,0.096 -0.017,0.16 -0.049,0.192 -0.33,0.608 -0.746,1.0987 -1.247,1.472 -0.491,0.3627 -1.051,0.544 -1.68,0.544 z m 0.352,-4.16 c 0.565,-0.1173 1.082,-0.3253 1.552,-0.624 0.469,-0.2987 0.704,-0.7253 0.704,-1.28 0,-0.128 -0.043,-0.24 -0.129,-0.336 -0.074,-0.1067 -0.175,-0.16 -0.304,-0.16 -0.255,0 -0.527,0.128 -0.816,0.384 -0.287,0.2453 -0.538,0.5493 -0.751,0.912 -0.214,0.3627 -0.336,0.6987 -0.368,1.008 v 0.032 c 0,0.0427 0.037,0.064 0.112,0.064 z"
       inkscape:connector-curvature="0" />
    <path
       id="path3_fill"
       d="m 754.239,42.976 c -0.192,0.0107 -0.314,0.032 -0.368,0.064 -0.053,0.032 -0.058,0.08 -0.016,0.144 0.32,0.5547 0.48,1.216 0.48,1.984 0,1.0133 -0.24,1.904 -0.72,2.672 -0.48,0.7573 -1.146,1.344 -2,1.76 -0.853,0.416 -1.829,0.624 -2.928,0.624 -1.002,0 -1.904,-0.176 -2.704,-0.528 -0.8,-0.3627 -1.429,-0.864 -1.888,-1.504 -0.448,-0.64 -0.672,-1.3707 -0.672,-2.192 0,-0.608 0.096,-1.1733 0.288,-1.696 0.203,-0.5333 0.486,-0.9867 0.848,-1.36 -0.149,-0.4267 -0.224,-0.9013 -0.224,-1.424 0,-0.5547 0.144,-1.0613 0.432,-1.52 0.299,-0.4587 0.699,-0.8213 1.2,-1.088 0.502,-0.2667 1.046,-0.4 1.632,-0.4 0.555,0 0.992,0.144 1.312,0.432 0.331,0.2773 0.496,0.656 0.496,1.136 0,0.256 -0.074,0.464 -0.224,0.624 -0.138,0.1493 -0.33,0.224 -0.576,0.224 -0.138,0 -0.272,-0.0587 -0.4,-0.176 -0.128,-0.128 -0.192,-0.256 -0.192,-0.384 0,-0.224 -0.074,-0.416 -0.224,-0.576 -0.138,-0.16 -0.309,-0.24 -0.512,-0.24 -0.586,0 -1.072,0.1867 -1.456,0.56 -0.373,0.3733 -0.56,0.8693 -0.56,1.488 0,0.2773 0.016,0.528 0.048,0.752 0.47,-0.2773 0.987,-0.416 1.552,-0.416 0.576,0.0107 1.019,0.144 1.328,0.4 0.31,0.256 0.464,0.592 0.464,1.008 0,0.4053 -0.165,0.752 -0.496,1.04 -0.33,0.288 -0.736,0.432 -1.216,0.432 -0.426,0 -0.816,-0.1013 -1.168,-0.304 -0.352,-0.2027 -0.645,-0.4907 -0.88,-0.864 -0.224,0.416 -0.336,0.9227 -0.336,1.52 0,0.608 0.155,1.1627 0.464,1.664 0.32,0.5013 0.822,0.9067 1.504,1.216 0.694,0.2987 1.568,0.448 2.624,0.448 0.928,0 1.723,-0.16 2.384,-0.48 0.672,-0.3307 1.179,-0.7733 1.52,-1.328 0.342,-0.5547 0.512,-1.1627 0.512,-1.824 0,-0.5867 -0.165,-1.0613 -0.496,-1.424 -0.33,-0.3627 -0.832,-0.544 -1.504,-0.544 -0.373,0 -0.682,0.1173 -0.928,0.352 -0.245,0.224 -0.368,0.5013 -0.368,0.832 0,0.2027 0.064,0.3733 0.192,0.512 0.139,0.1387 0.32,0.208 0.544,0.208 0.086,0 0.155,-0.0213 0.208,-0.064 0.064,-0.0533 0.118,-0.1067 0.16,-0.16 0.054,-0.0533 0.091,-0.0907 0.112,-0.112 0.086,-0.1067 0.16,-0.1867 0.224,-0.24 0.075,-0.064 0.171,-0.096 0.288,-0.096 0.256,0 0.448,0.064 0.576,0.192 0.128,0.128 0.187,0.2987 0.176,0.512 0,0.2987 -0.106,0.5493 -0.32,0.752 -0.213,0.2027 -0.48,0.304 -0.8,0.304 -0.597,0 -1.088,-0.1653 -1.472,-0.496 -0.373,-0.3307 -0.56,-0.7573 -0.56,-1.28 0,-0.7787 0.262,-1.3867 0.784,-1.824 0.534,-0.448 1.195,-0.672 1.984,-0.672 l 1.328,-0.016 c 0.832,0 1.435,-0.128 1.808,-0.384 0.384,-0.2667 0.576,-0.6827 0.576,-1.248 0,-0.2773 -0.085,-0.5013 -0.256,-0.672 -0.17,-0.1707 -0.368,-0.256 -0.592,-0.256 -0.117,0 -0.213,0.032 -0.288,0.096 -0.074,0.0533 -0.112,0.1173 -0.112,0.192 0,0.1493 0.08,0.2667 0.24,0.352 0.086,0.0427 0.15,0.112 0.192,0.208 0.054,0.0853 0.08,0.176 0.08,0.272 0,0.1813 -0.074,0.3467 -0.224,0.496 -0.149,0.1387 -0.341,0.208 -0.576,0.208 -0.277,0 -0.501,-0.0907 -0.672,-0.272 -0.16,-0.1813 -0.24,-0.4053 -0.24,-0.672 0,-0.3733 0.139,-0.6987 0.416,-0.976 0.288,-0.2773 0.678,-0.416 1.168,-0.416 0.448,0 0.816,0.1707 1.104,0.512 0.299,0.3307 0.448,0.7947 0.448,1.392 0,0.7253 -0.234,1.328 -0.704,1.808 -0.458,0.48 -1.066,0.7253 -1.824,0.736 z m -7.392,-0.464 c -0.544,0 -1.013,0.1547 -1.408,0.464 0.235,0.7787 0.726,1.168 1.472,1.168 0.299,0 0.539,-0.0747 0.72,-0.224 0.182,-0.16 0.272,-0.368 0.272,-0.624 0,-0.224 -0.096,-0.4107 -0.288,-0.56 -0.192,-0.1493 -0.448,-0.224 -0.768,-0.224 z"
       inkscape:connector-curvature="0" />
  </defs>
</svg>
