<svg width="128" height="88" viewBox="0 0 128 88" version="1.1" xmlns="http://www.w3.org/2000/svg" xmlns:xlink="http://www.w3.org/1999/xlink">
<title>Group</title>
<desc>Created using Figma</desc>
<g id="Canvas" transform="translate(-1711 342)">
<g id="Group">
<g id="Group">
<g id="Vector">
<use xlink:href="#path0_fill" transform="translate(1734 -318.412)" fill="#223C49"/>
</g>
<g id="Vector">
<use xlink:href="#path1_fill" transform="translate(1751 -342)" fill="#223C49"/>
</g>
<g id="Vector">
<use xlink:href="#path2_fill" transform="translate(1783.39 -314.127)" fill="#223C49"/>
</g>
</g>
<g id="Group">
<g id="Group">
<g id="Vector">
<use xlink:href="#path3_fill" transform="translate(1711 -273)" fill="#223C49"/>
</g>
<g id="Vector">
<use xlink:href="#path4_fill" transform="translate(1723.26 -268.17)" fill="#223C49"/>
</g>
<g id="Vector">
<use xlink:href="#path5_fill" transform="translate(1732.86 -265.798)" fill="#223C49"/>
</g>
<g id="Vector">
<use xlink:href="#path6_fill" transform="translate(1739.81 -266.984)" fill="#223C49"/>
</g>
<g id="Vector">
<use xlink:href="#path7_fill" transform="translate(1746.27 -263.775)" fill="#223C49"/>
</g>
<g id="Vector">
<use xlink:href="#path8_fill" transform="translate(1759.56 -268.108)" fill="#E27170"/>
</g>
<g id="Vector">
<use xlink:href="#path9_fill" transform="translate(1779.4 -267.671)" fill="#223C49"/>
</g>
<g id="Vector">
<use xlink:href="#path10_fill" transform="translate(1789.24 -263.063)" fill="#223C49"/>
</g>
<g id="Vector">
<use xlink:href="#path11_fill" transform="translate(1798.15 -264.322)" fill="#223C49"/>
</g>
<g id="Vector">
<use xlink:href="#path12_fill" transform="translate(1808.96 -266.196)" fill="#223C49"/>
</g>
<g id="Vector">
<use xlink:href="#path13_fill" transform="translate(1819.78 -272.565)" fill="#223C49"/>
</g>
<g id="Vector">
<use xlink:href="#path14_fill" transform="translate(1826.56 -271.354)" fill="#223C49"/>
</g>
<g id="Vector">
<use xlink:href="#path15_fill" transform="translate(1833.2 -271.441)" fill="#223C49"/>
</g>
</g>
</g>
<g id="Vector">
<use xlink:href="#path16_fill" transform="translate(1739.82 -328.139)" fill="#E27170"/>
</g>
<g id="Vector">
<use xlink:href="#path17_fill" transform="translate(1815.6 -295.615)" fill="#E27170"/>
</g>
</g>
</g>
<defs>
<path id="path0_fill" d="M 11.7313 -4.63811e-07L 11.7313 27.5087C 11.7313 28.9069 11.5485 30.1835 11.2133 31.3386C 10.8781 32.4937 10.4515 33.5879 9.90305 34.5606C 9.35457 35.5333 8.74515 36.4148 8.07479 37.2051C 7.40443 37.9954 6.7036 38.6945 6.00277 39.3328C 4.2964 40.8222 2.4072 42.0077 0.274238 42.8892L -4.54051e-10 42.2813C 1.34072 41.4302 2.55956 40.3359 3.62604 38.9985C 4.5097 37.8738 5.36288 36.4452 6.15512 34.743C 6.94737 33.0104 7.34349 30.9434 7.34349 28.5421L 7.34349 6.04886C 7.34349 5.28896 7.22161 4.55945 7.00831 3.86033C 6.79501 3.16122 6.12465 2.79646 5.05817 2.76606L 5.05817 2.15814L 11.7313 -4.63811e-07Z"/>
<path id="path1_fill" d="M 27.1191 56.3548C 27.1191 56.7195 27.1496 57.1147 27.241 57.5402C 27.3324 57.9658 27.4848 58.3609 27.6676 58.7257C 27.8809 59.0904 28.0942 59.3944 28.3379 59.668C 28.5817 59.9415 28.8864 60.0631 29.2521 60.0631L 29.2521 60.7318L 20.5679 60.7318L 20.5679 60.0631C 20.8726 60.0631 21.1773 59.9415 21.4515 59.668C 21.7258 59.3944 21.9695 59.0904 22.1524 58.7257C 22.3656 58.3609 22.4875 57.9658 22.5789 57.5402C 22.6704 57.1147 22.7008 56.7195 22.7008 56.3548L 22.7008 43.8923C 22.7008 42.2813 22.4875 40.883 22.0305 39.6672C 21.5734 38.4513 20.964 37.4482 20.2022 36.6579C 19.4404 35.8676 18.5873 35.2597 17.6122 34.895C 16.6371 34.5302 15.662 34.3174 14.687 34.3174C 13.7119 34.3174 12.7368 34.4998 11.7618 34.895C 10.7867 35.2901 9.93352 35.8068 9.20222 36.4756C 8.47091 37.1443 7.8615 37.965 7.37396 38.9377C 6.9169 39.9104 6.67313 40.9742 6.67313 42.1293L 6.67313 56.4155C 6.67313 56.7803 6.7036 57.1755 6.79501 57.601C 6.88643 58.0265 7.03878 58.4217 7.22161 58.7865C 7.4349 59.1512 7.6482 59.4552 7.89197 59.7287C 8.13573 60.0023 8.44044 60.1239 8.80609 60.1239L 8.80609 60.7926L 0.152355 60.7926L 0.152355 60.1239C 0.457064 60.1239 0.761772 60.0023 1.03601 59.7287C 1.31025 59.4552 1.55402 59.1512 1.73684 58.7865C 1.95014 58.4217 2.07202 58.0265 2.16343 57.601C 2.25485 57.1755 2.28532 56.7803 2.28532 56.4155L 2.28532 22.0677C 2.28532 21.3078 2.16343 4.46826 1.95014 3.79954C 1.73684 3.13082 1.06648 2.76606 2.32475e-07 2.73567L 2.32475e-07 2.06695L 6.73407 0L 6.73407 35.5029C 7.03878 35.1381 7.46537 34.743 7.95291 34.3174C 8.44044 33.8919 9.04986 33.4967 9.72022 33.1016C 10.4211 32.7368 11.2133 32.4025 12.1274 32.1593C 13.0415 31.9161 14.1385 31.7945 15.3878 31.7945C 17.4903 31.7945 19.2881 32.1593 20.7812 32.8584C 22.2742 33.5879 23.4626 34.4998 24.4072 35.6549C 25.3518 36.8099 26.0222 38.0562 26.4488 39.424C 26.8753 40.7918 27.0886 42.1293 27.0886 43.4059L 27.0886 56.3548L 27.1191 56.3548Z"/>
<path id="path2_fill" d="M 14.6565 29.0589C 12.4017 29.0589 10.3906 28.6941 8.5928 27.9646C 6.79501 27.2351 5.27147 26.232 3.99169 24.9554C 2.71191 23.6787 1.73684 22.1589 1.03601 20.4263C 0.335178 18.6937 0 16.7788 0 14.7118C 0 12.5233 0.365652 10.5171 1.1579 8.72374C 1.91967 6.89996 2.98615 5.34975 4.32687 4.0731C 5.66759 2.76606 7.25207 1.76298 9.1108 1.06387C 10.9391 0.334358 12.9501 -9.27622e-07 15.0831 -9.27622e-07C 17.2465 -9.27622e-07 19.1967 0.334359 20.9945 1.03347C 22.7922 1.73259 24.3463 2.70527 25.626 3.95152C 26.9363 5.19777 27.9418 6.68719 28.6427 8.41978C 29.374 10.1524 29.7091 12.0369 29.7091 14.0735C 29.7091 15.9885 29.374 17.873 28.7341 19.6664C 28.0942 21.4902 27.1191 23.0708 25.8393 24.469C 24.5596 25.8673 23.0055 26.9615 21.1468 27.8126C 19.2576 28.6333 17.0942 29.0589 14.6565 29.0589ZM 14.1994 2.15814C 12.5845 2.24933 11.1828 2.64448 9.93352 3.34359C 8.71468 4.04271 7.67867 4.9242 6.85595 6.01847C 6.03324 7.11274 5.39335 8.35898 4.96676 9.72682C 4.54017 11.125 4.32687 12.5233 4.32687 13.9519C 4.32687 15.5933 4.57064 17.2043 5.08864 18.7545C 5.60665 20.3047 6.33795 21.6726 7.31302 22.8884C 8.28809 24.1043 9.41551 25.0466 10.7562 25.7761C 12.097 26.5056 13.59 26.8399 15.2355 26.8399C 16.8809 26.8399 18.3435 26.4752 19.6233 25.7761C 20.903 25.0466 21.9695 24.1347 22.8227 22.9796C 23.6759 21.8245 24.3158 20.5479 24.7424 19.1193C 25.169 17.6907 25.3823 16.262 25.3823 14.8334C 25.3823 13.344 25.169 11.885 24.7119 10.3651C 24.2548 8.87572 23.5845 7.50789 22.6399 6.26164C 21.6953 5.04579 20.5374 4.04271 19.1357 3.2828C 17.7341 2.55329 16.0886 2.15814 14.1994 2.15814Z"/>
<path id="path3_fill" d="M 0.277129 13.7565C 0.0229223 13.5068 -0.0406303 13.1947 0.0229213 13.0074C 0.0864729 12.7577 0.277129 12.5704 0.594887 12.4456C 0.849093 12.3207 1.1033 12.2583 1.29395 12.3207C 1.42106 12.3832 1.54816 12.4456 1.67526 12.5704C 1.73882 12.6953 1.86592 12.8825 1.99302 13.0698C 2.05657 13.2571 2.18368 13.3819 2.24723 13.5068C 2.37433 13.6316 2.50143 13.694 2.69209 13.7565C 3.00985 13.8813 3.32761 13.7565 3.70891 13.5068C 4.09022 13.1947 4.47154 12.8201 4.9164 12.1959C 6.82295 9.63655 7.77622 8.32567 9.55566 5.7039C 9.68277 5.57906 9.74632 5.39178 9.80987 5.26694C 9.87342 5.07967 9.80987 4.95482 9.68277 4.95482C 9.49211 4.8924 9.1108 4.8924 8.53884 5.01725C 8.47529 5.01725 8.41174 5.01725 8.34819 5.01725C 8.22108 4.95482 8.15753 4.89241 8.15753 4.76756C 8.15753 4.70514 8.22108 4.64271 8.28463 4.58029C 8.34818 4.51787 8.47529 4.45544 8.60239 4.45544C 9.04725 4.26818 9.49211 4.14332 10.0005 4.01848C 10.5089 3.89363 11.0809 3.83121 11.8435 3.70636C 12.1613 3.64394 12.2884 3.64394 12.6061 3.58152C 12.7968 3.58152 12.9239 3.64395 13.051 3.83121C 13.1781 4.01848 13.1781 4.14332 13.1146 4.33059C 12.9239 4.58028 12.8603 4.64271 12.7332 4.8924C 12.2884 5.45421 11.9706 5.89117 11.78 6.20328C 10.1276 8.57535 9.30146 9.76139 7.58557 12.1335C 7.20426 12.6953 6.63229 13.1947 5.86967 13.5692C 5.10705 13.9437 4.34443 14.2558 3.51826 14.3807C 2.69209 14.5055 2.12013 14.5055 1.67526 14.3807C 0.912645 14.2558 0.531335 14.0062 0.277129 13.7565ZM 12.6061 1.77125C 12.479 1.52156 12.479 1.33429 12.5426 1.0846C 12.6697 0.71006 12.8603 0.397948 13.2417 0.210679C 13.5594 0.0234105 13.9407 -0.0390144 14.322 0.0234086C 14.5762 0.0858316 14.7033 0.210676 14.8304 0.460368C 14.9576 0.71006 14.9576 0.95975 14.894 1.20944C 14.8305 1.58398 14.5762 1.83367 14.2585 2.02094C 13.9407 2.20821 13.5594 2.27063 13.2417 2.14579C 12.8603 2.14579 12.6697 2.02095 12.6061 1.77125Z"/>
<path id="path4_fill" d="M 0.152034 6.86653C 0.0249311 6.55441 -0.038621 6.2423 0.0249306 5.93018C 0.0249306 5.80534 0.0884827 5.74292 0.152034 5.68049C 1.35952 4.24477 1.93148 3.49569 3.07541 2.05996C 3.20251 1.87269 3.32962 1.74784 3.32962 1.68542C 3.32962 1.56057 3.32961 1.49815 3.20251 1.43573C 3.07541 1.43573 2.88475 1.43573 2.50344 1.623C 2.12213 1.74785 1.80438 1.87269 1.55017 1.99753C 1.42307 2.05995 1.29596 2.05996 1.23241 2.05996C 1.10531 2.05996 1.10531 1.99753 1.10531 1.87269C 1.16886 1.68542 1.29596 1.49815 1.55017 1.31088C 2.24924 0.811501 2.94831 0.436965 3.64737 0.249696C 4.34644 3.81372e-06 4.98196 -0.0624211 5.42682 0.0624249C 5.61747 0.124848 5.74458 0.249692 5.87168 0.499384C 5.99878 0.749076 6.06234 0.936349 5.99878 1.18604C 5.99878 1.24846 5.93523 1.31088 5.93523 1.3733C 5.55392 1.81026 5.04551 2.4345 4.34644 3.30842C 3.64737 4.11992 3.32962 4.55688 2.63055 5.36838C 2.50345 5.55565 2.37634 5.74292 2.31279 5.86776C 2.24924 6.05503 2.31279 6.11746 2.43989 6.17988C 2.63055 6.2423 2.88475 6.11745 3.32962 5.80534C 3.77448 5.49322 4.47354 4.99384 5.42682 4.30719C 5.99878 3.87023 6.57075 3.43326 7.14271 2.93388C 7.71468 2.43449 8.15954 2.05995 8.4773 1.68542C 8.7315 1.43572 8.92216 1.24846 9.11281 1.12361C 9.30347 0.998768 9.43057 0.99877 9.62122 0.99877C 9.87543 1.06119 10.0025 1.18604 10.1932 1.43573C 10.3203 1.68542 10.3838 1.87269 10.3203 2.05996C 10.3203 2.12238 10.2567 2.12238 10.2567 2.24723C 8.98571 4.0575 8.35019 4.93142 7.07916 6.74168C 7.01561 6.86653 6.95206 6.92895 6.95206 7.0538C 6.95206 7.17864 6.95206 7.24107 7.01561 7.24107C 7.20626 7.30349 7.52402 7.17864 8.09599 6.99137C 8.66795 6.8041 9.11281 6.55441 9.43057 6.36714C 9.49412 6.36714 9.49412 6.30472 9.49412 6.30472C 9.55767 6.30472 9.62122 6.36714 9.62122 6.42957C 9.68478 6.49199 9.68478 6.55442 9.68478 6.61684C 9.62123 6.80411 9.43057 6.99138 9.04926 7.24107C 8.66795 7.49076 8.22309 7.67803 7.77823 7.80287C 7.33337 7.99014 6.95206 8.05257 6.6343 8.05257C 6.18944 8.17741 5.74458 8.23983 5.36327 8.11499C 5.10906 8.05256 4.85485 7.92772 4.72775 7.80287C 4.6642 7.80287 4.6642 7.74045 4.60065 7.6156C 4.60065 7.49075 4.60065 7.42833 4.60065 7.30349C 4.60065 7.17864 4.6642 7.11622 4.6642 7.11622C 4.7913 6.92896 4.91841 6.80411 5.04551 6.61684C 5.80813 5.61807 6.38009 4.99384 6.6343 4.6193L 6.69785 4.55688C 6.69785 4.49446 6.69785 4.43203 6.6343 4.43203C 6.57075 4.43203 6.5072 4.43203 6.44365 4.49445C 4.91841 5.61806 3.71092 6.36714 2.88475 6.86653C 2.05858 7.36591 1.35952 7.55318 0.851104 7.36591C 0.533345 7.42834 0.279138 7.24106 0.152034 6.86653Z"/>
<path id="path5_fill" d="M 0.277127 6.92896C 0.0229208 6.67926 -0.0406318 6.36714 0.0229198 6.05503C 0.0864715 5.74291 0.213579 5.55565 0.404233 5.36838C 0.594888 5.18111 0.785539 5.11869 0.976194 5.18111C 1.03975 5.18111 1.16685 5.24353 1.2304 5.4308C 1.3575 5.55564 1.42106 5.68049 1.54816 5.86776C 1.73881 6.11745 1.92947 6.36714 2.12013 6.49199C 2.31078 6.67926 2.50144 6.74168 2.69209 6.8041C 2.9463 6.86652 3.13695 6.8041 3.32761 6.67926C 3.51826 6.55441 3.64537 6.36715 3.64537 6.11745C 3.70892 5.80534 3.58181 5.1811 3.2005 4.30718C 2.88274 3.49568 2.69209 2.80903 2.81919 2.30965C 2.88274 1.87269 3.2005 1.49815 3.64537 1.12362C 4.09023 0.749078 4.59864 0.49938 5.10705 0.249688C 5.61546 0.0624192 6.06033 1.77417e-14 6.31453 1.77417e-14C 6.56874 0.062423 6.82294 0.124846 7.0136 0.312115C 7.2678 0.499384 7.39491 0.624226 7.58556 0.873918C 7.71267 1.06119 7.77622 1.24846 7.77622 1.3733C 7.71267 1.56057 7.58556 1.74785 7.33136 1.93512C 7.07715 2.12239 6.82294 2.24723 6.63229 2.1848C 6.44163 2.12238 6.25098 1.93512 6.12388 1.623C 6.06033 1.43573 5.93322 1.31088 5.80612 1.18603C 5.67902 1.06119 5.55191 0.998768 5.36126 0.936345C 5.1706 0.873922 4.97995 0.936343 4.85285 1.06119C 4.72574 1.18603 4.59864 1.31088 4.59864 1.49815C 4.53509 1.74784 4.72574 2.30965 5.17061 3.24599C 5.61547 4.18234 5.74257 4.86899 5.67902 5.4308C 5.61546 5.80534 5.36126 6.17988 4.85285 6.55441C 4.40799 6.92895 3.83602 7.17865 3.2005 7.36591C 2.56498 7.55318 1.92947 7.55318 1.35751 7.42833C 0.912646 7.36591 0.531334 7.17865 0.277127 6.92896Z"/>
<path id="path6_fill" d="M 0.254206 9.42587C 0.0635516 9.17618 -9.69721e-07 8.92649 -9.69721e-07 8.73922C -9.69721e-07 8.61438 0.0635536 8.48953 0.127105 8.36468C 0.190657 8.23983 0.254205 8.05257 0.381308 7.92772C 1.46169 6.17988 1.9701 5.30595 3.05048 3.49569C 3.11403 3.43326 3.11403 3.37084 3.11403 3.30841C 3.11403 3.24599 3.11403 3.18358 3.05048 3.12115C 2.98693 3.05873 2.92337 3.05873 2.85982 3.05873C 2.54206 2.9963 2.35141 2.93388 1.9701 2.87146C 1.77944 2.80903 1.71589 2.74661 1.65234 2.68418C 1.58879 2.62176 1.58879 2.55934 1.58879 2.4345C 1.58879 2.4345 1.65234 2.37207 1.7159 2.24723C 1.843 2.1848 1.90655 2.12238 2.0972 2.05995C 2.22431 1.99753 2.35141 1.99754 2.47851 1.99754C 2.79627 2.05996 2.98693 2.05996 3.30469 2.12238C 3.49534 2.12238 3.55889 2.12238 3.68599 2.12238C 3.8131 2.12238 3.87665 1.99754 4.00375 1.81027C 4.25796 1.43573 4.38506 1.24846 4.63927 0.873922C 4.82992 0.686653 5.02058 0.436961 5.40189 0.249692C 5.71964 0.062423 5.97385 3.81e-06 6.16451 3.81e-06C 6.29161 3.81e-06 6.35516 0.0624192 6.41871 0.187265C 6.48226 0.312111 6.48227 0.374538 6.48227 0.561807C 6.48227 0.686653 6.41871 0.749076 6.35516 0.873922C 6.10095 1.37331 5.97385 1.623 5.65609 2.18481C 5.65609 2.24723 5.59254 2.30965 5.59254 2.37207C 5.59254 2.49692 5.6561 2.55934 5.84675 2.62177C 6.16451 2.68419 6.54582 2.74661 7.11778 2.93388C 7.30844 2.99631 7.49909 3.05873 7.56264 3.12115C 7.62619 3.18358 7.62619 3.246 7.62619 3.37084C 7.62619 3.43326 7.56264 3.49569 7.49909 3.55811C 7.43554 3.62054 7.30844 3.62053 7.11778 3.62053C 6.54582 3.55811 6.10095 3.55811 5.78319 3.49569C 5.59254 3.49569 5.40189 3.49569 5.27478 3.49569C 5.14768 3.55811 5.08413 3.62054 5.02058 3.74538C 4.13086 5.24353 3.74954 6.05503 2.85982 7.55318C 2.73272 7.74045 2.66917 7.92772 2.66917 8.05256C 2.60562 8.23983 2.73272 8.36468 2.92337 8.42711C 3.24113 8.48953 3.9402 8.17741 5.02058 7.49076C 5.08413 7.42834 5.14768 7.42833 5.21123 7.42833C 5.27479 7.42833 5.27478 7.42834 5.33834 7.49076C 5.40189 7.55318 5.40189 7.6156 5.40189 7.67802C 5.40189 7.80287 5.33834 7.8653 5.27478 7.92772C 5.08413 8.23984 4.70282 8.55194 4.13085 8.92648C 3.55889 9.30102 2.98693 9.55072 2.41496 9.80041C 1.77945 9.98768 1.33458 10.1125 0.889723 10.0501C 0.699068 9.86283 0.444861 9.67556 0.254206 9.42587Z"/>
<path id="path7_fill" d="M 0.977108 7.40337C 0.65935 7.15368 0.405141 6.84156 0.214486 6.46703C 0.0238309 6.09249 -0.0397178 5.71794 0.0238338 5.40583C 0.150937 4.46948 0.532244 3.53314 1.16776 2.65922C 1.80328 1.7853 2.5659 1.09864 3.39207 0.599259C 4.28179 0.0998749 5.10796 -0.0873903 5.93413 0.0374557C 6.56965 0.0998787 7.01451 0.28715 7.26871 0.536841C 7.58647 0.786533 7.65003 1.16107 7.65003 1.47319C 7.58648 2.22226 7.07806 2.72165 6.18834 3.03376C 5.29862 3.34588 4.15469 3.53314 2.8201 3.59556C 2.693 3.59556 2.62945 3.65799 2.5659 3.72041C 2.37524 4.09495 2.24814 4.40706 2.18458 4.71918C 2.12103 5.15614 2.18459 5.53068 2.37524 5.8428C 2.5659 6.15491 2.88365 6.34218 3.32852 6.4046C 3.70983 6.46702 4.02758 6.4046 4.40889 6.27975C 4.72665 6.15491 5.10796 5.96764 5.42572 5.65552C 5.55282 5.53068 5.67993 5.46825 5.80703 5.46825C 5.93413 5.46825 5.99768 5.53068 5.93413 5.65552C 5.93413 5.78037 5.87058 5.8428 5.87058 5.8428C 5.36217 6.52945 4.79021 7.02883 4.15469 7.34094C 3.51917 7.71548 2.75655 7.84033 1.99393 7.71548C 1.67617 7.77791 1.29487 7.65306 0.977108 7.40337ZM 5.04441 2.59679C 5.67992 2.3471 5.99769 1.84772 6.06124 1.22349C 6.06124 1.09864 6.06123 0.911376 5.99768 0.78653C 5.93413 0.661684 5.80703 0.599264 5.67992 0.536841C 5.36217 0.474418 5.04441 0.599264 4.6631 0.848956C 4.28179 1.09865 3.96403 1.41076 3.64627 1.7853C 3.32852 2.15984 3.13786 2.53437 3.07431 2.90891C 3.07431 2.90891 3.07431 2.90891 3.07431 2.97133C 3.07431 3.03376 3.13786 3.03376 3.20141 3.03376C 3.77338 3.03376 4.40889 2.90891 5.04441 2.59679Z"/>
<path id="path8_fill" d="M 12.7221 5.61807C 12.6586 5.68049 12.6586 5.6805 12.7221 5.80534C 13.1034 6.49199 13.2941 7.24107 13.2305 8.11499C 13.2305 9.30103 12.9128 10.3622 12.2773 11.2361C 11.6417 12.1101 10.8156 12.7967 9.73519 13.2337C 8.65481 13.6706 7.44734 13.8579 6.11275 13.7955C 4.84172 13.7331 3.76134 13.4834 2.80807 12.984C 1.85479 12.4846 1.15572 11.8604 0.647309 11.0489C 0.138896 10.2374 -0.0517589 9.36345 0.0117927 8.4271C 0.0753443 7.74045 0.266001 7.0538 0.520208 6.49199C 0.837966 5.86776 1.15573 5.36838 1.66414 4.99384C 1.53704 4.49446 1.47348 3.93265 1.53703 3.30842C 1.60058 2.68419 1.79124 2.05996 2.17255 1.56058C 2.55386 1.06119 3.06227 0.686649 3.63424 0.374534C 4.2062 0.124842 4.84172 1.905e-06 5.54079 1.905e-06C 6.1763 0.0624249 6.68472 0.24969 7.06603 0.561805C 7.44734 0.936343 7.57444 1.3733 7.57444 1.93511C 7.57444 2.24722 7.44733 2.49692 7.25668 2.62177C 7.06602 2.80903 6.87537 2.87145 6.55761 2.87145C 6.36696 2.87145 6.23986 2.80903 6.11275 2.62177C 5.98565 2.49692 5.9221 2.30965 5.9221 2.18481C 5.9221 1.93511 5.85854 1.68542 5.73144 1.49815C 5.60434 1.31088 5.35013 1.18603 5.15948 1.18603C 4.46041 1.12361 3.88844 1.31089 3.44358 1.74785C 2.99872 2.12239 2.68096 2.74661 2.68096 3.43327C 2.68096 3.74538 2.68096 4.05749 2.68096 4.30718C 3.25293 3.99507 3.88845 3.87023 4.52396 3.93265C 5.22303 3.99507 5.73144 4.18234 6.0492 4.49445C 6.36695 4.80657 6.55761 5.24353 6.55761 5.68049C 6.55761 6.17987 6.30341 6.55442 5.9221 6.86653C 5.47723 7.17865 5.03237 7.30349 4.46041 7.30349C 3.95199 7.24107 3.50713 7.11622 3.06227 6.86653C 2.68096 6.61684 2.3632 6.2423 2.109 5.80534C 1.79124 6.2423 1.60058 6.86652 1.60058 7.55318C 1.53703 8.23983 1.66414 8.92649 2.04545 9.55072C 2.36321 10.175 2.93517 10.6743 3.76134 11.1113C 4.58751 11.5483 5.66789 11.7355 6.93892 11.798C 8.08285 11.8604 9.03612 11.6731 9.86229 11.361C 10.6885 10.9864 11.324 10.4871 11.7688 9.86284C 12.2137 9.23861 12.4044 8.48952 12.4679 7.74045C 12.4679 7.0538 12.2773 6.49199 11.8959 6.05503C 11.5146 5.61807 10.9427 5.36837 10.1165 5.36837C 9.67164 5.36837 9.29033 5.49322 8.97258 5.74291C 8.65482 5.99261 8.52771 6.30472 8.46416 6.67926C 8.46416 6.92895 8.52771 7.11622 8.65482 7.30349C 8.78192 7.49076 9.03613 7.55318 9.29033 7.55318C 9.41744 7.55318 9.48098 7.55318 9.54454 7.49076C 9.60809 7.42834 9.67164 7.36591 9.73519 7.30349C 9.79874 7.24107 9.86229 7.17865 9.86229 7.17865C 9.9894 7.0538 10.0529 6.99137 10.1801 6.92895C 10.2436 6.86652 10.3707 6.80411 10.4978 6.86653C 10.8156 6.86653 11.0062 6.92895 11.1969 7.11622C 11.324 7.24106 11.3875 7.49076 11.3875 7.74045C 11.3875 8.05256 11.2604 8.36468 11.0062 8.61438C 10.752 8.86407 10.4343 8.92649 10.053 8.92649C 9.35388 8.92649 8.71837 8.6768 8.33706 8.30226C 7.8922 7.8653 7.70154 7.36591 7.70154 6.8041C 7.76509 5.86776 8.08285 5.18111 8.71837 4.68173C 9.35388 4.18234 10.1801 3.93265 11.0698 3.99507C 11.7053 3.99507 12.0231 3.99507 12.6586 3.99507C 13.6118 3.99507 14.3745 3.87022 14.8193 3.55811C 15.2642 3.246 15.5184 2.74661 15.5184 2.12238C 15.5184 1.81026 15.4548 1.56057 15.2006 1.31088C 14.9464 1.06119 14.7558 0.998764 14.5016 0.998764C 14.3745 0.998764 14.2474 0.998772 14.1838 1.12362C 14.1203 1.18604 14.0567 1.24846 14.0567 1.37331C 14.0567 1.56057 14.1203 1.68542 14.3109 1.81026C 14.438 1.87269 14.5016 1.93512 14.5651 2.05996C 14.6287 2.18481 14.6287 2.24723 14.6287 2.37208C 14.6287 2.55935 14.5651 2.74661 14.3745 2.93388C 14.1838 3.12115 13.9931 3.18357 13.6754 3.18357C 13.3576 3.18357 13.1034 3.05872 12.9128 2.87145C 12.7221 2.68418 12.6586 2.37208 12.6586 2.05996C 12.6586 1.623 12.8492 1.24846 13.167 0.936347C 13.4847 0.624232 13.9296 0.436965 14.5016 0.499388C 15.01 0.499388 15.4548 0.686657 15.7726 1.12362C 16.0904 1.49816 16.281 2.05996 16.281 2.74661C 16.281 3.62053 16.0268 4.30719 15.4548 4.869C 14.8829 5.4308 14.1203 5.68049 13.2941 5.68049C 12.9128 5.55564 12.7857 5.61807 12.7221 5.61807ZM 2.68096 5.11868C 2.87162 6.05503 3.44358 6.55441 4.3333 6.61683C 4.71461 6.61683 4.96882 6.55441 5.22303 6.36714C 5.47723 6.17988 5.54079 5.9926 5.60434 5.68049C 5.60434 5.4308 5.54079 5.18111 5.28658 4.99384C 5.09592 4.80657 4.77817 4.68173 4.39686 4.68173C 3.76134 4.6193 3.18938 4.74415 2.68096 5.11868Z"/>
<path id="path9_fill" d="M 0.317754 13.4209C 0.127099 13.2961 -3.87888e-06 13.1088 -3.87888e-06 12.9216C -3.87888e-06 12.6095 0.0635535 12.1725 0.254208 11.6107C 1.27103 8.23984 1.77944 6.55441 2.73272 3.12115C 2.85982 2.55934 2.92337 2.1848 2.92337 1.99753C 2.92337 1.87269 2.85982 1.74784 2.73272 1.68542C 2.60561 1.623 2.41496 1.56058 2.2243 1.43573C 1.9701 1.37331 1.843 1.31088 1.843 1.18603C 1.843 1.12361 1.84299 1.06119 1.90654 0.998772C 1.9701 0.936349 2.0972 0.873924 2.28786 0.811501C 2.60562 0.686655 3.05048 0.499384 3.68599 0.312115C 4.32151 0.124846 4.70282 5.3225e-14 4.89348 5.3225e-14C 5.14768 5.3225e-14 5.33834 0.0624249 5.33834 0.187271C 5.33834 0.312117 5.33833 0.499384 5.27478 0.62423C 5.21123 0.749076 5.21124 0.873918 5.21124 0.873918C 4.32151 4.18234 3.87664 5.86776 2.85982 9.17618L 2.85982 9.2386C 2.85982 9.30103 2.85982 9.30102 2.92337 9.30102C 2.98693 9.30102 3.05048 9.2386 3.05048 9.17618C 3.8131 7.99014 4.57571 6.99137 5.40188 6.2423C 6.22805 5.49322 6.92712 5.05627 7.62619 5.05627C 8.07105 5.05627 8.45236 5.18111 8.77012 5.4308C 9.02433 5.74291 9.21498 6.05503 9.21498 6.49199C 9.27853 7.42833 9.15143 8.36468 8.77012 9.30102C 8.38881 10.2374 7.94395 11.1113 7.37199 11.8604C 7.24488 11.9852 7.05423 12.1725 6.67292 12.4846C 6.29161 12.7343 5.97385 12.984 5.59254 13.1713C 5.21123 13.3585 4.89348 13.4834 4.70282 13.4834C 4.51217 13.4834 4.25796 13.4209 4.00375 13.2337C 3.74954 13.0464 3.62245 12.8591 3.62245 12.7343C 3.62245 12.6094 3.68599 12.4846 3.81309 12.2349C 3.9402 12.0476 4.0673 11.9228 4.19441 11.9228C 4.32151 11.9228 4.38506 11.9228 4.44861 11.9852C 4.51216 12.0476 4.57571 12.0476 4.63927 12.1101C 4.70282 12.1725 4.76637 12.1725 4.76637 12.2349C 4.89347 12.3598 5.02057 12.4222 5.08413 12.4846C 5.14768 12.547 5.27479 12.547 5.33834 12.547C 5.59254 12.547 5.84675 12.2349 6.16451 11.5483C 6.41872 10.924 6.67292 10.1749 6.86357 9.30102C 7.05423 8.4271 7.11778 7.67802 7.05423 7.11622C 7.05423 6.86652 6.99068 6.67926 6.86357 6.55441C 6.73647 6.42957 6.60937 6.36714 6.41871 6.36714C 6.0374 6.36714 5.52899 6.86653 4.89348 7.80287C 4.25796 8.73922 3.49534 9.98767 2.60562 11.4858C 2.41496 11.7979 2.28786 11.9852 2.0972 12.3597C 1.84299 12.8591 1.58879 13.1712 1.39814 13.3585C 1.20748 13.5458 1.01683 13.6706 0.889725 13.6706C 0.69907 13.6706 0.508409 13.6082 0.317754 13.4209Z"/>
<path id="path10_fill" d="M 1.47373 8.25167C 1.09242 8.0644 0.711115 7.75227 0.456908 7.44016C 0.202702 7.06562 0.0755908 6.69109 0.0120392 6.19171C -0.0515124 5.38021 0.139144 4.50629 0.520454 3.56994C 0.901764 2.6336 1.47373 1.82209 2.23635 1.13544C 2.99897 0.448788 3.82514 0.0742484 4.84197 0.0118254C 5.60459 -0.0505976 6.2401 0.136673 6.74851 0.511211C 7.25693 0.885749 7.57468 1.50998 7.63823 2.25906C 7.70179 3.07056 7.57468 3.94448 7.19337 4.88082C 6.81206 5.81717 6.2401 6.62867 5.47748 7.31532C 4.71486 8.00198 3.76159 8.37651 2.68121 8.43893C 2.29991 8.50135 1.85504 8.43894 1.47373 8.25167ZM 4.33355 6.62867C 4.77841 5.87959 5.09617 5.06809 5.28683 4.06932C 5.54103 3.07055 5.60459 2.25906 5.54104 1.50998C 5.47749 0.885753 5.22327 0.636059 4.77841 0.698482C 4.3971 0.760905 4.0158 1.07302 3.57093 1.8221C 3.12607 2.50875 2.80831 3.38267 2.5541 4.31902C 2.2999 5.31779 2.17279 6.12928 2.23635 6.94078C 2.2999 7.56501 2.55411 7.87712 3.06252 7.8147C 3.50738 7.75228 3.95224 7.37774 4.33355 6.62867Z"/>
<path id="path11_fill" d="M 0.889725 8.82416C 0.635518 8.63689 0.508417 8.38719 0.444865 8.1375C 0.444865 8.01265 0.444865 7.95023 0.444865 7.82538C 1.08038 5.76543 1.33458 4.76666 1.9701 2.7067C 2.03365 2.51943 2.03366 2.39459 2.03366 2.33217C 2.03366 2.20732 1.9701 2.1449 1.77944 2.1449C 1.52524 2.1449 1.27104 2.26975 1.08038 2.33217C 0.826175 2.45701 0.635516 2.64428 0.38131 3.01882C 0.317758 3.08124 0.254205 3.14366 0.190653 3.14366C 0.127101 3.14366 0.127103 3.14367 0.0635516 3.08124C 0 3.01882 -3.87888e-06 3.01882 -3.87888e-06 2.9564C -3.87888e-06 2.83155 0.0635555 2.64428 0.127107 2.45701C 0.25421 2.20732 0.381314 2.02005 0.444865 1.83278C 1.01683 1.08371 1.77944 0.646746 2.73272 0.584323C 2.98692 0.5219 3.24113 0.584325 3.43179 0.771594C 3.62244 0.89644 3.74955 1.14613 3.74955 1.39582C 3.74955 1.52067 3.74954 1.70794 3.68599 1.83278C 3.36823 2.9564 3.24113 3.5182 2.92337 4.64182L 2.92337 4.70423C 2.92337 4.76666 2.98692 4.76666 3.05048 4.76666C 3.11403 4.76666 3.17758 4.70424 3.24113 4.64182C 4.51216 1.70794 5.71964 0.20978 6.99067 0.0225109C 7.43554 -0.0399121 7.7533 0.0225166 8.0075 0.272209C 8.26171 0.521901 8.45237 0.834015 8.51592 1.20855C 8.57947 1.58309 8.57947 1.8952 8.45236 2.20732C 8.07105 3.70547 7.81685 4.45454 7.43554 5.95269C 7.37199 6.13996 7.37199 6.26482 7.37199 6.38966C 7.37199 6.51451 7.43554 6.57692 7.62619 6.57692C 7.81685 6.57692 8.07105 6.38966 8.45236 6.01512C 8.83367 5.70301 9.08788 5.45332 9.21498 5.26605C 9.34208 5.1412 9.40564 5.07877 9.46919 5.01635C 9.53274 5.01635 9.53274 5.01635 9.59629 5.07878C 9.65985 5.1412 9.65985 5.1412 9.65985 5.20362C 9.65985 5.39089 9.65984 5.57816 9.53274 5.76543C 9.08788 6.51451 8.51591 7.13874 7.81685 7.63812C 7.18133 8.13751 6.48227 8.44962 5.84675 8.51204C 5.6561 8.51204 5.40189 8.51203 5.21124 8.38719C 5.02058 8.26234 4.89348 8.07508 4.89348 7.88781C 4.89348 7.82539 4.89348 7.70054 4.89348 7.70054C 5.27479 6.5145 5.46544 5.82785 5.59254 5.57816C 6.0374 4.3297 6.35516 3.14367 6.60937 2.1449C 6.67292 1.89521 6.67292 1.70794 6.67292 1.52067C 6.67292 1.3334 6.54581 1.20855 6.35516 1.27097C 6.1645 1.27097 5.9103 1.45824 5.6561 1.77036C 5.40189 2.08247 5.08413 2.58186 4.70282 3.26851C 4.51217 3.64305 4.1944 4.26728 3.68599 5.26605C 3.17758 6.26482 2.79627 7.13874 2.41496 7.95024C 2.28786 8.32478 2.0972 8.57446 1.9701 8.76173C 1.843 8.949 1.65234 9.07384 1.46169 9.07384C 1.39813 9.07384 1.14393 9.01142 0.889725 8.82416Z"/>
<path id="path12_fill" d="M 1.20748 9.19959C 0.953276 9.01232 0.762623 8.82505 0.762623 8.57536C 0.762623 8.45052 0.762623 8.38809 0.762623 8.26325C 1.27104 6.20329 1.52524 5.1421 1.9701 3.08214C 2.03365 2.89487 2.03365 2.77002 1.9701 2.70759C 1.9701 2.58275 1.843 2.52032 1.7159 2.52032C 1.46169 2.58275 1.27103 2.64518 1.01683 2.77002C 0.762619 2.89487 0.571965 3.14455 0.38131 3.45667C 0.317758 3.51909 0.254205 3.58152 0.190653 3.58152C 0.127101 3.58152 0.127103 3.58152 0.0635516 3.5191C 0 3.5191 -3.87888e-06 3.45667 -3.87888e-06 3.39425C -3.87888e-06 3.26941 3.8732e-06 3.08213 0.127107 2.83244C 0.25421 2.58275 0.317762 2.39548 0.444865 2.20821C 0.953278 1.45913 1.7159 0.959752 2.66917 0.834906C 2.92338 0.772483 3.17758 0.834904 3.36823 0.95975C 3.55889 1.0846 3.686 1.27187 3.74955 1.52156C 3.74955 1.64641 3.74955 1.83368 3.74955 1.95852C 3.49534 3.08213 3.36823 3.64395 3.17758 4.82998L 3.17758 4.8924C 3.17758 4.95482 3.24114 4.95483 3.30469 4.95483C 3.36824 4.95483 3.43179 4.89241 3.43179 4.82998C 4.57572 1.83368 5.6561 0.273097 6.92713 0.0234048C 7.37199 -0.0390182 7.68974 0.0234067 7.94395 0.210676C 8.19816 0.397945 8.38881 0.71006 8.45236 1.14702C 8.51592 1.52156 8.51592 1.83368 8.45236 2.14579C 8.13461 3.64394 7.94395 4.39301 7.62619 5.95359C 7.56264 6.14086 7.56264 6.26571 7.62619 6.39056C 7.62619 6.5154 7.7533 6.57782 7.8804 6.57782C 8.07106 6.5154 8.32527 6.32813 8.70658 6.01602C 9.08789 5.64148 9.27854 5.39178 9.40564 5.20451C 9.53274 5.07967 9.5963 4.95483 9.65985 4.95483C 9.7234 4.95483 9.7234 4.95482 9.78695 5.01724C 9.8505 5.07967 9.8505 5.07967 9.8505 5.1421C 9.91405 5.32937 9.8505 5.51663 9.78695 5.7039C 9.34209 6.45298 8.83368 7.07721 8.19816 7.63902C 7.56265 8.20082 6.92713 8.51293 6.29161 8.63778C 6.10096 8.7002 5.84675 8.63778 5.6561 8.51293C 5.46544 8.38809 5.33833 8.26324 5.27478 8.07598C 5.27478 8.01355 5.27478 7.95113 5.27478 7.8887C 5.59254 6.70267 5.7832 5.95359 5.84675 5.7039C 6.22806 4.39302 6.48226 3.2694 6.67292 2.20821C 6.73647 1.95852 6.73647 1.77125 6.67292 1.58398C 6.60937 1.39671 6.48226 1.27187 6.35516 1.33429C 6.1645 1.39671 5.9103 1.52156 5.71964 1.89609C 5.52899 2.20821 5.21123 2.77002 4.82992 3.45667C 4.63927 3.83121 4.32151 4.51786 3.9402 5.51663C 3.49534 6.5154 3.11403 7.45175 2.79627 8.26325C 2.66917 8.63778 2.54207 8.88747 2.35141 9.07474C 2.22431 9.26201 2.03365 9.38685 1.90654 9.38685C 1.71589 9.44928 1.46169 9.38686 1.20748 9.19959Z"/>
<path id="path13_fill" d="M 1.7632 13.4468C 1.38189 13.322 1.00058 13.1347 0.68282 12.8226C 0.365062 12.5729 0.174411 12.1983 0.110859 11.8862C -0.0797958 10.9499 -0.0162461 9.95111 0.23796 8.95234C 0.492167 7.89115 1.00058 7.01723 1.63609 6.26815C 2.27161 5.51908 2.97067 5.01969 3.79685 4.83242C 4.36881 4.70758 4.87722 4.70758 5.25853 4.83242C 5.63984 4.95727 5.8305 5.26939 5.95761 5.58151C 6.14826 6.26816 5.89405 6.95481 5.13143 7.51661C 4.43237 8.07842 3.41554 8.70265 2.20805 9.20203C 2.08095 9.26445 2.01741 9.32688 2.01741 9.3893C 1.95386 9.82626 1.95386 10.1384 2.01741 10.4505C 2.08096 10.8875 2.27161 11.262 2.58937 11.4493C 2.90713 11.699 3.22488 11.7614 3.66974 11.6365C 4.05105 11.5741 4.36881 11.3868 4.62302 11.1371C 4.87722 10.8875 5.13144 10.5753 5.32209 10.2008C 5.38564 10.0135 5.51275 9.95111 5.63985 9.88869C 5.76695 9.88869 5.83051 9.88869 5.83051 10.0135C 5.83051 10.1384 5.83051 10.2008 5.83051 10.2632C 5.5763 11.0747 5.25853 11.699 4.75012 12.2608C 4.24171 12.8226 3.60619 13.1971 2.84357 13.3844C 2.52581 13.5716 2.14451 13.5716 1.7632 13.4468ZM 3.8604 7.57904C 4.30526 7.07966 4.49592 6.58027 4.30526 5.95604C 4.24171 5.83119 4.17816 5.70635 4.05106 5.58151C 3.92395 5.51908 3.79685 5.45666 3.66974 5.51908C 3.35199 5.5815 3.09778 5.83119 2.84357 6.14331C 2.58936 6.51785 2.33516 6.89238 2.20805 7.39177C 2.08095 7.89115 2.01741 8.26569 2.01741 8.64023C 2.01741 8.64023 2.01741 8.64023 2.01741 8.70266C 2.01741 8.76508 2.08096 8.76507 2.14451 8.76507C 2.84358 8.39053 3.35199 8.016 3.8604 7.57904ZM 4.36882 0.0882813C 4.43237 0.150704 4.55947 0.337975 4.68657 0.587667C 5.19499 1.58643 5.63984 2.3355 5.89405 2.95973C 5.9576 3.147 5.95761 3.27186 5.95761 3.3967C 5.95761 3.52155 5.89405 3.58397 5.76695 3.64639C 5.57629 3.70881 5.38564 3.58396 5.19499 3.27185C 4.87723 2.89731 4.55946 2.46035 4.1146 2.02339C 4.05105 1.96097 3.98751 1.96097 3.92396 2.08581C 3.41554 2.83489 3.16134 3.147 2.65292 3.89608C 2.39872 4.27062 2.20806 4.52031 2.01741 4.52031C 1.8903 4.52031 1.82675 4.52032 1.7632 4.33305C 1.69964 4.2082 1.7632 4.02093 1.82675 3.83366C 2.20806 3.08458 2.65292 2.14824 3.22488 1.02463C 3.54264 0.400396 3.79685 0.0882775 3.9875 0.0258545C 4.24171 -0.0365684 4.30526 0.0258583 4.36882 0.0882813Z"/>
<path id="path14_fill" d="M 1.58879 10.6743C 1.27104 10.4871 1.14393 10.3622 1.08038 10.1749C 1.08038 10.0501 1.01683 9.92526 1.08038 9.80041C 1.08038 9.67557 1.08037 9.48829 1.14393 9.30103C 1.39813 7.24107 1.46169 6.2423 1.7159 4.18234C 1.7159 4.11992 1.7159 4.05749 1.7159 3.99507C 1.7159 3.93265 1.65235 3.87023 1.58879 3.87023C 1.52524 3.87023 1.46169 3.87023 1.39814 3.87023C 1.08038 3.93265 0.889719 3.99508 0.508409 4.0575C 0.317754 4.11992 0.190657 4.0575 0.127105 4.0575C 0.0635536 3.99508 3.87888e-06 3.93265 3.87888e-06 3.87023C 3.87888e-06 3.87023 -1.94134e-06 3.74538 0.0635497 3.68296C 0.127101 3.55811 0.190659 3.43326 0.317762 3.37084C 0.444865 3.246 0.508417 3.18357 0.63552 3.18357C 0.953278 3.12115 1.14393 3.05872 1.46168 2.9963C 1.65234 2.93388 1.71589 2.93388 1.77944 2.87146C 1.84299 2.80903 1.90655 2.68419 1.90655 2.49692C 1.9701 2.05996 2.03365 1.81027 2.0972 1.37331C 2.16075 1.12362 2.28786 0.811495 2.54207 0.49938C 2.73272 0.187265 2.92337 3.81e-06 3.11403 3.81e-06C 3.24113 3.81e-06 3.30468 -1.90686e-06 3.43179 0.0624211C 3.49534 0.124844 3.55889 0.24969 3.62244 0.374536C 3.62244 0.499382 3.686 0.561805 3.62244 0.686651C 3.62244 1.24846 3.55889 1.56057 3.55889 2.12238C 3.55889 2.1848 3.55889 2.24723 3.55889 2.30965C 3.62244 2.4345 3.68599 2.4345 3.87665 2.4345C 4.13085 2.37207 4.57571 2.24723 5.14768 2.18481C 5.40189 2.18481 5.52899 2.18481 5.59254 2.18481C 5.65609 2.18481 5.71965 2.24722 5.71965 2.37207C 5.71965 2.43449 5.71965 2.49692 5.65609 2.55934C 5.59254 2.62176 5.52899 2.74661 5.33834 2.74661C 4.82992 2.93388 4.38507 3.05872 4.13086 3.18357C 3.9402 3.24599 3.74954 3.30842 3.68599 3.43327C 3.62244 3.49569 3.55889 3.62054 3.49534 3.74538C 3.36824 5.49323 3.24113 6.36715 3.11403 8.11499C 3.11403 8.36468 3.11403 8.55195 3.11403 8.6768C 3.17758 8.86406 3.30469 8.92648 3.49534 8.92648C 3.8131 8.86406 4.32151 8.23984 5.02058 7.17865C 5.08413 7.11622 5.08413 7.05379 5.14768 7.05379C 5.21123 7.05379 5.21123 7.05379 5.27478 7.05379C 5.33833 7.05379 5.33834 7.11622 5.40189 7.17865C 5.40189 7.30349 5.40189 7.36592 5.40189 7.49076C 5.33834 7.8653 5.14768 8.30226 4.76638 8.86407C 4.44862 9.42587 4.00375 9.92525 3.55889 10.3622C 3.11403 10.7992 2.66917 11.0489 2.28786 11.1737C 2.0972 10.8616 1.843 10.7992 1.58879 10.6743Z"/>
<path id="path15_fill" d="M 2.00482 8.88865C 1.62351 8.7638 1.2422 8.63896 0.860892 8.38926C 0.543134 8.13957 0.288927 7.82746 0.225375 7.45292C -0.028831 6.51657 -0.0923768 5.58023 0.16183 4.51904C 0.416036 3.45785 0.797342 2.5215 1.36931 1.71001C 1.94127 0.898507 2.64034 0.399123 3.46651 0.149431C 4.03848 -0.0378379 4.54689 -0.0378322 4.9282 0.0870138C 5.30951 0.21186 5.56372 0.46155 5.69082 0.836088C 5.94503 1.52274 5.69082 2.20939 4.99175 2.83362C 4.29268 3.45785 3.3394 4.14451 2.13192 4.76874C 2.00482 4.83116 1.94128 4.89358 1.94128 5.01843C 1.94128 5.45539 1.94127 5.76751 2.00482 6.0172C 2.13193 6.45416 2.32258 6.76627 2.64034 7.01596C 2.9581 7.20323 3.33941 7.26565 3.72071 7.1408C 4.10202 7.01596 4.35624 6.82869 4.61044 6.579C 4.86465 6.32931 5.0553 6.01719 5.24596 5.58023C 5.30951 5.39296 5.43661 5.33054 5.50016 5.26811C 5.62727 5.20569 5.69082 5.26812 5.75437 5.39297C 5.81793 5.51781 5.81793 5.58023 5.75437 5.64266C 5.56372 6.45416 5.24596 7.14081 4.8011 7.70262C 4.35624 8.26442 3.72072 8.70138 2.9581 8.95108C 2.76744 8.95108 2.38613 8.95107 2.00482 8.88865ZM 3.65717 2.83362C 4.10203 2.33424 4.22913 1.77243 4.03847 1.1482C 3.97492 1.02336 3.91137 0.898511 3.78427 0.836088C 3.65717 0.773665 3.53007 0.711238 3.33941 0.773661C 3.02165 0.836084 2.76744 1.08578 2.51324 1.46032C 2.25903 1.83486 2.06838 2.27181 1.94128 2.77119C 1.81417 3.27058 1.81417 3.64512 1.87772 4.01965C 1.87772 4.01965 1.87772 4.01966 1.87772 4.08208C 1.87772 4.1445 1.94127 4.14451 2.00482 4.14451C 2.70389 3.76997 3.21231 3.33301 3.65717 2.83362Z"/>
<path id="path16_fill" d="M 0 3.22201C 0 2.34052 0.304709 1.58061 0.944598 0.942286C 1.58449 0.303963 2.34626 -4.63811e-07 3.22992 -4.63811e-07C 4.11357 -4.63811e-07 4.87535 0.303963 5.48476 0.942286C 6.09418 1.58061 6.39889 2.34052 6.39889 3.22201C 6.39889 4.1035 6.09418 4.86341 5.48476 5.44094C 4.87535 6.01847 4.11357 6.32243 3.22992 6.32243C 2.34626 6.32243 1.58449 6.01847 0.944598 5.44094C 0.304709 4.86341 0 4.1339 0 3.22201Z"/>
<path id="path17_fill" d="M 3.71959e-06 3.22201C 3.71959e-06 2.34051 0.304713 1.58061 0.914131 0.942285C 1.52355 0.303962 2.25485 1.85524e-06 3.16898 1.85524e-06C 4.05263 1.85524e-06 4.81441 0.303962 5.45429 0.942285C 6.09418 1.58061 6.39889 2.34051 6.39889 3.22201C 6.39889 4.1035 6.09418 4.86341 5.45429 5.47134C 4.81441 6.07926 4.05263 6.38323 3.16898 6.38323C 2.28532 6.38323 1.52355 6.07926 0.914131 5.47134C 0.304713 4.89381 3.71959e-06 4.1339 3.71959e-06 3.22201Z"/>
</defs>
</svg>
