<?xml version="1.0" encoding="UTF-8" standalone="no"?>
<svg
   xmlns:dc="http://purl.org/dc/elements/1.1/"
   xmlns:cc="http://creativecommons.org/ns#"
   xmlns:rdf="http://www.w3.org/1999/02/22-rdf-syntax-ns#"
   xmlns:svg="http://www.w3.org/2000/svg"
   xmlns="http://www.w3.org/2000/svg"
   xmlns:xlink="http://www.w3.org/1999/xlink"
   xmlns:sodipodi="http://sodipodi.sourceforge.net/DTD/sodipodi-0.dtd"
   xmlns:inkscape="http://www.inkscape.org/namespaces/inkscape"
   width="352"
   height="289"
   viewBox="0 0 352 289"
   version="1.1"
   id="svg984"
   sodipodi:docname="merci.svg"
   inkscape:version="0.92.2 5c3e80d, 2017-08-06">
  <metadata
     id="metadata988">
    <rdf:RDF>
      <cc:Work
         rdf:about="">
        <dc:format>image/svg+xml</dc:format>
        <dc:type
           rdf:resource="http://purl.org/dc/dcmitype/StillImage" />
        <dc:title>Group</dc:title>
      </cc:Work>
    </rdf:RDF>
  </metadata>
  <sodipodi:namedview
     pagecolor="#ffffff"
     bordercolor="#666666"
     borderopacity="1"
     objecttolerance="10"
     gridtolerance="10"
     guidetolerance="10"
     inkscape:pageopacity="0"
     inkscape:pageshadow="2"
     inkscape:window-width="1920"
     inkscape:window-height="1080"
     id="namedview986"
     showgrid="false"
     inkscape:zoom="3.1834532"
     inkscape:cx="166"
     inkscape:cy="113.87006"
     inkscape:window-x="0"
     inkscape:window-y="0"
     inkscape:window-maximized="0"
     inkscape:current-layer="svg984" />
  <title
     id="title912">Group</title>
  <desc
     id="desc914">Created using Figma</desc>
  <g
     id="Canvas"
     transform="translate(-2619,207.00002)">
    <g
       id="Group"
       style="opacity:0.7">
      <g
         id="Vector">
        <use
           xlink:href="#path0_fill"
           transform="translate(2676.17,-157.393)"
           id="use916"
           style="fill:#e27170"
           x="0"
           y="0"
           width="100%"
           height="100%" />
      </g>
      <g
         id="g921">
        <use
           xlink:href="#path1_fill"
           transform="translate(2742.07,-158.386)"
           id="use919"
           style="fill:#e27170"
           x="0"
           y="0"
           width="100%"
           height="100%" />
      </g>
      <g
         id="g925">
        <use
           xlink:href="#path2_fill"
           transform="translate(2765.65,-168.066)"
           id="use923"
           style="fill:#e27170"
           x="0"
           y="0"
           width="100%"
           height="100%" />
      </g>
      <g
         id="g929">
        <use
           xlink:href="#path3_fill"
           transform="translate(2852.68,-167.059)"
           id="use927"
           style="fill:#e27170"
           x="0"
           y="0"
           width="100%"
           height="100%" />
      </g>
      <g
         id="g933">
        <use
           xlink:href="#path4_fill"
           transform="translate(2859.55,-195.079)"
           id="use931"
           style="fill:#e27170"
           x="0"
           y="0"
           width="100%"
           height="100%" />
      </g>
      <g
         id="g937">
        <use
           xlink:href="#path5_fill"
           transform="translate(2683.27,-51.5706)"
           id="use935"
           style="fill:#e27170"
           x="0"
           y="0"
           width="100%"
           height="100%" />
      </g>
      <g
         id="g941">
        <use
           xlink:href="#path6_fill"
           transform="translate(2639,-43.7924)"
           id="use939"
           style="fill:#e27170"
           x="0"
           y="0"
           width="100%"
           height="100%" />
      </g>
      <g
         id="g945">
        <use
           xlink:href="#path7_fill"
           transform="translate(2678.93,-26.4971)"
           id="use943"
           style="fill:#e27170"
           x="0"
           y="0"
           width="100%"
           height="100%" />
      </g>
      <g
         id="g949">
        <use
           xlink:href="#path8_fill"
           transform="translate(2694.42,-73.8203)"
           id="use947"
           style="fill:#e27170"
           x="0"
           y="0"
           width="100%"
           height="100%" />
      </g>
      <g
         id="g953">
        <use
           xlink:href="#path9_fill"
           transform="translate(2755.88,-73.8566)"
           id="use951"
           style="fill:#e27170"
           x="0"
           y="0"
           width="100%"
           height="100%" />
      </g>
      <g
         id="g957">
        <use
           xlink:href="#path10_fill"
           transform="translate(2787.34,-79.0783)"
           id="use955"
           style="fill:#e27170"
           x="0"
           y="0"
           width="100%"
           height="100%" />
      </g>
      <g
         id="g961">
        <use
           xlink:href="#path11_fill"
           transform="translate(2705.71,-207)"
           id="use959"
           style="fill:#e27170"
           x="0"
           y="0"
           width="100%"
           height="100%" />
      </g>
      <g
         id="g965">
        <use
           xlink:href="#path12_fill"
           transform="translate(2689.88,8.48064)"
           id="use963"
           style="fill:#e27170"
           x="0"
           y="0"
           width="100%"
           height="100%" />
      </g>
    </g>
  </g>
  <defs
     id="defs982">
    <path
       id="path0_fill"
       d="M 65.903,74.83 C 60.8904,62.5347 56.0422,50.4853 53.4126,37.3704 51.0296,25.6489 50.1257,13.6815 50.5366,1.7141 50.6188,-0.990864 45.2775,1.79607 44.8666,3.2715 40.6758,17.452 38.3749,32.0424 37.7175,46.7148 34.2663,33.108 32.3763,19.1734 32.1298,4.99283 32.0476,2.53378 27.2815,5.23874 26.7885,6.46827 23.1729,17.6979 20.7898,29.1735 19.5572,40.813 17.2564,27.2883 14.8734,13.7635 12.5725,0.238664 12.326,-0.662989 8.87472,1.22229 8.79254,2.04197 5.66996,21.3046 2.30085,40.5671 -6.26932e-7,59.9937 -6.26932e-7,59.8297 0.73956,59.7478 0.73956,59.5019 4.35519,43.8459 7.31342,28.026 10.3538,12.2061 c 2.8761,19.0166 5.7522,38.0333 8.7104,56.968 0.3287,2.0492 5.0126,-0.4918 4.9304,-2.2131 -0.9861,-15.1642 0.2465,-30.4103 3.4513,-45.1646 1.4791,15.492 4.9304,30.7381 10.3538,45.3285 0.0822,0.164 0.0822,0.2459 0.1644,0.4099 0.8217,2.1311 5.4234,-1.3115 5.2591,-3.0329 -0.9039,-13.5248 -0.0822,-27.0496 2.1365,-40.3284 0.5752,6.3115 1.5613,12.6231 2.9582,18.8527 2.7117,11.9674 6.4917,24.4266 12.6547,35.0825 1.1504,1.9672 5.7521,-1.3115 4.9304,-3.2787 z"
       inkscape:connector-curvature="0" />
    <path
       id="path1_fill"
       d="m 34.9269,28.527 c -0.493,-1.2295 -4.1908,1.0656 -4.1086,2.1312 0.3287,8.0329 0.3287,16.1478 -0.7396,24.0987 -0.5752,4.4263 -1.6434,13.7707 -6.656,15.9019 -3.2869,1.3935 -6.9026,-1.7213 -8.6282,-4.1804 -1.9722,-2.7869 -3.0404,-6.0657 -3.9443,-9.3444 0.3287,-0.3279 0.7395,-0.6557 0.986,-0.9836 5.177,-5.4919 7.2313,-14.6724 8.3817,-21.8856 C 21.2862,27.3795 23.2583,-7.53911 7.72758,1.47742 1.64676,5.00207 1.40025,13.6907 0.742859,19.8384 -0.161047,28.8549 0.00329678,38.0354 1.31807,47.0519 1.81111,50.3306 2.30415,54.0192 3.04371,57.5438 2.55067,57.2979 2.05763,56.9701 1.56459,56.5602 1.40025,56.3963 -0.0788752,57.2979 0.0032981,57.4619 0.825031,59.1832 2.1398,59.9209 3.61892,60.0029 4.68717,64.1833 6.24847,68.1178 8.63149,71.3145 12.8223,76.8064 20.0536,78.9376 26.2988,75.7408 32.8726,72.3801 35.8309,65.0849 37.2278,58.1996 39.2,48.2814 38.7891,37.9534 34.9269,28.527 Z M 8.63149,9.67427 C 8.79584,9.01852 9.37105,5.65782 10.0284,5.57585 c 1.3148,-0.32788 2.1365,2.54102 2.4652,3.44268 1.1505,3.27877 1.5613,6.96727 1.9722,10.40997 0.8217,7.4591 0.4109,14.9183 -1.3148,22.2135 -0.7395,3.1967 -1.6434,6.4755 -2.876,9.5903 -0.1644,0.4098 -0.32873,0.9836 -0.57525,1.4754 C 8.13846,45.9863 7.23455,39.1009 7.07021,32.2156 6.82369,24.7565 7.0702,16.9695 8.63149,9.67427 Z"
       inkscape:connector-curvature="0" />
    <path
       id="path2_fill"
       d="m 76.51,72.8797 c 3.8622,-2.3771 6.9026,-5.4919 8.4639,-9.6723 0.2465,-0.9836 0.493,-1.8853 0.7396,-2.8689 1.2326,-5.6558 2.876,-11.3936 3.3691,-17.6232 -1.1505,0.7377 -2.5474,2.3771 -2.8761,3.3607 -1.3148,4.5902 -2.5474,9.0985 -5.0126,13.3609 -2.1365,3.6066 -5.7521,8.4427 -10.6003,7.2132 -5.5878,-1.3935 -8.6282,-7.869 -10.436,-14.1806 -0.0822,-0.4098 -0.1644,-0.9016 -0.1644,-1.3115 -0.0822,-0.3278 -0.1643,-0.5737 -0.3287,-0.7377 -0.7395,-2.8689 -1.2326,-5.5738 -1.5613,-7.623 -1.89,-10.2461 -2.4652,-21.3938 -0.493,-31.6399 0.4109,-2.13115 1.0682,-5.16398 2.7117,-6.72138 2.7117,-2.62299 6.0808,-1.14756 8.4639,0.73772 2.1365,1.72134 3.6156,4.09842 4.6017,6.55746 0.986,2.3771 1.3147,5.246 2.876,7.2952 0.0822,0.082 1.1504,-0.3279 1.1504,-0.4918 C 79.3039,9.4361 71.5797,-2.61327 61.308,0.501535 51.5294,3.4524 50.5433,15.3378 49.9681,23.8625 c -0.4931,7.5411 -0.0822,23.525 4.273,35.4104 -0.2465,6.6395 -1.89,15.1642 -8.7926,13.4428 C 39.3677,71.2403 36.9025,62.7156 35.3412,57.5516 30.2465,40.912 28.603,23.1248 30.1643,5.74752 30.4108,3.12453 24.6587,5.09177 24.1657,6.89508 22.6044,13.2066 19.9748,24.6822 11.511,24.1085 c -0.1644,0 -0.2466,0 -0.4109,-0.082 C 11.6753,18.5346 10.8536,12.8788 8.71708,7.63279 8.47056,7.05901 6.66274,7.96067 6.41622,8.1246 2.71843,10.0099 -0.157642,13.4525 0.00670465,17.7969 0.171051,22.633 3.95103,26.4855 8.71708,27.0593 c -0.24652,2.7869 -0.73956,5.5739 -1.64347,8.3608 0.08218,-0.1639 0.82173,-0.2459 0.98608,-0.4918 1.15043,-2.541 2.05431,-5.0821 2.54741,-7.7051 5.2591,0 9.2856,-2.541 12.326,-6.3115 -0.2466,7.2132 0.0821,14.4264 1.1504,21.5577 1.3969,9.4264 3.2047,20.4101 8.1351,28.7709 4.3552,7.2952 12.5726,10.8199 20.2968,6.0657 3.6157,-2.2132 5.7522,-5.164 6.9848,-8.5248 3.8621,4.5083 9.1212,6.6395 16.3525,4.2624 0.2465,0 0.493,-0.082 0.6573,-0.1639 z M 6.00536,10.3377 C 7.89534,14.6821 8.79925,19.1084 8.88142,23.6166 3.95103,21.4035 2.38973,14.4362 6.00536,10.3377 Z"
       inkscape:connector-curvature="0" />
    <path
       id="path3_fill"
       d="M 43.4697,38.1832 C 41.251,42.3636 40.758,47.1178 36.2384,52.6097 31.0615,56.7081 22.6798,58.1015 17.8316,52.2818 13.3942,46.8719 13.1477,39.0029 12.9834,32.4454 12.6547,22.0354 14.0516,11.5435 16.599,1.37937 17.2564,-1.32559 11.9151,0.477716 11.3399,2.28102 10.8469,3.75645 10.436,5.23189 9.94298,6.70732 6.32735,18.2649 2.62955,29.8224 5.01546e-6,41.6259 5.01546e-6,41.4619 0.821743,41.298 0.903916,41.0521 2.7939,36.8717 4.51954,32.6093 6.24518,28.347 5.99866,31.7077 5.99865,34.9864 6.08082,38.3471 c 0.24652,8.1149 1.89,17.8692 9.61428,22.2955 7.8065,4.5082 20.6255,-2.787 28.925,-15.4101 3.9443,-8.8526 1.3148,-7.1313 2.2187,-8.3608 0.3287,-0.4098 -2.4652,0.2459 -3.3691,1.3115 z"
       inkscape:connector-curvature="0" />
    <path
       id="path4_fill"
       d="M 11.2906,0.873994 C 9.64716,0.300215 8.00368,0.464152 6.60674,1.20187 7.26412,-1.25719 2.00504,0.54612 1.34765,2.26746 -0.706681,7.59541 -0.54235,13.5791 2.74458,18.4152 3.56631,19.6448 5.94936,18.7431 6.77109,18.0874 9.89368,15.6283 13.7558,12.7594 14.8241,8.661 15.4815,5.71013 14.2489,2.02155 11.2906,0.873994 Z M 7.18196,13.907 C 5.70284,10.2184 5.20979,6.36588 6.19587,2.43139 6.52456,2.26746 7.01761,2.18549 7.51065,2.18549 9.23629,2.34943 10.3867,4.56257 10.7154,5.95604 11.6193,9.48068 9.64716,12.0217 7.18196,13.907 Z"
       inkscape:connector-curvature="0" />
    <path
       id="path5_fill"
       d="M 9.34292,0.728971 C 8.02815,0.23716 6.6312,0.4011 5.48077,0.974879 5.97381,-0.992364 1.7008,0.4011 1.12559,1.79456 -0.60005,6.22086 -0.435703,11.057 2.27602,15.0735 2.9334,16.0571 4.90556,15.3194 5.64512,14.8275 8.19249,12.7783 11.3973,10.4832 12.219,7.12251 12.8764,4.66346 11.8081,1.63062 9.34292,0.728971 Z M 6.05599,11.4668 C 4.82339,8.43401 4.41252,5.23724 5.23425,2.04047 5.56295,1.87653 5.89164,1.79456 6.30251,1.87652 7.69945,2.04046 8.68553,3.84377 8.93205,4.99133 9.67161,7.77826 8.11032,9.82747 6.05599,11.4668 Z"
       inkscape:connector-curvature="0" />
    <path
       id="path6_fill"
       d="m 34.5442,19.3446 c -4.6839,-8.3608 -15.6951,4.9181 -18.7355,8.6066 -2.4652,2.9509 -4.6017,6.1477 -6.49171,9.5903 0,-0.3278 0.08217,-0.7377 0.08217,-1.0655 C 10.2209,24.5086 11.4535,11.9674 10.3031,5.00296e-6 10.2209,5.00296e-6 10.1387,0.0819659 10.0565,0.0819659 9.48133,0.0819659 7.83787,0.327869 7.67352,1.06558 5.12615,13.2789 4.46876,25.984 3.15399,38.3612 2.57878,44.0171 1.83922,49.6729 1.18183,55.3287 1.09966,56.2304 0.93531,57.05 0.853137,57.9517 c -0.082173,0 -0.24652,-0.082 -0.328693,-0.1639 -0.082173,0 -0.24652,0.1639 -0.24652,0.1639 0.24652,0.1639 0.410867,0.2459 0.575213,0.3279 -0.657386,5.0001 -1.314773,10.246 -0.410866,15.0822 0.082173,0.5737 0.493039,0.7377 0.986079,0.7377 0.49304,2.541 2.54737,4.5902 5.50561,5.246 4.51954,0.9836 9.12124,-1.5574 12.40814,-4.4263 7.7243,-6.6395 13.2299,-16.5577 15.7773,-26.3119 1.2326,-4.8362 1.9722,-9.8362 1.89,-14.7543 -0.0822,-4.4263 -0.2465,-10.492 -2.4652,-14.5084 z m -2.5474,18.1969 c -0.3287,5.5739 -1.6435,11.0658 -3.6156,16.3118 -2.0543,5.3279 -4.9304,10.41 -8.6282,14.7543 -1.7256,2.0492 -3.6156,4.3443 -5.9987,5.5739 -3.3691,1.7213 -7.80642,-0.8197 -7.47773,-4.6723 0,-0.2459 -0.08217,-0.4098 -0.24652,-0.5737 1.31478,-4.5903 1.64347,-9.4264 2.05434,-14.1806 0.41086,-4.7541 0.73956,-9.5083 1.06825,-14.2625 1.97216,-3.8525 4.27306,-7.4591 6.98476,-10.7379 2.3008,-2.7869 10.929,-13.6067 14.2981,-8.2788 1.397,2.2132 1.397,6.0657 1.5613,8.4428 0.1644,2.541 0.1644,5.082 0,7.623 z"
       inkscape:connector-curvature="0" />
    <path
       id="path7_fill"
       d="M 13.345,35.2464 C 10.962,36.9678 10.1402,38.4432 8.98979,34.7546 7.83936,30.9021 7.67502,26.5578 7.4285,22.6233 7.18198,18.6068 7.18198,14.6723 7.51067,10.6559 7.75719,7.62306 9.40066,2.54102 7.59284,-2.50148e-6 7.51067,0.0819659 7.4285,0.0819634 7.26415,0.163932 6.77111,0.327869 5.8672,0.573777 5.62068,0.819682 2.00506,4.6722 1.42985,11.2297 0.772459,16.3117 -0.0492742,22.8692 -0.377965,29.8365 0.608115,36.476 1.2655,40.5744 3.15549,44.9187 7.83936,45.3285 c 5.58774,0.5738 9.44994,-4.8361 9.77864,-9.9181 0.2465,-2.1312 -3.5335,-0.6558 -4.273,-0.164 z"
       inkscape:connector-curvature="0" />
    <path
       id="path8_fill"
       d="m 273.304,28.2246 c 0.329,0.4099 -8.957,22.5414 -19.722,23.0332 -10.764,0.4918 -18.9,-7.2952 -20.872,-15.4921 9.532,-1.2295 17.585,-9.0165 18.654,-18.7707 0.575,-5.328 -0.822,-11.55759 -5.259,-14.9183 -3.945,-3.032834 -9.204,-2.541025 -13.148,0.16393 -4.355,3.03284 -6.328,8.19687 -7.478,13.19697 -1.561,6.8853 -2.219,14.0166 -1.15,20.9839 0.493,2.9508 1.314,5.7378 2.465,8.3608 -0.658,0.2459 -1.233,0.5737 -1.397,0.8197 -1.151,1.6393 -2.548,4.5902 -4.273,5.8197 -0.493,1.3115 -1.151,1.4754 -1.972,0.4918 -0.822,-0.5738 -1.479,-1.2295 -2.055,-1.9672 -1.561,-2.0492 -2.301,-4.6722 -2.711,-7.1313 -0.083,-0.4098 -0.165,-0.8197 -0.165,-1.2295 1.972,-9.5084 3.205,-19.3446 2.055,-28.9349 -0.247,-2.2131 -4.849,-0.0819 -5.095,1.4755 -1.808,9.4263 -2.794,18.9347 -4.766,28.2791 -0.986,4.6722 -1.89,9.5083 -3.534,14.0166 -0.328,0.9836 -1.15,3.7705 -2.3,4.1804 -1.644,0.6557 -3.863,-2.787 -4.602,-4.0985 0.164,-0.3278 -0.822,-1.3115 -0.986,-2.0492 -3.041,-7.2952 -2.63,-16.8035 -2.383,-24.4266 0.082,-2.2951 0.246,-4.5902 0.411,-6.8033 0.082,-0.7378 0.739,-3.1968 0,-4.0165 -0.822,-0.8197 -1.89,-0.1639 -2.63,0.2459 0,0 -0.411,0.1639 -0.329,0.2459 0,0.3279 0.165,0.5738 0.493,0.7377 0,0 0,0 0.083,0 0.164,-0.0819 0.328,-0.0819 0.41,-0.1639 0,0 0.083,0 0.083,-0.082 -1.562,1.0656 -2.794,13.5248 -2.959,15.738 -0.575,5.246 -0.986,10.7378 -0.493,16.0658 0.165,2.1312 0.74,4.5902 1.644,6.8853 -2.219,2.1312 -4.602,3.6066 -7.642,0.9017 -3.452,-3.1148 -4.766,-8.3608 -5.67,-12.6232 -1.151,-5.4918 -1.644,-21.1478 -9.943,-20.574 -7.149,0.4918 -11.176,11.7215 -13.23,17.7871 0,-1.5574 0,-3.1148 0.082,-4.5902 0.082,-3.3607 0.657,-7.951 -2.301,-10.41 -1.479,-1.2295 -3.04,-1.4754 -4.684,-1.2295 0.247,-0.164 0.493,-0.4099 0.658,-0.5738 0.082,0 0.164,-0.082 0.164,-0.082 -1.315,0.3279 -2.465,0.8197 -3.616,1.6394 -0.821,0.5738 0.411,0.4098 0.74,0.2459 6.656,-2.0492 3.205,17.2953 3.04,20.2462 -0.246,4.1804 -0.246,8.6887 -0.328,13.5248 -2.055,3.8525 -2.876,5.6558 -3.534,6.7214 -1.068,1.7213 -10.271,9.4264 -15.284,8.3608 -6.738,-1.8853 -9.121,-9.3444 -9.779,-16.2298 7.478,-2.7869 13.477,-10.4919 15.531,-17.8691 1.151,-4.2623 1.89,-10.1641 -1.397,-13.6887 -3.04,-3.2788 -8.217,-2.8689 -11.422,-0.082 -3.205,2.705 -5.259,7.2952 -6.738,11.4756 0.246,-4.9181 0.082,-9.6723 -0.493,-14.3445 -0.493,-3.7705 -6.41,-0.1639 -6.163,6.8034 -1.89,25.2463 -7.067,39.6727 -7.067,39.6727 0,0 -2.0544,4.4263 -4.1088,2.0492 -1.9721,-3.8525 -3.4512,-10.246 -5.5056,-14.7543 -1.8078,-3.6886 -3.6156,-7.3771 -5.2591,-11.0657 -1.7256,-3.6886 -3.0404,-7.787 -5.3412,-11.0658 -0.1644,-0.2459 -1.89,0.4099 -1.8078,0.7378 0.1643,4.0984 1.5613,8.2788 2.6295,12.2133 1.0683,4.0164 2.1365,8.0329 3.3691,12.0493 0.4931,1.6394 1.0683,3.2788 1.6435,5.0001 -1.397,0.4918 -2.7939,1.3115 -3.287,2.2951 C 80.854,75.1926 76.2523,86.5042 70.5002,85.1927 65.3233,84.0451 65.5698,74.4548 65.6519,70.6843 65.8985,57.9792 69.8428,45.1101 66.145,32.6509 65.4054,30.1919 61.1324,32.405 60.1463,33.3886 53.2438,40.6838 46.1769,48.7987 41.4108,57.8152 40.9178,51.0938 40.1782,44.3724 38.3704,38.0608 c -0.0822,-0.3278 -2.0543,0.4099 -2.2187,0.7378 -0.5752,1.1475 -2.0543,2.1311 -3.0404,2.9508 0.0822,-0.0819 0.2465,-0.0819 0.3287,-0.0819 0.9039,-0.7378 1.8078,-1.3935 2.7117,-2.0492 -0.2465,6.0656 0,12.2132 0.1644,18.3609 -0.2465,0.1639 -0.4109,0.4098 -0.4931,0.5738 -3.3691,6.4755 -7.0669,13.2788 -12.4081,18.4429 -2.4652,2.377 -5.67,4.7541 -9.0391,5.5738 C 10.185,83.5533 8.29498,79.0451 7.55542,75.6844 7.3089,74.4548 7.14456,71.6679 7.22674,68.3892 9.69193,68.881 14.6223,65.6842 16.4301,64.6186 20.1279,62.4055 23.5792,59.1267 24.1544,54.7004 25.4692,44.3724 13.6362,43.3068 7.39108,48.7987 3.36459,52.4053 1.88547,57.8972 0.981559,62.9793 -0.0866934,68.5531 -0.579728,74.8647 1.06374,80.3566 4.2685,91.1764 15.3619,89.4551 23.2505,84.8648 c 5.5878,-3.2787 9.943,-8.1148 12.9834,-13.6887 -0.0822,2.541 -0.2465,5.164 -0.4109,7.705 -0.3287,4.6722 -1.3147,9.6723 -0.986,14.3445 0.2465,3.8525 7.8064,0.7377 7.0669,-1.8853 0.7395,-3.7705 0.493,-7.787 0.493,-11.5575 0,-4.7542 -0.0822,-9.4264 -0.3287,-14.1806 -0.0822,-1.8852 -0.2465,-3.8525 -0.3287,-5.8197 2.7939,-4.0165 6.3274,-7.705 9.5321,-11.3117 2.9583,-3.2787 5.9987,-6.3115 9.2856,-9.2624 0.8217,7.869 -0.4109,15.656 -1.3969,23.6069 -0.9039,7.2952 -2.3831,16.5577 1.3969,23.361 3.4513,6.2296 10.7647,6.6395 16.599,3.3607 5.67,-3.2787 8.7104,-8.9345 10.9291,-14.8362 1.6434,4.3443 3.3691,8.6066 4.8482,12.951 1.3969,4.0164 7.2315,1.7213 8.7105,-0.9017 3.78,-7.0493 6.902,-14.8363 8.957,-22.3774 0.739,8.9346 5.67,20.4102 16.352,21.3118 6.41,0.5738 11.34,-3.6886 15.695,-8.2788 1.726,-1.8853 3.287,-3.8525 4.684,-5.7378 0,0.4918 0,1.0656 0.082,1.6394 0.247,4.0164 6.492,1.0656 6.903,-1.5574 0.986,-7.0493 1.89,-14.1806 3.616,-21.1479 0.821,-3.3607 1.972,-6.7214 3.287,-10.0001 0.739,-1.8033 1.643,-3.5247 2.629,-5.164 0.247,-0.4099 0.822,-1.4755 1.397,-2.3771 2.63,3.5246 3.287,14.5084 3.78,16.9674 0.904,4.8362 2.301,9.9182 5.67,13.6888 5.177,5.9837 12.244,4.0984 17.174,-0.4918 2.301,2.9508 5.506,4.7541 9.861,3.4426 6.738,-1.9672 9.203,-9.0985 10.847,-15.574 1.479,3.1148 4.355,5.7378 8.053,4.8362 3.698,-0.9017 6.163,-4.9181 7.724,-8.4428 3.944,7.1313 10.765,11.9674 19.968,11.0658 15.284,-1.6394 26.213,-19.0987 28.103,-28.689 0.987,-3.3607 -3.122,-1.7213 -3.122,-1.6394 z M 16.0193,49.4545 c 3.1226,1.8852 3.2047,6.7214 1.8078,9.6722 -1.0683,2.2952 -3.2048,4.0165 -5.2591,5.328 -0.5752,0.4098 -4.76605,2.623 -4.76605,1.8033 l -0.3287,0.1639 c -0.08217,0.082 -0.16434,0.164 -0.24651,0.164 0.41086,-9.0166 2.62954,-20.82 8.79256,-17.1314 z m 102.0597,5.082 c 0.41,-5.246 1.725,-10.492 3.862,-15.3281 0.657,-1.4754 2.218,-6.4755 3.944,-5.5738 1.972,0.9836 1.89,5 1.808,6.7214 -0.082,4.6722 -1.726,9.0165 -4.273,12.869 -1.562,2.2951 -3.369,4.0165 -5.424,5.6558 -0.082,-1.5574 -0.082,-3.0328 0.083,-4.3443 z M 240.928,6.7489 c 3.862,2.95086 4.437,9.0985 3.862,13.4428 -0.904,6.8034 -5.67,12.7871 -12.244,15.0822 -0.411,-1.8033 -0.657,-3.5246 -0.74,-5.164 -0.246,-3.8525 1.151,-29.426668 9.122,-23.361 z"
       inkscape:connector-curvature="0" />
    <path
       id="path9_fill"
       d="M 28.1103,0.801499 C 24.0016,-1.16574 18.6604,0.96544 14.5517,2.113 11.9222,2.85071 8.22436,3.75236 5.59482,5.30976 5.75916,4.49008 6.00567,3.75237 6.25219,3.01466 6.17002,3.17859 5.43046,3.09662 5.26612,3.34253 2.63657,8.17866 0.910936,12.8509 0.00702952,18.3428 -0.0751438,18.9165 0.58224,19.0805 0.993107,19.0805 c 6.409513,0 13.147693,-1.4755 18.488993,-5.164 0.8217,-0.5738 -0.0822,-0.6558 -0.5752,-0.5738 -4.7661,0.9016 -9.44995,2.1312 -14.29817,2.8689 -0.08218,-1.2296 -0.08218,-2.541 0,-3.8525 C 6.49871,11.7853 8.06001,10.6377 10.0322,10.2279 12.0865,9.73606 14.223,9.9 16.2773,9.49016 16.5239,9.40819 19.0712,8.42456 18.4138,8.17866 16.113,7.11307 13.2369,7.76882 10.8539,8.50654 9.45696,8.91638 8.14218,9.49016 6.90958,10.1459 6.66306,10.3098 5.26611,11.1295 4.60873,11.2935 4.77307,9.65409 5.0196,8.01472 5.34829,6.37536 6.2522,6.29339 7.23828,6.29339 7.56697,6.21142 9.70348,5.88355 11.84,5.4737 14.0587,5.14583 18.8247,4.40811 23.9195,4.57205 27.946,1.62118 28.0281,1.53921 28.5212,1.0474 28.1103,0.801499 Z"
       inkscape:connector-curvature="0" />
    <path
       id="path10_fill"
       d="M 31.3173,0.941144 C 26.9621,-1.10807 20.1417,0.695241 15.7044,1.59689 10.6096,2.58052 5.51489,3.89202 0.666667,5.77729 0.420148,5.85926 -0.483754,6.26909 0.337979,6.26909 4.44664,5.94122 8.55531,5.36744 12.664,4.79366 c -1.1505,2.54102 -1.7257,5.40994 -2.1365,8.11484 -0.4109,2.623 -0.90394,5.4919 0.9039,7.6231 0.8217,0.9836 3.8621,-0.3279 4.3552,-1.2295 1.4791,-2.541 0.8217,-5.6558 0.9039,-8.5247 0.0821,-2.21319 0.493,-4.42634 0.5752,-6.72145 0.0822,0 0.0822,0 0.1643,0 4.6017,-0.57378 9.5321,-0.49181 13.723,-2.78692 -0.0822,0.08196 0.4108,-0.16395 0.1643,-0.327886 z"
       inkscape:connector-curvature="0" />
    <path
       id="path11_fill"
       d="M 119.688,8.1233 C 97.994,-1.87686 72.5203,-1.79489 49.594,3.77897 38.4184,6.48393 27.7359,11.0742 17.7929,16.8939 10.233,21.2382 -0.778269,27.3039 0.0434635,37.3041 c 0,0 0.4108665,-0.082 0.4108665,-0.164 C 2.34432,25.5006 15.5742,19.7628 25.2707,15.8283 c 9.4499,-3.8525 19.475,-6.39351 29.5824,-7.95091 20.2146,-3.1148 40.347,-0.40984 60.1509,4.01641 1.479,0.3279 3.287,0.164 4.519,-0.9016 0.658,-0.6558 1.562,-2.21316 0.165,-2.8689 z"
       inkscape:connector-curvature="0" />
    <path
       id="path12_fill"
       d="M 209.476,1.25238 C 198.712,11.2525 188.029,20.515 175.457,28.302 163.295,35.8431 150.64,42.2366 137,46.5809 108.568,55.5975 78.3279,55.1876 51.7859,47.5646 45.5407,46.0891 38.8847,44.0399 31.4069,41.171 21.6283,36.9087 12.3427,31.3348 3.38584,27.3184 3.63236,26.2528 3.46801,25.2691 2.39976,25.1872 c -1.97216,-0.164 -3.53345,5.2459 -1.31478,5.2459 0.49304,0 0.90391,-0.3278 1.31478,-0.9016 4.27301,5.3279 10.27164,9.3444 16.10594,13.033 7.0669,4.4263 14.8734,7.8689 22.5155,10.6559 14.5447,5.4919 30.6507,8.5247 46.5101,9.1804 31.0617,1.2296 62.1227,-7.1312 88.2537,-23.9348 7.232,-4.6722 13.806,-10.246 19.886,-16.3936 6.328,-6.3116 12.573,-13.19696 17.175,-20.902 1.479,-2.37708 -2.712,-0.491803 -3.37,0.08198 z"
       inkscape:connector-curvature="0" />
  </defs>
</svg>
