<svg width="332" height="278" viewBox="0 0 332 278" version="1.1" xmlns="http://www.w3.org/2000/svg" xmlns:xlink="http://www.w3.org/1999/xlink">
<title>Group</title>
<desc>Created using Figma</desc>
<g id="Canvas" transform="translate(-2639 207)">
<g id="Group" opacity="0.7">
<g id="Vector">
<use xlink:href="#path0_fill" transform="translate(2676.17 -157.393)" fill="#E27170"/>
</g>
<g id="Vector">
<use xlink:href="#path1_fill" transform="translate(2742.07 -158.386)" fill="#E27170"/>
</g>
<g id="Vector">
<use xlink:href="#path2_fill" transform="translate(2765.65 -168.066)" fill="#E27170"/>
</g>
<g id="Vector">
<use xlink:href="#path3_fill" transform="translate(2852.68 -167.059)" fill="#E27170"/>
</g>
<g id="Vector">
<use xlink:href="#path4_fill" transform="translate(2859.55 -195.079)" fill="#E27170"/>
</g>
<g id="Vector">
<use xlink:href="#path5_fill" transform="translate(2683.27 -51.5706)" fill="#E27170"/>
</g>
<g id="Vector">
<use xlink:href="#path6_fill" transform="translate(2639 -43.7924)" fill="#E27170"/>
</g>
<g id="Vector">
<use xlink:href="#path7_fill" transform="translate(2678.93 -26.4971)" fill="#E27170"/>
</g>
<g id="Vector">
<use xlink:href="#path8_fill" transform="translate(2694.42 -73.8203)" fill="#E27170"/>
</g>
<g id="Vector">
<use xlink:href="#path9_fill" transform="translate(2755.88 -73.8566)" fill="#E27170"/>
</g>
<g id="Vector">
<use xlink:href="#path10_fill" transform="translate(2787.34 -79.0783)" fill="#E27170"/>
</g>
<g id="Vector">
<use xlink:href="#path11_fill" transform="translate(2705.71 -207)" fill="#E27170"/>
</g>
<g id="Vector">
<use xlink:href="#path12_fill" transform="translate(2689.88 8.48064)" fill="#E27170"/>
</g>
</g>
</g>
<defs>
<path id="path0_fill" d="M 65.903 74.83C 60.8904 62.5347 56.0422 50.4853 53.4126 37.3704C 51.0296 25.6489 50.1257 13.6815 50.5366 1.7141C 50.6188 -0.990864 45.2775 1.79607 44.8666 3.2715C 40.6758 17.452 38.3749 32.0424 37.7175 46.7148C 34.2663 33.108 32.3763 19.1734 32.1298 4.99283C 32.0476 2.53378 27.2815 5.23874 26.7885 6.46827C 23.1729 17.6979 20.7898 29.1735 19.5572 40.813C 17.2564 27.2883 14.8734 13.7635 12.5725 0.238664C 12.326 -0.662989 8.87472 1.22229 8.79254 2.04197C 5.66996 21.3046 2.30085 40.5671 -6.26932e-07 59.9937C -6.26932e-07 59.8297 0.73956 59.7478 0.73956 59.5019C 4.35519 43.8459 7.31342 28.026 10.3538 12.2061C 13.2299 31.2227 16.106 50.2394 19.0642 69.1741C 19.3929 71.2233 24.0768 68.6823 23.9946 66.961C 23.0085 51.7968 24.2411 36.5507 27.4459 21.7964C 28.925 37.2884 32.3763 52.5345 37.7997 67.1249C 37.8819 67.2889 37.8819 67.3708 37.9641 67.5348C 38.7858 69.6659 43.3875 66.2233 43.2232 64.5019C 42.3193 50.9771 43.141 37.4523 45.3597 24.1735C 45.9349 30.485 46.921 36.7966 48.3179 43.0262C 51.0296 54.9936 54.8096 67.4528 60.9726 78.1087C 62.123 80.0759 66.7247 76.7972 65.903 74.83Z"/>
<path id="path1_fill" d="M 34.9269 28.527C 34.4339 27.2975 30.7361 29.5926 30.8183 30.6582C 31.147 38.6911 31.147 46.806 30.0787 54.7569C 29.5035 59.1832 28.4353 68.5276 23.4227 70.6588C 20.1358 72.0523 16.5201 68.9375 14.7945 66.4784C 12.8223 63.6915 11.7541 60.4127 10.8502 57.134C 11.1789 56.8061 11.5897 56.4783 11.8362 56.1504C 17.0132 50.6585 19.0675 41.478 20.2179 34.2648C 21.2862 27.3795 23.2583 -7.53911 7.72758 1.47742C 1.64676 5.00207 1.40025 13.6907 0.742859 19.8384C -0.161047 28.8549 0.00329678 38.0354 1.31807 47.0519C 1.81111 50.3306 2.30415 54.0192 3.04371 57.5438C 2.55067 57.2979 2.05763 56.9701 1.56459 56.5602C 1.40025 56.3963 -0.0788752 57.2979 0.0032981 57.4619C 0.825031 59.1832 2.1398 59.9209 3.61892 60.0029C 4.68717 64.1833 6.24847 68.1178 8.63149 71.3145C 12.8223 76.8064 20.0536 78.9376 26.2988 75.7408C 32.8726 72.3801 35.8309 65.0849 37.2278 58.1996C 39.2 48.2814 38.7891 37.9534 34.9269 28.527ZM 8.63149 9.67427C 8.79584 9.01852 9.37105 5.65782 10.0284 5.57585C 11.3432 5.24797 12.1649 8.11687 12.4936 9.01853C 13.6441 12.2973 14.0549 15.9858 14.4658 19.4285C 15.2875 26.8876 14.8767 34.3468 13.151 41.642C 12.4115 44.8387 11.5076 48.1175 10.275 51.2323C 10.1106 51.6421 9.94627 52.2159 9.69975 52.7077C 8.13846 45.9863 7.23455 39.1009 7.07021 32.2156C 6.82369 24.7565 7.0702 16.9695 8.63149 9.67427Z"/>
<path id="path2_fill" d="M 76.51 72.8797C 80.3722 70.5026 83.4126 67.3878 84.9739 63.2074C 85.2204 62.2238 85.4669 61.3221 85.7135 60.3385C 86.9461 54.6827 88.5895 48.9449 89.0826 42.7153C 87.9321 43.453 86.5352 45.0924 86.2065 46.076C 84.8917 50.6662 83.6591 55.1745 81.1939 59.4369C 79.0574 63.0435 75.4418 67.8796 70.5936 66.6501C 65.0058 65.2566 61.9654 58.7811 60.1576 52.4695C 60.0754 52.0597 59.9932 51.5679 59.9932 51.158C 59.911 50.8302 59.8289 50.5843 59.6645 50.4203C 58.925 47.5514 58.4319 44.8465 58.1032 42.7973C 56.2132 32.5512 55.638 21.4035 57.6102 11.1574C 58.0211 9.02625 58.6784 5.99342 60.3219 4.43602C 63.0336 1.81303 66.4027 3.28846 68.7858 5.17374C 70.9223 6.89508 72.4014 9.27216 73.3875 11.7312C 74.3735 14.1083 74.7022 16.9772 76.2635 19.0264C 76.3457 19.1084 77.4139 18.6985 77.4139 18.5346C 79.3039 9.4361 71.5797 -2.61327 61.308 0.501535C 51.5294 3.4524 50.5433 15.3378 49.9681 23.8625C 49.475 31.4036 49.8859 47.3875 54.2411 59.2729C 53.9946 65.9124 52.3511 74.4371 45.4485 72.7157C 39.3677 71.2403 36.9025 62.7156 35.3412 57.5516C 30.2465 40.912 28.603 23.1248 30.1643 5.74752C 30.4108 3.12453 24.6587 5.09177 24.1657 6.89508C 22.6044 13.2066 19.9748 24.6822 11.511 24.1085C 11.3466 24.1085 11.2644 24.1085 11.1001 24.0265C 11.6753 18.5346 10.8536 12.8788 8.71708 7.63279C 8.47056 7.05901 6.66274 7.96067 6.41622 8.1246C 2.71843 10.0099 -0.157642 13.4525 0.00670465 17.7969C 0.171051 22.633 3.95103 26.4855 8.71708 27.0593C 8.47056 29.8462 7.97752 32.6332 7.07361 35.4201C 7.15579 35.2562 7.89534 35.1742 8.05969 34.9283C 9.21012 32.3873 10.114 29.8462 10.6071 27.2232C 15.8662 27.2232 19.8927 24.6822 22.9331 20.9117C 22.6865 28.1249 23.0152 35.3381 24.0835 42.4694C 25.4804 51.8958 27.2882 62.8795 32.2186 71.2403C 36.5738 78.5355 44.7912 82.0602 52.5154 77.306C 56.1311 75.0928 58.2676 72.142 59.5002 68.7812C 63.3623 73.2895 68.6214 75.4207 75.8527 73.0436C 76.0992 73.0436 76.3457 72.9616 76.51 72.8797ZM 6.00536 10.3377C 7.89534 14.6821 8.79925 19.1084 8.88142 23.6166C 3.95103 21.4035 2.38973 14.4362 6.00536 10.3377Z"/>
<path id="path3_fill" d="M 43.4697 38.1832C 41.251 42.3636 40.758 47.1178 36.2384 52.6097C 31.0615 56.7081 22.6798 58.1015 17.8316 52.2818C 13.3942 46.8719 13.1477 39.0029 12.9834 32.4454C 12.6547 22.0354 14.0516 11.5435 16.599 1.37937C 17.2564 -1.32559 11.9151 0.477716 11.3399 2.28102C 10.8469 3.75645 10.436 5.23189 9.94298 6.70732C 6.32735 18.2649 2.62955 29.8224 5.01546e-06 41.6259C 5.01546e-06 41.4619 0.821743 41.298 0.903916 41.0521C 2.7939 36.8717 4.51954 32.6093 6.24518 28.347C 5.99866 31.7077 5.99865 34.9864 6.08082 38.3471C 6.32734 46.462 7.97082 56.2163 15.6951 60.6426C 23.5016 65.1508 36.3206 57.8556 44.6201 45.2325C 48.5644 36.3799 45.9349 38.1012 46.8388 36.8717C 47.1675 36.4619 44.3736 37.1176 43.4697 38.1832Z"/>
<path id="path4_fill" d="M 11.2906 0.873994C 9.64716 0.300215 8.00368 0.464152 6.60674 1.20187C 7.26412 -1.25719 2.00504 0.54612 1.34765 2.26746C -0.706681 7.59541 -0.54235 13.5791 2.74458 18.4152C 3.56631 19.6448 5.94936 18.7431 6.77109 18.0874C 9.89368 15.6283 13.7558 12.7594 14.8241 8.661C 15.4815 5.71013 14.2489 2.02155 11.2906 0.873994ZM 7.18196 13.907C 5.70284 10.2184 5.20979 6.36588 6.19587 2.43139C 6.52456 2.26746 7.01761 2.18549 7.51065 2.18549C 9.23629 2.34943 10.3867 4.56257 10.7154 5.95604C 11.6193 9.48068 9.64716 12.0217 7.18196 13.907Z"/>
<path id="path5_fill" d="M 9.34292 0.728971C 8.02815 0.23716 6.6312 0.4011 5.48077 0.974879C 5.97381 -0.992364 1.7008 0.4011 1.12559 1.79456C -0.60005 6.22086 -0.435703 11.057 2.27602 15.0735C 2.9334 16.0571 4.90556 15.3194 5.64512 14.8275C 8.19249 12.7783 11.3973 10.4832 12.219 7.12251C 12.8764 4.66346 11.8081 1.63062 9.34292 0.728971ZM 6.05599 11.4668C 4.82339 8.43401 4.41252 5.23724 5.23425 2.04047C 5.56295 1.87653 5.89164 1.79456 6.30251 1.87652C 7.69945 2.04046 8.68553 3.84377 8.93205 4.99133C 9.67161 7.77826 8.11032 9.82747 6.05599 11.4668Z"/>
<path id="path6_fill" d="M 34.5442 19.3446C 29.8603 10.9838 18.8491 24.2627 15.8087 27.9512C 13.3435 30.9021 11.207 34.0989 9.31699 37.5415C 9.31699 37.2137 9.39916 36.8038 9.39916 36.476C 10.2209 24.5086 11.4535 11.9674 10.3031 5.00296e-06C 10.2209 5.00296e-06 10.1387 0.0819659 10.0565 0.0819659C 9.48133 0.0819659 7.83787 0.327869 7.67352 1.06558C 5.12615 13.2789 4.46876 25.984 3.15399 38.3612C 2.57878 44.0171 1.83922 49.6729 1.18183 55.3287C 1.09966 56.2304 0.93531 57.05 0.853137 57.9517C 0.770964 57.9517 0.606617 57.8697 0.524444 57.7878C 0.442271 57.7878 0.277924 57.9517 0.277924 57.9517C 0.524444 58.1156 0.688791 58.1976 0.853137 58.2796C 0.195751 63.2797 -0.461636 68.5256 0.442271 73.3618C 0.524444 73.9355 0.93531 74.0995 1.42835 74.0995C 1.92139 76.6405 3.97572 78.6897 6.93396 79.3455C 11.4535 80.3291 16.0552 77.7881 19.3421 74.9192C 27.0664 68.2797 32.572 58.3615 35.1194 48.6073C 36.352 43.7711 37.0916 38.7711 37.0094 33.853C 36.9272 29.4267 36.7629 23.361 34.5442 19.3446ZM 31.9968 37.5415C 31.6681 43.1154 30.3533 48.6073 28.3812 53.8533C 26.3269 59.1812 23.4508 64.2633 19.753 68.6076C 18.0274 70.6568 16.1374 72.9519 13.7543 74.1815C 10.3852 75.9028 5.94788 73.3618 6.27657 69.5092C 6.27657 69.2633 6.1944 69.0994 6.03005 68.9355C 7.34483 64.3452 7.67352 59.5091 8.08439 54.7549C 8.49525 50.0008 8.82395 45.2466 9.15264 40.4924C 11.1248 36.6399 13.4257 33.0333 16.1374 29.7545C 18.4382 26.9676 27.0664 16.1478 30.4355 21.4757C 31.8325 23.6889 31.8325 27.5414 31.9968 29.9185C 32.1612 32.4595 32.1612 35.0005 31.9968 37.5415Z"/>
<path id="path7_fill" d="M 13.345 35.2464C 10.962 36.9678 10.1402 38.4432 8.98979 34.7546C 7.83936 30.9021 7.67502 26.5578 7.4285 22.6233C 7.18198 18.6068 7.18198 14.6723 7.51067 10.6559C 7.75719 7.62306 9.40066 2.54102 7.59284 -2.50148e-06C 7.51067 0.0819659 7.4285 0.0819634 7.26415 0.163932C 6.77111 0.327869 5.8672 0.573777 5.62068 0.819682C 2.00506 4.6722 1.42985 11.2297 0.772459 16.3117C -0.0492742 22.8692 -0.377965 29.8365 0.608115 36.476C 1.2655 40.5744 3.15549 44.9187 7.83936 45.3285C 13.4271 45.9023 17.2893 40.4924 17.618 35.4104C 17.8645 33.2792 14.0845 34.7546 13.345 35.2464Z"/>
<path id="path8_fill" d="M 273.304 28.2246C 273.633 28.6345 264.347 50.766 253.582 51.2578C 242.818 51.7496 234.682 43.9626 232.71 35.7657C 242.242 34.5362 250.295 26.7492 251.364 16.995C 251.939 11.667 250.542 5.43741 246.105 2.0767C 242.16 -0.956134 236.901 -0.464325 232.957 2.24063C 228.602 5.27347 226.629 10.4375 225.479 15.4376C 223.918 22.3229 223.26 29.4542 224.329 36.4215C 224.822 39.3723 225.643 42.1593 226.794 44.7823C 226.136 45.0282 225.561 45.356 225.397 45.602C 224.246 47.2413 222.849 50.1922 221.124 51.4217C 220.631 52.7332 219.973 52.8971 219.152 51.9135C 218.33 51.3397 217.673 50.684 217.097 49.9463C 215.536 47.8971 214.796 45.2741 214.386 42.815C 214.303 42.4052 214.221 41.9953 214.221 41.5855C 216.193 32.0771 217.426 22.2409 216.276 12.6506C 216.029 10.4375 211.427 12.5687 211.181 14.1261C 209.373 23.5524 208.387 33.0608 206.415 42.4052C 205.429 47.0774 204.525 51.9135 202.881 56.4218C 202.553 57.4054 201.731 60.1923 200.581 60.6022C 198.937 61.2579 196.718 57.8152 195.979 56.5037C 196.143 56.1759 195.157 55.1922 194.993 54.4545C 191.952 47.1593 192.363 37.651 192.61 30.0279C 192.692 27.7328 192.856 25.4377 193.021 23.2246C 193.103 22.4868 193.76 20.0278 193.021 19.2081C 192.199 18.3884 191.131 19.0442 190.391 19.454C 190.391 19.454 189.98 19.6179 190.062 19.6999C 190.062 20.0278 190.227 20.2737 190.555 20.4376C 190.555 20.4376 190.555 20.4376 190.638 20.4376C 190.802 20.3557 190.966 20.3557 191.048 20.2737C 191.048 20.2737 191.131 20.2737 191.131 20.1917C 189.569 21.2573 188.337 33.7165 188.172 35.9297C 187.597 41.1757 187.186 46.6675 187.679 51.9955C 187.844 54.1267 188.419 56.5857 189.323 58.8808C 187.104 61.012 184.721 62.4874 181.681 59.7825C 178.229 56.6677 176.915 51.4217 176.011 47.1593C 174.86 41.6675 174.367 26.0115 166.068 26.5853C 158.919 27.0771 154.892 38.3068 152.838 44.3724C 152.838 42.815 152.838 41.2576 152.92 39.7822C 153.002 36.4215 153.577 31.8312 150.619 29.3722C 149.14 28.1427 147.579 27.8968 145.935 28.1427C 146.182 27.9787 146.428 27.7328 146.593 27.5689C 146.675 27.5689 146.757 27.4869 146.757 27.4869C 145.442 27.8148 144.292 28.3066 143.141 29.1263C 142.32 29.7001 143.552 29.5361 143.881 29.3722C 150.537 27.323 147.086 46.6675 146.921 49.6184C 146.675 53.7988 146.675 58.3071 146.593 63.1432C 144.538 66.9957 143.717 68.799 143.059 69.8646C 141.991 71.5859 132.788 79.291 127.775 78.2254C 121.037 76.3401 118.654 68.881 117.996 61.9956C 125.474 59.2087 131.473 51.5037 133.527 44.1265C 134.678 39.8642 135.417 33.9624 132.13 30.4378C 129.09 27.159 123.913 27.5689 120.708 30.3558C 117.503 33.0608 115.449 37.651 113.97 41.8314C 114.216 36.9133 114.052 32.1591 113.477 27.4869C 112.984 23.7164 107.067 27.323 107.314 34.2903C 105.424 59.5366 100.247 73.963 100.247 73.963C 100.247 73.963 98.1926 78.3893 96.1382 76.0122C 94.1661 72.1597 92.687 65.7662 90.6326 61.2579C 88.8248 57.5693 87.017 53.8808 85.3735 50.1922C 83.6479 46.5036 82.3331 42.4052 80.0323 39.1264C 79.8679 38.8805 78.1423 39.5363 78.2245 39.8642C 78.3888 43.9626 79.7858 48.143 80.854 52.0775C 81.9223 56.0939 82.9905 60.1104 84.2231 64.1268C 84.7162 65.7662 85.2914 67.4056 85.8666 69.1269C 84.4696 69.6187 83.0727 70.4384 82.5796 71.422C 80.854 75.1926 76.2523 86.5042 70.5002 85.1927C 65.3233 84.0451 65.5698 74.4548 65.6519 70.6843C 65.8985 57.9792 69.8428 45.1101 66.145 32.6509C 65.4054 30.1919 61.1324 32.405 60.1463 33.3886C 53.2438 40.6838 46.1769 48.7987 41.4108 57.8152C 40.9178 51.0938 40.1782 44.3724 38.3704 38.0608C 38.2882 37.733 36.3161 38.4707 36.1517 38.7986C 35.5765 39.9461 34.0974 40.9297 33.1113 41.7494C 33.1935 41.6675 33.3578 41.6675 33.44 41.6675C 34.3439 40.9297 35.2478 40.274 36.1517 39.6183C 35.9052 45.6839 36.1517 51.8315 36.3161 57.9792C 36.0696 58.1431 35.9052 58.389 35.823 58.553C 32.4539 65.0285 28.7561 71.8318 23.4149 76.9959C 20.9497 79.3729 17.7449 81.75 14.3758 82.5697C 10.185 83.5533 8.29498 79.0451 7.55542 75.6844C 7.3089 74.4548 7.14456 71.6679 7.22674 68.3892C 9.69193 68.881 14.6223 65.6842 16.4301 64.6186C 20.1279 62.4055 23.5792 59.1267 24.1544 54.7004C 25.4692 44.3724 13.6362 43.3068 7.39108 48.7987C 3.36459 52.4053 1.88547 57.8972 0.981559 62.9793C -0.0866934 68.5531 -0.579728 74.8647 1.06374 80.3566C 4.2685 91.1764 15.3619 89.4551 23.2505 84.8648C 28.8383 81.5861 33.1935 76.75 36.2339 71.1761C 36.1517 73.7171 35.9874 76.3401 35.823 78.8811C 35.4943 83.5533 34.5083 88.5534 34.837 93.2256C 35.0835 97.0781 42.6434 93.9633 41.9039 91.3403C 42.6434 87.5698 42.3969 83.5533 42.3969 79.7828C 42.3969 75.0286 42.3147 70.3564 42.0682 65.6022C 41.986 63.717 41.8217 61.7497 41.7395 59.7825C 44.5334 55.766 48.0669 52.0775 51.2716 48.4708C 54.2299 45.1921 57.2703 42.1593 60.5572 39.2084C 61.3789 47.0774 60.1463 54.8644 59.1603 62.8153C 58.2564 70.1105 56.7772 79.373 60.5572 86.1763C 64.0085 92.4059 71.3219 92.8158 77.1562 89.537C 82.8262 86.2583 85.8666 80.6025 88.0853 74.7008C 89.7287 79.0451 91.4544 83.3074 92.9335 87.6518C 94.3304 91.6682 100.165 89.3731 101.644 86.7501C 105.424 79.7008 108.546 71.9138 110.601 64.3727C 111.34 73.3073 116.271 84.7829 126.953 85.6845C 133.363 86.2583 138.293 81.9959 142.648 77.4057C 144.374 75.5204 145.935 73.5532 147.332 71.6679C 147.332 72.1597 147.332 72.7335 147.414 73.3073C 147.661 77.3237 153.906 74.3729 154.317 71.7499C 155.303 64.7006 156.207 57.5693 157.933 50.602C 158.754 47.2413 159.905 43.8806 161.22 40.6019C 161.959 38.7986 162.863 37.0772 163.849 35.4379C 164.096 35.028 164.671 33.9624 165.246 33.0608C 167.876 36.5854 168.533 47.5692 169.026 50.0282C 169.93 54.8644 171.327 59.9464 174.696 63.717C 179.873 69.7007 186.94 67.8154 191.87 63.2252C 194.171 66.176 197.376 67.9793 201.731 66.6678C 208.469 64.7006 210.934 57.5693 212.578 51.0938C 214.057 54.2086 216.933 56.8316 220.631 55.93C 224.329 55.0283 226.794 51.0119 228.355 47.4872C 232.299 54.6185 239.12 59.4546 248.323 58.553C 263.607 56.9136 274.536 39.4543 276.426 29.864C 277.413 26.5033 273.304 28.1427 273.304 28.2246ZM 16.0193 49.4545C 19.1419 51.3397 19.224 56.1759 17.8271 59.1267C 16.7588 61.4219 14.6223 63.1432 12.568 64.4547C 11.9928 64.8645 7.80195 67.0777 7.80195 66.258L 7.47325 66.4219C 7.39108 66.5039 7.30891 66.5859 7.22674 66.5859C 7.6376 57.5693 9.85628 45.7659 16.0193 49.4545ZM 118.079 54.5365C 118.489 49.2905 119.804 44.0445 121.941 39.2084C 122.598 37.733 124.159 32.7329 125.885 33.6346C 127.857 34.6182 127.775 38.6346 127.693 40.356C 127.611 45.0282 125.967 49.3725 123.42 53.225C 121.858 55.5201 120.051 57.2415 117.996 58.8808C 117.914 57.3234 117.914 55.848 118.079 54.5365ZM 240.928 6.7489C 244.79 9.69976 245.365 15.8474 244.79 20.1917C 243.886 26.9951 239.12 32.9788 232.546 35.2739C 232.135 33.4706 231.889 31.7493 231.806 30.1099C 231.56 26.2574 232.957 0.683232 240.928 6.7489Z"/>
<path id="path9_fill" d="M 28.1103 0.801499C 24.0016 -1.16574 18.6604 0.96544 14.5517 2.113C 11.9222 2.85071 8.22436 3.75236 5.59482 5.30976C 5.75916 4.49008 6.00567 3.75237 6.25219 3.01466C 6.17002 3.17859 5.43046 3.09662 5.26612 3.34253C 2.63657 8.17866 0.910936 12.8509 0.00702952 18.3428C -0.0751438 18.9165 0.58224 19.0805 0.993107 19.0805C 7.40262 19.0805 14.1408 17.605 19.4821 13.9165C 20.3038 13.3427 19.3999 13.2607 18.9069 13.3427C 14.1408 14.2443 9.45695 15.4739 4.60873 16.2116C 4.52655 14.982 4.52655 13.6706 4.60873 12.3591C 6.49871 11.7853 8.06001 10.6377 10.0322 10.2279C 12.0865 9.73606 14.223 9.9 16.2773 9.49016C 16.5239 9.40819 19.0712 8.42456 18.4138 8.17866C 16.113 7.11307 13.2369 7.76882 10.8539 8.50654C 9.45696 8.91638 8.14218 9.49016 6.90958 10.1459C 6.66306 10.3098 5.26611 11.1295 4.60873 11.2935C 4.77307 9.65409 5.0196 8.01472 5.34829 6.37536C 6.2522 6.29339 7.23828 6.29339 7.56697 6.21142C 9.70348 5.88355 11.84 5.4737 14.0587 5.14583C 18.8247 4.40811 23.9195 4.57205 27.946 1.62118C 28.0281 1.53921 28.5212 1.0474 28.1103 0.801499Z"/>
<path id="path10_fill" d="M 31.3173 0.941144C 26.9621 -1.10807 20.1417 0.695241 15.7044 1.59689C 10.6096 2.58052 5.51489 3.89202 0.666667 5.77729C 0.420148 5.85926 -0.483754 6.26909 0.337979 6.26909C 4.44664 5.94122 8.55531 5.36744 12.664 4.79366C 11.5135 7.33468 10.9383 10.2036 10.5275 12.9085C 10.1166 15.5315 9.62356 18.4004 11.4314 20.5316C 12.2531 21.5152 15.2935 20.2037 15.7866 19.3021C 17.2657 16.7611 16.6083 13.6463 16.6905 10.7774C 16.7726 8.56421 17.1835 6.35106 17.2657 4.05595C 17.3479 4.05595 17.3479 4.05595 17.43 4.05595C 22.0317 3.48217 26.9621 3.56414 31.153 1.26903C 31.0708 1.35099 31.5638 1.10508 31.3173 0.941144Z"/>
<path id="path11_fill" d="M 119.688 8.1233C 97.994 -1.87686 72.5203 -1.79489 49.594 3.77897C 38.4184 6.48393 27.7359 11.0742 17.7929 16.8939C 10.233 21.2382 -0.778269 27.3039 0.0434635 37.3041C 0.0434635 37.3041 0.45433 37.2221 0.45433 37.1401C 2.34432 25.5006 15.5742 19.7628 25.2707 15.8283C 34.7206 11.9758 44.7457 9.43479 54.8531 7.87739C 75.0677 4.76259 95.2001 7.46755 115.004 11.8938C 116.483 12.2217 118.291 12.0578 119.523 10.9922C 120.181 10.3364 121.085 8.77904 119.688 8.1233Z"/>
<path id="path12_fill" d="M 209.476 1.25238C 198.712 11.2525 188.029 20.515 175.457 28.302C 163.295 35.8431 150.64 42.2366 137 46.5809C 108.568 55.5975 78.3279 55.1876 51.7859 47.5646C 45.5407 46.0891 38.8847 44.0399 31.4069 41.171C 21.6283 36.9087 12.3427 31.3348 3.38584 27.3184C 3.63236 26.2528 3.46801 25.2691 2.39976 25.1872C 0.4276 25.0232 -1.13369 30.4331 1.08498 30.4331C 1.57802 30.4331 1.98889 30.1053 2.39976 29.5315C 6.67277 34.8594 12.6714 38.8759 18.5057 42.5645C 25.5726 46.9908 33.3791 50.4334 41.0212 53.2204C 55.5659 58.7123 71.6719 61.7451 87.5313 62.4008C 118.593 63.6304 149.654 55.2696 175.785 38.466C 183.017 33.7938 189.591 28.22 195.671 22.0724C 201.999 15.7608 208.244 8.87544 212.846 1.1704C 214.325 -1.20668 210.134 0.678597 209.476 1.25238Z"/>
</defs>
</svg>
